SplineFontDB: 3.2
FontName: SeriousShannsItalic
FullName: Serious Shanns Italic
FamilyName: Serious Shanns
Weight: Book
Copyright: https://github.com/kaBeech/serious-shanns/blob/main/LICENSE
Version: 6.0.0
ItalicAngle: -12.7
UnderlinePosition: 0
UnderlineWidth: 0
Ascent: 800
Descent: 200
InvalidEm: 0
sfntRevision: 0x00003333
LayerCount: 2
Layer: 0 0 "Back" 1
Layer: 1 0 "Fore" 0
XUID: [1021 45 630387186 1984481]
StyleMap: 0x0040
FSType: 0
OS2Version: 3
OS2_WeightWidthSlopeOnly: 0
OS2_UseTypoMetrics: 0
CreationTime: 1532631502
ModificationTime: 315532800
PfmFamily: 49
TTFWeight: 400
TTFWidth: 5
LineGap: 0
VLineGap: 0
Panose: 0 0 0 0 0 0 0 0 0 0
OS2TypoAscent: 613
OS2TypoAOffset: 0
OS2TypoDescent: -188
OS2TypoDOffset: 0
OS2TypoLinegap: 98
OS2WinAscent: 778
OS2WinAOffset: 0
OS2WinDescent: 308
OS2WinDOffset: 0
HheadAscent: 796
HheadAOffset: 0
HheadDescent: -317
HheadDOffset: 0
OS2SubXSize: 317
OS2SubYSize: 293
OS2SubXOff: 0
OS2SubYOff: 37
OS2SupXSize: 317
OS2SupYSize: 293
OS2SupXOff: 0
OS2SupYOff: 171
OS2StrikeYSize: 0
OS2StrikeYPos: 132
OS2CapHeight: 576
OS2XHeight: 485
OS2Vendor: 'NONE'
OS2CodePages: 00000001.00000000
OS2UnicodeRanges: 00000001.00000000.00000000.00000000
MarkAttachClasses: 1
DEI: 91125
LangName: 1033 "" "" "Normal" "" "" "Version 0.2.0"
Encoding: UnicodeBmp
Compacted: 1
UnicodeInterp: none
NameList: AGL For New Fonts
DisplaySize: -48
AntiAlias: 1
FitToEm: 0
WinInfo: 0 16 9
BeginPrivate: 8
BlueValues 32 [-40 -6 497 511 708 718 765 769]
OtherBlues 11 [-298 -287]
BlueScale 9 0.0291667
BlueShift 1 2
StdHW 4 [86]
StdVW 4 [58]
StemSnapH 19 [82 85 86 89 90 94]
StemSnapV 7 [58 68]
EndPrivate
BeginChars: 65537 125

StartChar: .notdef
Encoding: 65536 -1 0
Width: 550
VWidth: 886
GlyphClass: 1
Flags: W
HStem: -191.725 45.8994<112.874 366.174> 626.825 45.8994<291.374 544.674>
LayerCount: 2
Fore
SplineSet
60.173828125 -191.724609375 m 1
 259.07421875 672.724609375 l 1
 598.224609375 672.724609375 l 1
 398.474609375 -191.724609375 l 1
 60.173828125 -191.724609375 l 1
112.874023438 -145.825195312 m 1
 366.173828125 -145.825195312 l 1
 544.673828125 626.825195312 l 1
 291.374023438 626.825195312 l 1
 112.874023438 -145.825195312 l 1
EndSplineSet
Validated: 1
EndChar

StartChar: exclam
Encoding: 33 33 12
Width: 550
VWidth: 907
GlyphClass: 2
Flags: HMW
HStem: 37.0116 130.047
VStem: 234.204 128.35
LayerCount: 2
Fore
SplineSet
478.15625 684.712890625 m 0
 477.0234375 679.612304688 467.38671875 642.353515625 449.25390625 572.936523438 c 0
 431.120117188 503.51953125 417.520507812 446.995117188 408.453125 403.361328125 c 0
 399.38671875 360.861328125 393.436523438 335.50390625 390.603515625 327.286132812 c 0
 387.770507812 319.069335938 384.370117188 305.89453125 380.403320312 287.76171875 c 0
 376.436523438 275.294921875 369.63671875 265.51953125 360.00390625 258.436523438 c 0
 351.083984375 251.877929688 341.6796875 248.599609375 331.788085938 248.599609375 c 0
 330.99609375 248.599609375 330.201171875 248.620117188 329.403320312 248.662109375 c 0
 318.63671875 248.662109375 310.703125 252.345703125 305.603515625 259.712890625 c 0
 302.903320312 263.612304688 301.553710938 268.465820312 301.553710938 274.271484375 c 0
 301.553710938 279.432617188 302.620117188 285.345703125 304.75390625 292.013671875 c 0
 307.586914062 300.513671875 310.561523438 308.73046875 313.678710938 316.663085938 c 0
 316.795898438 324.596679688 319.203125 331.25390625 320.903320312 336.637695312 c 0
 322.603515625 342.020507812 325.861328125 354.770507812 330.678710938 374.887695312 c 0
 335.495117188 395.00390625 341.020507812 420.9296875 347.25390625 452.662109375 c 0
 351.220703125 474.762695312 356.037109375 498.137695312 361.704101562 522.787109375 c 0
 367.37109375 547.4375 372.329101562 567.979492188 376.579101562 584.412109375 c 0
 380.829101562 600.845703125 385.646484375 619.545898438 391.029296875 640.512695312 c 0
 396.412109375 661.479492188 399.954101562 675.362304688 401.654296875 682.162109375 c 0
 405.62109375 697.462890625 412.138671875 709.079101562 421.205078125 717.012695312 c 0
 430.272460938 724.9453125 440.189453125 728.912109375 450.956054688 728.912109375 c 0
 451.766601562 728.953125 452.559570312 728.97265625 453.337890625 728.97265625 c 0
 463.448242188 728.97265625 470.870117188 725.552734375 475.606445312 718.712890625 c 0
 478.666015625 714.291992188 480.196289062 708.444335938 480.196289062 701.168945312 c 0
 480.196289062 696.317382812 479.515625 690.833007812 478.15625 684.712890625 c 0
284.352539062 37.01171875 m 0
 281.517578125 36.6875 278.793945312 36.5263671875 276.178710938 36.5263671875 c 0
 260.5 36.5263671875 248.775390625 42.3525390625 241.00390625 54.0078125 c 0
 234.959960938 63.0751953125 231.9375 73.4013671875 231.9375 84.986328125 c 0
 231.9375 90.779296875 232.692382812 96.8857421875 234.203125 103.30859375 c 0
 238.170898438 120.30859375 248.370117188 135.041015625 264.803710938 147.5078125 c 0
 281.236328125 159.975585938 297.953125 166.4921875 314.953125 167.059570312 c 0
 315.78515625 167.083984375 316.606445312 167.09765625 317.41796875 167.09765625 c 0
 334.852539062 167.09765625 347.630859375 161.276367188 355.75390625 149.634765625 c 0
 361.548828125 141.328125 364.447265625 131.638671875 364.447265625 120.56640625 c 0
 364.447265625 115.399414062 363.81640625 109.930664062 362.553710938 104.161132812 c 0
 358.586914062 86.02734375 349.51953125 70.8701171875 335.352539062 58.6865234375 c 0
 321.185546875 46.50390625 304.185546875 39.2783203125 284.352539062 37.01171875 c 0
EndSplineSet
Validated: 524289
EndChar

StartChar: quotedbl
Encoding: 34 34 13
Width: 550
VWidth: 941
GlyphClass: 2
Flags: HMW
VStem: 282.266 260.102
LayerCount: 2
Fore
SplineSet
415.71875 718.748046875 m 0
 410.619140625 695.514648438 401.409179688 657.403320312 388.092773438 604.419921875 c 0
 374.775390625 551.4375 364.717773438 515.029296875 357.91796875 495.196289062 c 0
 353.950195312 483.86328125 347.43359375 475.36328125 338.366210938 469.696289062 c 0
 330.124023438 464.544921875 322.116210938 461.96875 314.342773438 461.96875 c 0
 313.564453125 461.96875 312.7890625 461.995117188 312.016601562 462.045898438 c 0
 301.25 462.61328125 292.607421875 466.155273438 286.090820312 472.671875 c 0
 282.040039062 476.72265625 280.014648438 481.813476562 280.014648438 487.944335938 c 0
 280.014648438 491.676757812 280.764648438 495.793945312 282.265625 500.296875 c 0
 290.765625 529.197265625 299.973632812 566.313476562 309.890625 611.646484375 c 0
 319.807617188 656.98046875 327.599609375 694.379882812 333.266601562 723.846679688 c 0
 334.399414062 730.646484375 336.950195312 736.455078125 340.916992188 741.271484375 c 0
 344.883789062 746.088867188 349.416992188 749.630859375 354.516601562 751.897460938 c 0
 359.616210938 754.165039062 364.716796875 755.72265625 369.81640625 756.573242188 c 0
 374.916992188 757.422851562 380.016601562 757.564453125 385.116210938 756.998046875 c 0
 389.649414062 756.998046875 393.899414062 756.430664062 397.866210938 755.297851562 c 0
 401.833984375 754.165039062 405.375976562 752.323242188 408.4921875 749.772460938 c 0
 411.609375 747.22265625 413.875976562 743.255859375 415.29296875 737.873046875 c 0
 416.709960938 732.489257812 416.852539062 726.114257812 415.71875 718.748046875 c 0
542.3671875 718.744140625 m 0
 537.833984375 695.51171875 528.911132812 657.400390625 515.59375 604.416992188 c 0
 502.27734375 551.43359375 491.935546875 515.025390625 484.568359375 495.192382812 c 0
 480.6015625 483.859375 474.083984375 475.359375 465.017578125 469.692382812 c 0
 456.774414062 464.541015625 448.766601562 461.965820312 440.993164062 461.965820312 c 0
 440.215820312 461.965820312 439.440429688 461.991210938 438.66796875 462.04296875 c 0
 428.467773438 462.609375 419.967773438 466.151367188 413.16796875 472.668945312 c 0
 409.087890625 476.579101562 407.046875 481.45703125 407.046875 487.305664062 c 0
 407.046875 491.204101562 407.955078125 495.534179688 409.767578125 500.293945312 c 0
 418.267578125 529.193359375 427.333984375 566.310546875 436.967773438 611.643554688 c 0
 446.600585938 656.9765625 454.250976562 694.376953125 459.91796875 723.84375 c 0
 461.05078125 730.643554688 463.600585938 736.452148438 467.567382812 741.268554688 c 0
 471.534179688 746.0859375 476.208984375 749.627929688 481.592773438 751.89453125 c 0
 486.975585938 754.161132812 492.075195312 755.719726562 496.892578125 756.569335938 c 0
 501.708984375 757.419921875 506.66796875 757.561523438 511.767578125 756.994140625 c 0
 516.8671875 756.994140625 521.259765625 756.427734375 524.942382812 755.294921875 c 0
 528.625976562 754.161132812 532.16796875 752.319335938 535.567382812 749.76953125 c 0
 538.967773438 747.219726562 541.375976562 743.252929688 542.79296875 737.869140625 c 0
 544.208984375 732.486328125 544.067382812 726.111328125 542.3671875 718.744140625 c 0
EndSplineSet
Validated: 524289
EndChar

StartChar: numbersign
Encoding: 35 35 14
Width: 550
VWidth: 904
GlyphClass: 2
Flags: HMW
HStem: 217.396 69.7<459.861 476.011 431.811 492.161> 432.446 71.4<346.805 465.81 375.71 437.755 375.71 544.861 375.71 515.961>
LayerCount: 2
Fore
SplineSet
203.161132812 89.8955078125 m 0
 196.361328125 77.99609375 186.438476562 68.220703125 173.405273438 60.5703125 c 0
 164.3828125 55.2744140625 156.310546875 52.626953125 149.188476562 52.626953125 c 0
 146.0234375 52.626953125 143.045898438 53.1494140625 140.255859375 54.1953125 c 0
 131.188476562 56.462890625 125.6640625 63.6875 123.680664062 75.87109375 c 0
 123.259765625 78.455078125 123.049804688 81.095703125 123.049804688 83.794921875 c 0
 123.049804688 93.8193359375 125.952148438 104.63671875 131.756835938 116.245117188 c 0
 139.689453125 131.544921875 154.706054688 164.412109375 176.806640625 214.844726562 c 1
 153.006835938 214.844726562 l 2
 139.973632812 214.844726562 130.623046875 217.677734375 124.956054688 223.344726562 c 0
 119.290039062 229.01171875 117.58984375 236.662109375 119.856445312 246.294921875 c 0
 121.556640625 256.495117188 126.373046875 264.995117188 134.306640625 271.794921875 c 0
 142.239257812 278.594726562 153.006835938 282.561523438 166.606445312 283.6953125 c 0
 170.573242188 283.6953125 176.948242188 283.836914062 185.731445312 284.120117188 c 0
 194.514648438 284.403320312 201.172851562 284.544921875 205.706054688 284.544921875 c 1
 266.905273438 431.594726562 l 1
 262.373046875 431.594726562 256.422851562 431.453125 249.055664062 431.169921875 c 0
 241.688476562 430.88671875 236.588867188 430.745117188 233.755859375 430.745117188 c 0
 232.711914062 430.69921875 231.693359375 430.676757812 230.700195312 430.676757812 c 0
 219.2734375 430.676757812 211.083984375 433.673828125 206.131835938 439.669921875 c 0
 200.748046875 446.186523438 199.190429688 454.26171875 201.45703125 463.89453125 c 0
 203.157226562 474.094726562 208.115234375 482.737304688 216.33203125 489.8203125 c 0
 224.548828125 496.903320312 235.741210938 500.727539062 249.908203125 501.294921875 c 0
 260.108398438 501.862304688 275.408203125 502.14453125 295.80859375 502.14453125 c 1
 330.94140625 587.711914062 348.791015625 631.912109375 349.358398438 634.745117188 c 0
 356.725585938 648.912109375 365.5078125 658.829101562 375.708007812 664.49609375 c 0
 382.5078125 668.274414062 389.056640625 670.163085938 395.353515625 670.163085938 c 0
 398.500976562 670.163085938 401.5859375 669.69140625 404.608398438 668.74609375 c 0
 415.375 666.479492188 422.7421875 660.8125 426.708984375 651.74609375 c 0
 428.251953125 648.219726562 429.0234375 644.264648438 429.0234375 639.881835938 c 0
 429.0234375 632.994140625 427.119140625 625.048828125 423.309570312 616.045898438 c 2
 375.709960938 503.845703125 l 1
 465.809570312 503.845703125 l 1
 515.109375 627.9453125 l 2
 522.4765625 642.678710938 531.259765625 652.87890625 541.459960938 658.545898438 c 0
 548.259765625 662.32421875 554.934570312 664.212890625 561.483398438 664.212890625 c 0
 564.756835938 664.212890625 567.999023438 663.741210938 571.209960938 662.796875 c 0
 582.54296875 660.529296875 590.193359375 654.862304688 594.16015625 645.795898438 c 0
 595.548828125 642.622070312 596.2421875 639.1015625 596.2421875 635.233398438 c 0
 596.2421875 628.05078125 593.848632812 619.671875 589.059570312 610.095703125 c 0
 577.7265625 586.295898438 563.276367188 551.4453125 545.709960938 505.545898438 c 1
 554.209960938 505.545898438 l 2
 566.676757812 505.545898438 576.452148438 501.720703125 583.53515625 494.0703125 c 0
 589.247070312 487.901367188 592.103515625 481.455078125 592.103515625 474.733398438 c 0
 592.103515625 473.120117188 591.938476562 471.491210938 591.609375 469.845703125 c 0
 589.342773438 459.645507812 584.243164062 451.00390625 576.309570312 443.920898438 c 0
 568.376953125 436.837890625 557.893554688 433.012695312 544.860351562 432.4453125 c 2
 515.9609375 432.4453125 l 1
 459.860351562 287.095703125 l 1
 492.161132812 287.095703125 l 2
 504.627929688 287.095703125 512.419921875 284.12109375 515.536132812 278.170898438 c 0
 518.653320312 272.220703125 519.361328125 264.428710938 517.661132812 254.795898438 c 0
 511.994140625 229.862304688 498.111328125 217.395507812 476.01171875 217.395507812 c 2
 431.811523438 217.395507812 l 1
 406.311523438 152.795898438 388.461914062 109.163085938 378.26171875 86.49609375 c 0
 370.89453125 74.595703125 361.26171875 65.3876953125 349.361328125 58.87109375 c 0
 341.541015625 54.587890625 334.2109375 52.4462890625 327.370117188 52.4462890625 c 0
 323.80078125 52.4462890625 320.364257812 53.0302734375 317.061523438 54.1953125 c 0
 307.994140625 56.462890625 302.186523438 63.12109375 299.63671875 74.1708984375 c 0
 298.98046875 77.01171875 298.653320312 79.95703125 298.653320312 83.0048828125 c 0
 298.653320312 91.80859375 301.388671875 101.471679688 306.861328125 111.99609375 c 0
 317.62890625 134.663085938 332.361328125 169.512695312 351.061523438 216.545898438 c 1
 340.294921875 216.545898438 324.286132812 216.403320312 303.036132812 216.12109375 c 0
 281.786132812 215.837890625 266.344726562 215.6953125 256.711914062 215.6953125 c 1
 231.211914062 154.49609375 213.361328125 112.5625 203.161132812 89.8955078125 c 0
346.805664062 432.4453125 m 1
 286.456054688 287.094726562 l 1
 307.989257812 287.662109375 338.873046875 287.9453125 379.10546875 287.9453125 c 1
 398.373046875 334.412109375 417.922851562 382.579101562 437.755859375 432.4453125 c 1
 346.805664062 432.4453125 l 1
EndSplineSet
Validated: 524289
EndChar

StartChar: dollar
Encoding: 36 36 15
Width: 550
VWidth: 901
GlyphClass: 2
Flags: HMW
HStem: 26.5076 72.2442<232.586 264.035 241.936 264.035> 597.7 67.1517
VStem: 229.186 70.5491 449.762 79.8983
LayerCount: 2
Fore
SplineSet
299.735351562 -32.998046875 m 0
 295.767578125 -45.46484375 288.96875 -55.0927734375 279.3359375 -61.892578125 c 0
 269.703125 -68.6923828125 259.502929688 -72.0927734375 248.735351562 -72.0927734375 c 0
 239.102539062 -72.0927734375 232.5859375 -68.267578125 229.185546875 -60.6171875 c 0
 227.826171875 -57.5576171875 227.145507812 -53.9755859375 227.145507812 -49.8740234375 c 0
 227.145507812 -43.7197265625 228.67578125 -36.392578125 231.735351562 -27.892578125 c 0
 235.703125 -14.2919921875 240.235351562 3.8408203125 245.3359375 26.5078125 c 1
 241.935546875 26.5078125 l 2
 223.235351562 26.5078125 206.235351562 29.0576171875 190.935546875 34.1572265625 c 0
 175.635742188 39.2578125 162.885742188 46.0576171875 152.685546875 54.5576171875 c 0
 142.485351562 63.0576171875 134.268554688 72.125 128.036132812 81.7578125 c 0
 121.802734375 91.390625 116.985351562 101.874023438 113.5859375 113.20703125 c 0
 112.49609375 119.090820312 111.951171875 124.556640625 111.951171875 129.603515625 c 0
 111.951171875 137.677734375 113.345703125 144.678710938 116.135742188 150.606445312 c 0
 120.668945312 160.240234375 127.751953125 167.323242188 137.384765625 171.856445312 c 0
 144.184570312 174.689453125 149.709960938 176.671875 153.959960938 177.8046875 c 0
 158.209960938 178.938476562 162.459960938 179.221679688 166.709960938 178.654296875 c 0
 170.959960938 178.086914062 174.78515625 175.8203125 178.184570312 171.853515625 c 0
 181.584960938 167.88671875 184.985351562 162.219726562 188.384765625 154.852539062 c 0
 195.184570312 137.286132812 204.110351562 123.543945312 215.16015625 113.626953125 c 0
 226.209960938 103.709960938 241.934570312 98.751953125 262.334960938 98.751953125 c 2
 264.03515625 98.751953125 l 1
 287.267578125 193.384765625 307.100585938 277.818359375 323.534179688 352.05078125 c 1
 320.701171875 352.05078125 316.309570312 352.618164062 310.359375 353.750976562 c 0
 304.409179688 354.883789062 299.734375 355.451171875 296.333984375 355.451171875 c 0
 278.201171875 357.717773438 262.333984375 363.100585938 248.734375 371.600585938 c 0
 235.133789062 380.100585938 224.934570312 390.443359375 218.133789062 402.625976562 c 0
 211.333984375 414.80859375 206.80078125 427.55859375 204.534179688 440.875976562 c 0
 203.627929688 446.202148438 203.173828125 451.551757812 203.173828125 456.923828125 c 0
 203.173828125 464.982421875 204.193359375 473.091796875 206.234375 481.250976562 c 0
 210.767578125 501.651367188 218.133789062 521.201171875 228.333984375 539.901367188 c 0
 238.534179688 558.600585938 251.42578125 576.026367188 267.008789062 592.17578125 c 0
 282.591796875 608.326171875 301.434570312 622.208984375 323.534179688 633.826171875 c 0
 345.633789062 645.443359375 369.434570312 653.517578125 394.934570312 658.05078125 c 1
 398.901367188 671.651367188 403.434570312 688.083984375 408.534179688 707.350585938 c 0
 416.466796875 738.517578125 430.633789062 754.100585938 451.034179688 754.100585938 c 0
 451.474609375 754.111328125 451.911132812 754.1171875 452.341796875 754.1171875 c 0
 469.98046875 754.1171875 478.80078125 745.296875 478.80078125 727.657226562 c 0
 478.80078125 722.494140625 478.044921875 716.575195312 476.534179688 709.901367188 c 2
 465.484375 664.8515625 l 1
 477.383789062 664.28515625 493.109375 661.452148438 512.659179688 656.3515625 c 0
 532.208984375 651.251953125 546.517578125 646.434570312 555.583984375 641.901367188 c 0
 564.651367188 637.934570312 570.458984375 631.702148438 573.008789062 623.202148438 c 0
 574.006835938 619.875976562 574.505859375 616.462890625 574.505859375 612.962890625 c 0
 574.505859375 607.51953125 573.298828125 601.865234375 570.883789062 596.001953125 c 0
 568.6171875 589.202148438 565.359375 583.959960938 561.109375 580.276367188 c 0
 556.859375 576.59375 552.184570312 574.327148438 547.083984375 573.4765625 c 0
 541.984375 572.626953125 537.166992188 572.485351562 532.633789062 573.051757812 c 0
 528.100585938 573.619140625 523.850585938 574.46875 519.883789062 575.6015625 c 0
 515.350585938 576.735351562 509.826171875 579.142578125 503.309570312 582.826171875 c 0
 496.791992188 586.508789062 489.284179688 589.767578125 480.784179688 592.600585938 c 0
 472.284179688 595.43359375 461.80078125 597.1328125 449.333984375 597.700195312 c 1
 438.000976562 552.3671875 423.267578125 492.299804688 405.134765625 417.5 c 1
 428.368164062 414.100585938 448.485351562 408.0078125 465.485351562 399.225585938 c 0
 482.485351562 390.442382812 495.376953125 380.383789062 504.16015625 369.05078125 c 0
 512.943359375 357.717773438 519.459960938 344.684570312 523.709960938 329.952148438 c 0
 527.694335938 316.138671875 529.686523438 302.575195312 529.686523438 289.259765625 c 0
 529.686523438 277.947265625 528.346679688 261.924804688 523.28515625 242.401367188 c 0
 517.051757812 216.334960938 507.27734375 191.684570312 493.959960938 168.452148438 c 0
 480.642578125 145.21875 464.634765625 125.1015625 445.934570312 108.1015625 c 0
 427.235351562 91.1015625 406.693359375 76.369140625 384.309570312 63.9013671875 c 0
 361.926757812 51.4345703125 338.551757812 42.0849609375 314.184570312 35.8515625 c 1
 306.251953125 1.8515625 301.434570312 -21.0986328125 299.735351562 -32.998046875 c 0
284.435546875 502.5078125 m 0
 283.302734375 497.326171875 282.735351562 492.331054688 282.735351562 487.51953125 c 0
 282.735351562 475.493164062 286.27734375 464.622070312 293.360351562 454.907226562 c 0
 303.27734375 441.307617188 319.002929688 431.674804688 340.536132812 426.0078125 c 1
 350.168945312 465.107421875 363.202148438 519.5078125 379.634765625 589.208007812 c 1
 355.267578125 581.840820312 334.443359375 570.791015625 317.16015625 556.057617188 c 0
 299.876953125 541.32421875 288.96875 523.474609375 284.435546875 502.5078125 c 0
446.786132812 227.958007812 m 0
 448.80078125 237.529296875 449.80859375 246.4296875 449.80859375 254.658203125 c 0
 449.80859375 265.40625 447.881835938 275.549804688 444.236328125 286.184570312 c 0
 440.836914062 296.1015625 434.178710938 305.309570312 424.26171875 313.809570312 c 0
 414.344726562 322.309570312 401.453125 329.67578125 385.5859375 335.909179688 c 1
 379.352539062 310.9765625 370.286132812 273.434570312 358.385742188 223.284179688 c 0
 346.485351562 173.134765625 337.703125 136.7265625 332.036132812 114.059570312 c 1
 360.369140625 125.392578125 385.161132812 140.975585938 406.411132812 160.80859375 c 0
 427.661132812 180.641601562 441.119140625 203.024414062 446.786132812 227.958007812 c 0
EndSplineSet
Validated: 524289
EndChar

StartChar: percent
Encoding: 37 37 16
Width: 550
VWidth: 899
GlyphClass: 2
Flags: HMW
HStem: 25.2157 64.6 194.366 62.9<427.219 438.269> 416.217 63.75<247.302 286.119> 586.217 62.05<306.235 309.635>
LayerCount: 2
Fore
SplineSet
256.653320312 416.216796875 m 0
 237.953125 416.216796875 222.654296875 421.741210938 210.75390625 432.791992188 c 0
 198.854492188 443.841796875 191.345703125 457.724609375 188.229492188 474.44140625 c 0
 186.958984375 481.252929688 186.32421875 488.275390625 186.32421875 495.509765625 c 0
 186.32421875 506.032226562 187.666992188 517 190.353515625 528.416992188 c 0
 198.286132812 563.55078125 214.01171875 592.30859375 237.528320312 614.69140625 c 0
 261.044921875 637.07421875 289.520507812 648.266601562 322.953125 648.266601562 c 0
 335.986328125 648.266601562 347.603515625 645.858398438 357.803710938 641.041992188 c 0
 368.002929688 636.224609375 376.502929688 629 383.303710938 619.366210938 c 0
 390.103515625 609.733398438 393.928710938 596.55859375 394.778320312 579.841796875 c 0
 394.879882812 577.834960938 394.930664062 575.791015625 394.930664062 573.70703125 c 0
 394.930664062 558.427734375 392.188476562 541.064453125 386.703125 521.616210938 c 0
 377.0703125 487.049804688 361.770507812 460.841796875 340.803710938 442.991210938 c 0
 319.8359375 425.141601562 291.786132812 416.216796875 256.653320312 416.216796875 c 0
103.654296875 65.1669921875 m 0
 120.086914062 89.533203125 158.053710938 140.67578125 217.553710938 218.592773438 c 0
 277.053710938 296.509765625 336.6953125 375.134765625 396.478515625 454.467773438 c 0
 456.26171875 533.80078125 497.203125 590.467773438 519.303710938 624.467773438 c 0
 527.803710938 634.666992188 537.436523438 641.041992188 548.203125 643.592773438 c 0
 551.544921875 644.383789062 554.75 644.779296875 557.819335938 644.779296875 c 0
 564.63671875 644.779296875 570.782226562 642.825195312 576.252929688 638.916992188 c 0
 584.752929688 634.384765625 588.578125 627.7265625 587.728515625 618.943359375 c 0
 586.877929688 610.16015625 581.63671875 599.53515625 572.002929688 587.068359375 c 0
 544.236328125 552.500976562 477.228515625 464.384765625 370.978515625 322.717773438 c 0
 264.728515625 181.05078125 193.752929688 85.283203125 158.053710938 35.4169921875 c 0
 143.407226562 15.330078125 129.688476562 5.287109375 116.896484375 5.287109375 c 0
 112.366210938 5.287109375 107.952148438 6.546875 103.654296875 9.06640625 c 0
 94.3037109375 14.4501953125 89.62890625 21.81640625 89.62890625 31.1669921875 c 0
 89.62890625 40.5166015625 94.3037109375 51.8505859375 103.654296875 65.1669921875 c 0
279.603515625 479.966796875 m 0
 292.63671875 479.966796875 303.6875 484.499023438 312.75390625 493.565429688 c 0
 321.821289062 502.6328125 328.62109375 514.815429688 333.154296875 530.115234375 c 0
 335.569335938 539.2421875 336.778320312 547.224609375 336.778320312 554.0625 c 0
 336.778320312 561.659179688 335.286132812 567.844726562 332.303710938 572.616210938 c 0
 326.63671875 581.68359375 316.719726562 586.216796875 302.553710938 586.216796875 c 0
 290.0859375 586.216796875 279.178710938 581.258789062 269.828125 571.341796875 c 0
 260.478515625 561.424804688 253.252929688 547.966796875 248.153320312 530.966796875 c 0
 246.168945312 523.032226562 245.178710938 516.020507812 245.178710938 509.928710938 c 0
 245.178710938 503.836914062 246.168945312 498.666992188 248.153320312 494.416992188 c 0
 252.120117188 485.916992188 262.603515625 481.099609375 279.603515625 479.966796875 c 0
378.204101562 25.2158203125 m 0
 359.50390625 25.2158203125 344.203125 30.740234375 332.303710938 41.791015625 c 0
 320.403320312 52.8408203125 312.895507812 66.7236328125 309.778320312 83.4404296875 c 0
 308.5078125 90.251953125 307.873046875 97.2744140625 307.873046875 104.508789062 c 0
 307.873046875 115.03125 309.215820312 126 311.90234375 137.416992188 c 0
 319.8359375 172.549804688 335.560546875 201.307617188 359.077148438 223.690429688 c 0
 382.594726562 246.07421875 410.786132812 257.265625 443.653320312 257.265625 c 0
 456.686523438 257.265625 468.444335938 254.999023438 478.927734375 250.465820312 c 0
 489.41015625 245.932617188 498.052734375 238.708007812 504.852539062 228.791015625 c 0
 511.65234375 218.874023438 515.477539062 205.556640625 516.327148438 188.83984375 c 0
 516.421875 186.982421875 516.469726562 185.091796875 516.469726562 183.16796875 c 0
 516.469726562 167.776367188 513.447265625 150.259765625 507.40234375 130.615234375 c 0
 497.76953125 96.0478515625 482.611328125 69.6982421875 461.928710938 51.564453125 c 0
 441.872070312 33.9814453125 415.0234375 25.1904296875 381.379882812 25.1904296875 c 0
 380.327148438 25.1904296875 379.26953125 25.1982421875 378.204101562 25.2158203125 c 0
401.153320312 89.8154296875 m 0
 401.866210938 89.783203125 402.572265625 89.7666015625 403.275390625 89.7666015625 c 0
 414.845703125 89.7666015625 424.905273438 94.1748046875 433.454101562 102.990234375 c 0
 442.521484375 112.340820312 449.321289062 124.3828125 453.854492188 139.115234375 c 0
 456.193359375 148.060546875 457.36328125 155.919921875 457.36328125 162.692382812 c 0
 457.36328125 183.807617188 445.993164062 194.365234375 423.25390625 194.365234375 c 0
 410.787109375 194.365234375 400.020507812 189.407226562 390.953125 179.490234375 c 0
 381.88671875 169.57421875 374.803710938 156.3984375 369.703125 139.965820312 c 0
 367.788085938 132.580078125 366.830078125 125.953125 366.830078125 120.084960938 c 0
 366.830078125 113.797851562 367.930664062 108.383789062 370.127929688 103.840820312 c 0
 374.377929688 95.0576171875 384.719726562 90.3828125 401.153320312 89.8154296875 c 0
EndSplineSet
Validated: 524289
EndChar

StartChar: ampersand
Encoding: 38 38 17
Width: 550
VWidth: 901
GlyphClass: 2
Flags: HMW
HStem: 15.4519 79.8983<217.723 254.838> 599.401 67.15<408.689 408.972>
VStem: 402.458 76.4975 476.405 70.975<303.6 303.6>
LayerCount: 2
Fore
SplineSet
457.705078125 21.400390625 m 0xe0
 452.165039062 18.3525390625 446.7265625 16.830078125 441.389648438 16.830078125 c 0
 435.810546875 16.830078125 430.340820312 18.49609375 424.982421875 21.8271484375 c 0
 414.499023438 28.34375 406.991210938 39.5361328125 402.458007812 55.40234375 c 0xe0
 401.890625 58.2353515625 400.616210938 66.7353515625 398.6328125 80.90234375 c 0
 396.649414062 95.0693359375 394.807617188 105.26953125 393.107421875 111.502929688 c 1
 391.408203125 109.235351562 387.158203125 104.418945312 380.357421875 97.0517578125 c 0
 373.557617188 89.6845703125 368.458007812 84.3017578125 365.057617188 80.90234375 c 0
 361.658203125 77.501953125 356.1328125 72.40234375 348.482421875 65.6015625 c 0
 340.833007812 58.8017578125 334.458007812 53.5595703125 329.357421875 49.876953125 c 0
 324.2578125 46.193359375 317.599609375 41.8017578125 309.3828125 36.7021484375 c 0
 301.166015625 31.6015625 293.374023438 27.77734375 286.006835938 25.2265625 c 0
 278.639648438 22.6767578125 270.282226562 20.41015625 260.931640625 18.4267578125 c 0
 251.58203125 16.443359375 242.08984375 15.4521484375 232.45703125 15.4521484375 c 0
 202.990234375 15.4521484375 177.7734375 23.6689453125 156.805664062 40.1015625 c 0
 135.838867188 56.53515625 121.671875 78.068359375 114.305664062 104.701171875 c 0
 110.474609375 118.549804688 108.559570312 133.012695312 108.559570312 148.086914062 c 0
 108.559570312 162.002929688 110.19140625 176.440429688 113.455078125 191.401367188 c 0
 137.822265625 298.500976562 195.905273438 371.318359375 287.705078125 409.850585938 c 1
 284.872070312 418.350585938 281.330078125 428.55078125 277.080078125 440.451171875 c 0
 272.830078125 452.350585938 269.85546875 460.708984375 268.155273438 465.526367188 c 0
 266.455078125 470.342773438 264.61328125 476.576171875 262.629882812 484.225585938 c 0
 260.647460938 491.875976562 259.655273438 498.534179688 259.655273438 504.201171875 c 0
 259.655273438 509.868164062 260.080078125 516.809570312 260.930664062 525.02734375 c 0
 261.780273438 533.244140625 263.337890625 542.168945312 265.60546875 551.801757812 c 0
 267.872070312 562.001953125 271.4140625 572.059570312 276.231445312 581.9765625 c 0
 281.047851562 591.893554688 287.706054688 602.09375 296.206054688 612.577148438 c 0
 304.706054688 623.059570312 314.481445312 632.267578125 325.53125 640.201171875 c 0
 336.581054688 648.133789062 350.180664062 654.508789062 366.331054688 659.326171875 c 0
 382.481445312 664.142578125 399.623046875 666.55078125 417.755859375 666.55078125 c 0
 433.055664062 666.55078125 447.505859375 664.000976562 461.106445312 658.901367188 c 0
 474.706054688 653.80078125 486.463867188 646.29296875 496.380859375 636.375976562 c 0
 506.297851562 626.458984375 512.956054688 613.42578125 516.356445312 597.276367188 c 0
 517.8125 590.354492188 518.541992188 583.094726562 518.541992188 575.497070312 c 0
 518.541992188 565.3671875 517.247070312 554.633789062 514.65625 543.30078125 c 0
 510.689453125 525.16796875 504.59765625 508.309570312 496.379882812 492.7265625 c 0
 488.163085938 477.143554688 479.663085938 464.110351562 470.879882812 453.627929688 c 0
 462.09765625 443.14453125 451.47265625 433.086914062 439.004882812 423.453125 c 0
 426.538085938 413.8203125 415.48828125 406.170898438 405.85546875 400.50390625 c 0
 396.22265625 394.836914062 385.171875 389.169921875 372.705078125 383.502929688 c 1
 378.372070312 365.935546875 388.572265625 339.869140625 403.305664062 305.301757812 c 0
 418.038085938 270.735351562 427.388671875 247.78515625 431.35546875 236.452148438 c 1
 436.455078125 244.384765625 442.405273438 253.592773438 449.205078125 264.076171875 c 0
 456.004882812 274.559570312 461.671875 283.059570312 466.205078125 289.576171875 c 0
 470.73828125 296.092773438 474.138671875 300.767578125 476.405273438 303.600585938 c 0
 488.872070312 318.333984375 499.780273438 327.541992188 509.129882812 331.225585938 c 0
 512.813476562 332.67578125 516.473632812 333.401367188 520.11328125 333.401367188 c 0
 525.712890625 333.401367188 531.259765625 331.684570312 536.754882812 328.249023438 c 0
 543.920898438 324.154296875 547.50390625 316.940429688 547.50390625 306.604492188 c 0
 547.50390625 296.490234375 544.258789062 282.131835938 530.805664062 261.950195312 c 0
 526.837890625 256.850585938 516.35546875 245.517578125 499.35546875 227.950195312 c 0
 482.35546875 210.3828125 467.622070312 194.233398438 455.155273438 179.5 c 1
 458.555664062 168.733398438 463.372070312 153.291015625 469.60546875 133.174804688 c 0
 475.837890625 113.057617188 479.23828125 101.299804688 479.805664062 97.8994140625 c 0
 481.938476562 91.4990234375 483.004882812 84.7861328125 483.004882812 77.7578125 c 0
 483.004882812 69.8515625 481.655273438 61.5498046875 478.955078125 52.849609375 c 0
 473.85546875 36.416015625 466.772460938 25.93359375 457.705078125 21.400390625 c 0xe0
337.005859375 537.350585938 m 0
 335.305664062 530.265625 334.455078125 522.826171875 334.455078125 515.033203125 c 0
 334.455078125 507.2421875 335.305664062 499.099609375 337.004882812 490.600585938 c 0
 340.404296875 473.600585938 345.787109375 458.583984375 353.154296875 445.55078125 c 1
 365.62109375 449.517578125 376.388671875 453.625976562 385.455078125 457.875976562 c 0
 394.522460938 462.125976562 403.447265625 467.651367188 412.23046875 474.451171875 c 0
 421.013671875 481.250976562 428.23828125 489.609375 433.905273438 499.526367188 c 0
 439.572265625 509.443359375 443.822265625 521.201171875 446.655273438 534.80078125 c 0
 448.420898438 542.05859375 449.303710938 548.72265625 449.303710938 554.791992188 c 0
 449.303710938 566.255859375 446.154296875 575.600585938 439.85546875 582.826171875 c 0
 430.22265625 593.875976562 417.189453125 599.401367188 400.755859375 599.401367188 c 0
 367.889648438 599.401367188 346.639648438 578.717773438 337.005859375 537.350585938 c 0
194.204101562 199.05078125 m 0
 191.529296875 187.45703125 190.19140625 176.608398438 190.19140625 166.504882812 c 0
 190.19140625 150.931640625 193.370117188 137.129882812 199.728515625 125.100585938 c 0
 210.211914062 105.267578125 227.353515625 95.3505859375 251.153320312 95.3505859375 c 0
 258.520507812 95.3505859375 265.887695312 96.2001953125 273.254882812 97.900390625 c 0
 280.62109375 99.6005859375 287.138671875 101.299804688 292.805664062 103 c 0
 298.47265625 104.700195312 304.421875 107.533203125 310.655273438 111.5 c 0
 316.888671875 115.466796875 321.846679688 118.725585938 325.529296875 121.275390625 c 0
 329.212890625 123.825195312 333.887695312 127.791992188 339.5546875 133.174804688 c 0
 345.221679688 138.55859375 349.188476562 142.3828125 351.455078125 144.650390625 c 0
 353.72265625 146.916992188 357.405273438 151.025390625 362.504882812 156.975585938 c 0
 367.60546875 162.924804688 370.72265625 166.466796875 371.85546875 167.600585938 c 0
 367.888671875 189.700195312 363.921875 206.983398438 359.954101562 219.450195312 c 0
 356.5546875 232.483398438 348.762695312 253.733398438 336.579101562 283.200195312 c 0
 324.396484375 312.666992188 315.754882812 334.484375 310.654296875 348.651367188 c 1
 293.087890625 341.284179688 277.504882812 332.076171875 263.904296875 321.026367188 c 0
 250.3046875 309.975585938 238.971679688 297.79296875 229.904296875 284.475585938 c 0
 220.837890625 271.159179688 213.612304688 257.701171875 208.229492188 244.100585938 c 0
 202.846679688 230.500976562 198.171875 215.484375 194.204101562 199.05078125 c 0
EndSplineSet
Validated: 524289
EndChar

StartChar: quotesingle
Encoding: 39 39 18
Width: 550
VWidth: 941
GlyphClass: 2
Flags: HMW
HStem: 470.474 276.674
VStem: 347.835 129.2
LayerCount: 2
Fore
SplineSet
477.037109375 710.172851562 m 0
 472.50390625 687.505859375 464.288085938 652.515625 452.388671875 605.19921875 c 0
 440.48828125 557.881835938 430.85546875 524.307617188 423.48828125 504.473632812 c 0
 419.521484375 492.57421875 413.004882812 483.791015625 403.9375 478.124023438 c 0
 395.6953125 472.97265625 387.6875 470.396484375 379.9140625 470.396484375 c 0
 379.135742188 470.396484375 378.360351562 470.422851562 377.587890625 470.473632812 c 0
 366.8203125 471.041015625 358.178710938 474.723632812 351.662109375 481.524414062 c 0
 347.611328125 485.750976562 345.5859375 490.963867188 345.5859375 497.161132812 c 0
 345.5859375 500.93359375 346.3359375 505.071289062 347.836914062 509.57421875 c 0
 356.336914062 539.041015625 364.836914062 573.041015625 373.336914062 611.57421875 c 0
 381.836914062 650.107421875 388.919921875 684.390625 394.586914062 714.422851562 c 0
 395.719726562 721.223632812 398.26953125 727.172851562 402.237304688 732.2734375 c 0
 406.204101562 737.373046875 410.87890625 740.915039062 416.26171875 742.8984375 c 0
 421.64453125 744.880859375 426.745117188 746.297851562 431.561523438 747.1484375 c 0
 436.37890625 747.998046875 441.336914062 748.140625 446.436523438 747.573242188 c 0
 450.969726562 747.573242188 455.219726562 747.005859375 459.186523438 745.873046875 c 0
 463.154296875 744.740234375 466.836914062 742.8984375 470.237304688 740.348632812 c 0
 473.63671875 737.797851562 475.904296875 733.973632812 477.037109375 728.873046875 c 0
 478.169921875 723.7734375 478.169921875 717.540039062 477.037109375 710.172851562 c 0
EndSplineSet
Validated: 524289
EndChar

StartChar: parenleft
Encoding: 40 40 19
Width: 550
VWidth: 901
GlyphClass: 2
Flags: HMW
HStem: -60.123 71.3983<325.96 365.629> 674.277 68.85<505.879 540.445>
LayerCount: 2
Fore
SplineSet
382.62890625 -27.82421875 m 0
 380.362304688 -36.8916015625 375.119140625 -44.5400390625 366.90234375 -50.7734375 c 0
 358.685546875 -57.005859375 350.893554688 -60.123046875 343.526367188 -60.123046875 c 0
 308.393554688 -60.123046875 279.635742188 -46.5234375 257.251953125 -19.3232421875 c 0
 234.869140625 7.876953125 220.27734375 45.5595703125 213.477539062 93.7265625 c 0
 210.455078125 115.134765625 208.944335938 137.997070312 208.944335938 162.314453125 c 0
 208.944335938 192.711914062 211.3046875 225.3828125 216.02734375 260.327148438 c 0
 221.694335938 301.694335938 235.010742188 355.52734375 255.978515625 421.827148438 c 0
 276.9453125 488.126953125 299.89453125 542.809570312 324.828125 585.876953125 c 0
 336.161132812 604.577148438 349.478515625 623.134765625 364.778320312 641.551757812 c 0
 380.078125 659.96875 396.794921875 676.827148438 414.927734375 692.126953125 c 0
 433.061523438 707.426757812 452.328125 719.751953125 472.728515625 729.1015625 c 0
 493.127929688 738.452148438 512.111328125 743.126953125 529.677734375 743.126953125 c 0
 547.087890625 743.126953125 555.79296875 735.533203125 555.79296875 720.345703125 c 0
 555.79296875 716.749023438 555.3046875 712.7265625 554.328125 708.27734375 c 0
 551.495117188 696.376953125 546.112304688 687.735351562 538.178710938 682.3515625 c 0
 530.24609375 676.96875 521.74609375 674.27734375 512.678710938 674.27734375 c 0
 499.079101562 674.27734375 485.336914062 670.02734375 471.454101562 661.52734375 c 0
 457.571289062 653.02734375 444.395507812 641.41015625 431.928710938 626.676757812 c 0
 419.461914062 611.944335938 407.987304688 595.793945312 397.50390625 578.2265625 c 0
 387.020507812 560.66015625 377.24609375 541.676757812 368.178710938 521.27734375 c 0
 354.579101562 491.809570312 340.553710938 451.29296875 326.103515625 399.7265625 c 0
 311.654296875 348.159179688 301.87890625 306.2265625 296.779296875 273.92578125 c 0
 292.606445312 245.643554688 290.520507812 218.025390625 290.520507812 191.0703125 c 0
 290.520507812 185.081054688 290.623046875 179.125 290.829101562 173.201171875 c 0
 291.961914062 140.618164062 295.50390625 112.568359375 301.454101562 89.05078125 c 0
 307.404296875 65.5341796875 315.62109375 46.6923828125 326.103515625 32.525390625 c 0
 336.586914062 18.3583984375 348.061523438 11.275390625 360.529296875 11.275390625 c 0
 370.728515625 11.275390625 377.811523438 8.4423828125 381.779296875 2.775390625 c 0
 383.915039062 -0.2763671875 384.983398438 -4.6416015625 384.983398438 -10.3212890625 c 0
 384.983398438 -15.1904296875 384.198242188 -21.0244140625 382.62890625 -27.82421875 c 0
EndSplineSet
Validated: 524289
EndChar

StartChar: parenright
Encoding: 41 41 20
Width: 550
VWidth: 901
GlyphClass: 2
Flags: HMW
HStem: -60.1296 71.4<185.969 191.92> 674.273 68.8517<340.387 367.87>
VStem: 419.153 73.1009
LayerCount: 2
Fore
SplineSet
449.752929688 260.32421875 m 0
 429.353515625 197.424804688 404.701171875 141.887695312 375.80078125 93.720703125 c 0
 346.900390625 45.5537109375 314.883789062 7.8701171875 279.750976562 -19.3291015625 c 0
 244.618164062 -46.529296875 209.484375 -60.1298828125 174.3515625 -60.1298828125 c 0
 166.984375 -60.1298828125 160.467773438 -57.0126953125 154.80078125 -50.779296875 c 0
 149.133789062 -44.546875 147.43359375 -36.896484375 149.701171875 -27.8291015625 c 0
 153.100585938 -13.0966796875 158.201171875 -2.896484375 165.000976562 2.7705078125 c 0
 171.80078125 8.4375 180.583984375 11.2705078125 191.350585938 11.2705078125 c 0
 203.817382812 11.2705078125 218.409179688 18.353515625 235.126953125 32.5205078125 c 0
 251.84375 46.6875 268.701171875 65.529296875 285.701171875 89.0458984375 c 0
 302.701171875 112.563476562 319.418945312 140.754882812 335.8515625 173.622070312 c 0
 352.284179688 206.489257812 365.6015625 239.921875 375.801757812 273.921875 c 0
 386.001953125 306.221679688 395.634765625 348.155273438 404.701171875 399.721679688 c 0
 413.768554688 451.2890625 418.5859375 491.805664062 419.15234375 521.2734375 c 0
 419.15234375 541.672851562 417.876953125 560.65625 415.327148438 578.22265625 c 0
 412.77734375 595.790039062 408.810546875 611.939453125 403.427734375 626.672851562 c 0
 398.043945312 641.40625 390.39453125 653.0234375 380.477539062 661.5234375 c 0
 370.560546875 670.0234375 358.802734375 674.2734375 345.202148438 674.2734375 c 0
 335.569335938 674.2734375 328.202148438 676.96484375 323.102539062 682.34765625 c 0
 319.571289062 686.075195312 317.806640625 691.36328125 317.806640625 698.213867188 c 0
 317.806640625 701.2578125 318.155273438 704.611328125 318.852539062 708.2734375 c 0
 320.552734375 715.639648438 323.102539062 721.731445312 326.501953125 726.548828125 c 0
 329.90234375 731.366210938 333.5859375 734.907226562 337.552734375 737.174804688 c 0
 341.51953125 739.44140625 345.202148438 741 348.602539062 741.849609375 c 0
 352.001953125 742.69921875 355.40234375 743.125 358.802734375 743.125 c 0
 376.935546875 743.125 393.935546875 738.44921875 409.802734375 729.099609375 c 0
 425.668945312 719.75 439.126953125 707.424804688 450.177734375 692.125 c 0
 461.227539062 676.82421875 470.435546875 659.966796875 477.802734375 641.549804688 c 0
 485.168945312 623.1328125 489.986328125 604.57421875 492.252929688 585.875 c 0
 493.985351562 571.248046875 494.8515625 555.28125 494.8515625 537.974609375 c 0
 494.8515625 504.323242188 491.577148438 465.607421875 485.028320312 421.82421875 c 0
 475.111328125 355.524414062 463.353515625 301.69140625 449.752929688 260.32421875 c 0
EndSplineSet
Validated: 524289
EndChar

StartChar: asterisk
Encoding: 42 42 21
Width: 550
VWidth: 901
GlyphClass: 2
Flags: HMW
HStem: 301.041 88.3991 312.092 65.45<402.482 439.882>
VStem: 274.131 73.1009 359.132 73.1
LayerCount: 2
Fore
SplineSet
270.732421875 170.142578125 m 0x70
 267.33203125 163.342773438 262.655273438 158.2421875 256.706054688 154.841796875 c 0
 250.755859375 151.442382812 244.6640625 149.458984375 238.430664062 148.892578125 c 0
 232.197265625 148.325195312 226.530273438 148.75 221.430664062 150.166992188 c 0
 216.331054688 151.583984375 212.081054688 153.42578125 208.680664062 155.693359375 c 0
 204.713867188 158.526367188 201.596679688 162.633789062 199.330078125 168.017578125 c 0
 197.0625 173.400390625 196.354492188 180.05859375 197.205078125 187.991210938 c 0
 198.0546875 195.924804688 201.596679688 204.141601562 207.830078125 212.641601562 c 2
 281.780273438 305.291015625 l 1
 237.580078125 302.458007812 205.280273438 301.041015625 184.879882812 301.041015625 c 0
 172.413085938 301.041015625 163.629882812 305.57421875 158.530273438 314.641601562 c 0
 154.999023438 320.91796875 153.234375 327.466796875 153.234375 334.287109375 c 0
 153.234375 337.318359375 153.583007812 340.403320312 154.280273438 343.541015625 c 0
 154.846679688 348.641601562 156.405273438 353.883789062 158.955078125 359.266601562 c 0
 161.504882812 364.649414062 164.762695312 369.749023438 168.729492188 374.56640625 c 0
 172.697265625 379.383789062 177.796875 383.208007812 184.030273438 386.041015625 c 0
 190.262695312 388.874023438 196.49609375 390.0078125 202.729492188 389.440429688 c 0xb0
 226.529296875 387.173828125 261.662109375 384.340820312 308.12890625 380.940429688 c 1
 295.095703125 422.307617188 283.762695312 454.041015625 274.129882812 476.140625 c 0
 271.86328125 482.657226562 270.729492188 489.103515625 270.729492188 495.478515625 c 0
 270.729492188 501.853515625 271.86328125 508.15625 274.129882812 514.390625 c 0
 278.663085938 526.857421875 285.462890625 535.07421875 294.530273438 539.041015625 c 0
 300.197265625 542.44140625 306.572265625 544.283203125 313.655273438 544.56640625 c 0
 320.73828125 544.849609375 327.538085938 542.724609375 334.0546875 538.19140625 c 0
 340.572265625 533.658203125 344.963867188 526.858398438 347.23046875 517.791015625 c 0
 350.063476562 504.19140625 357.997070312 471.608398438 371.030273438 420.041015625 c 1
 401.0625 458.57421875 424.295898438 490.874023438 440.729492188 516.94140625 c 0
 446.395507812 526.008789062 453.337890625 532.80859375 461.5546875 537.341796875 c 0
 469.771484375 541.874023438 477.138671875 543.999023438 483.655273438 543.716796875 c 0
 490.172851562 543.43359375 495.415039062 541.30859375 499.381835938 537.341796875 c 0
 503.915039062 534.508789062 507.172851562 529.975585938 509.155273438 523.7421875 c 0
 511.138671875 517.508789062 511.138671875 510.142578125 509.155273438 501.642578125 c 0
 507.172851562 493.142578125 502.780273438 484.924804688 495.98046875 476.9921875 c 0
 472.748046875 450.359375 446.397460938 417.208984375 416.930664062 377.541992188 c 1
 462.831054688 377.541992188 496.263671875 380.659179688 517.23046875 386.892578125 c 0
 521.197265625 388.154296875 524.86328125 388.78515625 528.227539062 388.78515625 c 0
 535.436523438 388.78515625 541.262695312 385.887695312 545.706054688 380.091796875 c 0
 550.875 373.3515625 553.458984375 366.252929688 553.458984375 358.798828125 c 0
 553.458984375 356.854492188 553.283203125 354.884765625 552.931640625 352.892578125 c 0
 551.798828125 347.791992188 550.098632812 342.692382812 547.831054688 337.591796875 c 0
 545.564453125 332.4921875 542.58984375 327.392578125 538.90625 322.291992188 c 0
 535.223632812 317.192382812 530.548828125 313.225585938 524.881835938 310.392578125 c 0
 519.21484375 307.559570312 513.547851562 306.9921875 507.880859375 308.692382812 c 0
 495.130859375 311.2421875 472.1796875 312.517578125 439.029296875 312.517578125 c 0
 427.979492188 312.517578125 415.796875 312.375 402.48046875 312.091796875 c 1
 433.081054688 213.4921875 l 2
 434.368164062 207.568359375 435.012695312 201.965820312 435.012695312 196.685546875 c 0
 435.012695312 190.348632812 434.084960938 184.475585938 432.23046875 179.067382812 c 0
 428.831054688 169.150390625 423.1640625 161.924804688 415.23046875 157.392578125 c 0
 409.563476562 153.9921875 402.48046875 152.008789062 393.98046875 151.442382812 c 0
 385.48046875 150.875 377.688476562 152.575195312 370.60546875 156.541992188 c 0
 363.522460938 160.508789062 359.697265625 167.026367188 359.130859375 176.092773438 c 0
 357.998046875 198.759765625 351.764648438 231.342773438 340.431640625 273.842773438 c 1
 303.598632812 221.709960938 280.365234375 187.142578125 270.732421875 170.142578125 c 0x70
EndSplineSet
Validated: 524289
EndChar

StartChar: plus
Encoding: 43 43 22
Width: 550
VWidth: 910
GlyphClass: 2
Flags: HMW
HStem: 363.456 71.4009<317.414 339.797>
LayerCount: 2
Fore
SplineSet
366.147460938 272.506835938 m 0
 363.314453125 259.474609375 358.497070312 250.263671875 351.697265625 244.880859375 c 0
 344.896484375 239.498046875 336.963867188 236.805664062 327.896484375 236.805664062 c 0
 309.579101562 236.805664062 300.418945312 244.203125 300.418945312 258.999023438 c 0
 300.418945312 262.96875 301.079101562 267.471679688 302.396484375 272.505859375 c 2
 322.796875 363.456054688 l 1
 312.030273438 363.456054688 297.721679688 363.313476562 279.872070312 363.030273438 c 0
 262.021484375 362.748046875 249.98046875 362.60546875 243.747070312 362.60546875 c 0
 230.713867188 362.60546875 221.7890625 366.147460938 216.971679688 373.23046875 c 0
 213.696289062 378.046875 212.05859375 383.583984375 212.05859375 389.841796875 c 0
 212.05859375 392.787109375 212.421875 395.891601562 213.146484375 399.155273438 c 0
 214.846679688 409.922851562 219.6640625 418.989257812 227.596679688 426.356445312 c 0
 234.962890625 433.197265625 244.772460938 436.6171875 257.024414062 436.6171875 c 0
 257.967773438 436.6171875 258.924804688 436.596679688 259.896484375 436.556640625 c 0
 296.73046875 435.423828125 323.36328125 434.856445312 339.795898438 434.856445312 c 1
 346.595703125 463.189453125 352.829101562 493.7890625 358.49609375 526.65625 c 0
 363.029296875 551.0234375 377.196289062 563.206054688 400.99609375 563.206054688 c 0
 411.762695312 563.7734375 419.98046875 561.506835938 425.646484375 556.40625 c 0
 428.98046875 553.40625 430.647460938 548.837890625 430.647460938 542.701171875 c 0
 430.647460938 538.404296875 429.830078125 533.33984375 428.197265625 527.506835938 c 0
 418.563476562 494.639648438 410.346679688 463.189453125 403.546875 433.15625 c 1
 490.247070312 433.15625 l 2
 502.713867188 433.15625 510.646484375 430.323242188 514.046875 424.65625 c 0
 517.447265625 418.989257812 518.580078125 411.33984375 517.447265625 401.706054688 c 0
 516.313476562 396.606445312 514.755859375 391.931640625 512.772460938 387.681640625 c 0
 510.790039062 383.431640625 508.09765625 379.323242188 504.698242188 375.356445312 c 0
 501.297851562 371.389648438 497.047851562 368.4140625 491.948242188 366.431640625 c 0
 486.84765625 364.448242188 481.180664062 363.740234375 474.948242188 364.307617188 c 0
 466.788085938 365.327148438 453.018554688 365.836914062 433.638671875 365.836914062 c 0
 420.71875 365.836914062 405.3046875 365.610351562 387.397460938 365.157226562 c 1
 383.998046875 349.857421875 379.889648438 331.724609375 375.073242188 310.756835938 c 0
 370.255859375 289.790039062 367.28125 277.040039062 366.147460938 272.506835938 c 0
EndSplineSet
Validated: 524289
EndChar

StartChar: comma
Encoding: 44 44 23
Width: 550
VWidth: 845
GlyphClass: 2
Flags: HMW
VStem: 157.802 216.749
LayerCount: 2
Fore
SplineSet
373.276367188 76.6943359375 m 0
 361.376953125 48.927734375 340.127929688 6.1435546875 309.528320312 -51.65625 c 0
 278.927734375 -109.456054688 257.395507812 -145.15625 244.927734375 -158.755859375 c 0
 233.594726562 -170.65625 220.844726562 -179.15625 206.677734375 -184.255859375 c 0
 198.177734375 -187.315429688 190.901367188 -188.846679688 184.849609375 -188.846679688 c 0
 180.814453125 -188.846679688 177.32421875 -188.166015625 174.376953125 -186.805664062 c 0
 169.27734375 -185.106445312 165.02734375 -181.706054688 161.626953125 -176.606445312 c 0
 158.227539062 -171.505859375 156.952148438 -165.2734375 157.802734375 -157.90625 c 0
 158.65234375 -150.5390625 162.477539062 -142.888671875 169.27734375 -134.956054688 c 0
 184.010742188 -117.956054688 207.668945312 -80.5556640625 240.251953125 -22.755859375 c 0
 272.834960938 35.0439453125 293.942382812 75.27734375 303.576171875 97.9443359375 c 0
 306.975585938 105.876953125 312.217773438 112.110351562 319.30078125 116.643554688 c 0
 326.383789062 121.17578125 333.18359375 123.443359375 339.701171875 123.443359375 c 0
 346.217773438 123.443359375 352.309570312 122.875976562 357.9765625 121.743164062 c 0
 365.34375 118.91015625 370.868164062 113.52734375 374.551757812 105.59375 c 0
 376.202148438 102.038085938 377.02734375 98.1396484375 377.02734375 93.900390625 c 0
 377.02734375 88.6826171875 375.77734375 82.947265625 373.276367188 76.6943359375 c 0
EndSplineSet
Validated: 524289
EndChar

StartChar: hyphen
Encoding: 45 45 24
Width: 550
VWidth: 893
GlyphClass: 2
Flags: HMW
HStem: 249.75 73.95<247.2 252.018> 256.55 69.7<417.768 443.552>
VStem: 217.168 246.501
LayerCount: 2
Fore
SplineSet
258.817382812 323.700195312 m 0xa0
 288.850585938 323.700195312 324.694335938 324.125 366.34375 324.974609375 c 0
 407.994140625 325.825195312 431.65234375 326.25 437.319335938 326.25 c 0
 449.786132812 326.25 457.71875 323.275390625 461.119140625 317.325195312 c 0
 464.51953125 311.375 465.369140625 303.583007812 463.668945312 293.950195312 c 0
 458.001953125 269.016601562 443.834960938 256.549804688 421.16796875 256.549804688 c 0x60
 414.368164062 256.549804688 387.592773438 255.416992188 340.842773438 253.150390625 c 0
 294.092773438 250.8828125 261.368164062 249.75 242.66796875 249.75 c 0
 224.53515625 249.75 215.467773438 257.546875 215.467773438 273.141601562 c 0
 215.467773438 277.040039062 216.03515625 281.426757812 217.16796875 286.299804688 c 0
 221.701171875 311.233398438 235.583984375 323.700195312 258.817382812 323.700195312 c 0xa0
EndSplineSet
Validated: 524289
EndChar

StartChar: period
Encoding: 46 46 25
Width: 550
VWidth: 859
GlyphClass: 2
Flags: HMW
HStem: -2.48889 130.898
VStem: 225.299 128.35
LayerCount: 2
Fore
SplineSet
275.450195312 -2.4892578125 m 0
 272.665039062 -2.806640625 269.986328125 -2.9658203125 267.415039062 -2.9658203125 c 0
 251.666015625 -2.9658203125 239.895507812 2.9990234375 232.1015625 14.9326171875 c 0
 226.057617188 24.1884765625 223.03515625 34.515625 223.03515625 45.9111328125 c 0
 223.03515625 51.609375 223.790039062 57.5751953125 225.30078125 63.8076171875 c 0
 229.267578125 81.375 239.467773438 96.3916015625 255.901367188 108.858398438 c 0
 272.333984375 121.325195312 289.05078125 127.842773438 306.05078125 128.409179688 c 0
 306.8828125 128.434570312 307.704101562 128.447265625 308.516601562 128.447265625 c 0
 325.962890625 128.447265625 338.8828125 122.625976562 347.276367188 110.985351562 c 0
 353.069335938 102.94921875 355.965820312 93.49609375 355.965820312 82.625 c 0
 355.965820312 77.0146484375 355.194335938 71.0263671875 353.651367188 64.66015625 c 0
 349.68359375 46.52734375 340.6171875 31.369140625 326.450195312 19.1865234375 c 0
 312.283203125 7.0029296875 295.283203125 -0.2216796875 275.450195312 -2.4892578125 c 0
EndSplineSet
Validated: 524289
EndChar

StartChar: slash
Encoding: 47 47 26
Width: 550
VWidth: 901
GlyphClass: 2
Flags: HMW
VStem: 84.0488 80.75
LayerCount: 2
Fore
SplineSet
608.498046875 626.501953125 m 0
 588.098632812 597.6015625 533.274414062 526.625 444.024414062 413.575195312 c 0
 354.774414062 300.525390625 300.233398438 230.400390625 280.399414062 203.200195312 c 0
 267.932617188 185.633789062 247.390625 155.883789062 218.774414062 113.950195312 c 0
 190.157226562 72.017578125 172.165039062 46.517578125 164.797851562 37.4501953125 c 0
 152.8984375 21.5830078125 139.723632812 10.533203125 125.2734375 4.2998046875 c 0
 118.047851562 1.1845703125 111.567382812 -0.375 105.829101562 -0.375 c 0
 100.091796875 -0.375 95.0986328125 1.1845703125 90.8486328125 4.2998046875 c 0
 85.748046875 7.7001953125 83.1982421875 14.4462890625 83.1982421875 24.5400390625 c 0
 83.1982421875 27.904296875 83.4814453125 31.6416015625 84.0478515625 35.7490234375 c 0
 86.3154296875 52.1826171875 93.115234375 67.19921875 104.448242188 80.7998046875 c 0
 213.248046875 216.799804688 307.03125 337.782226562 385.797851562 443.749023438 c 0
 435.098632812 508.916015625 488.365234375 582.583007812 545.598632812 664.75 c 0
 551.831054688 673.817382812 559.198242188 680.758789062 567.698242188 685.576171875 c 0
 576.198242188 690.392578125 583.848632812 692.66015625 590.6484375 692.376953125 c 0
 597.448242188 692.09375 603.96484375 690.536132812 610.198242188 687.703125 c 0
 618.698242188 682.602539062 622.948242188 674.669921875 622.948242188 663.90234375 c 0
 622.948242188 653.135742188 618.130859375 640.668945312 608.498046875 626.501953125 c 0
EndSplineSet
Validated: 524289
EndChar

StartChar: zero
Encoding: 48 48 27
Width: 550
VWidth: 902
GlyphClass: 2
Flags: HMW
HStem: 31.65 71.3991<262.027 271.659> 593.499 68.8509<420.409 421.543>
LayerCount: 2
Fore
SplineSet
263.725585938 31.650390625 m 0
 239.358398438 31.650390625 217.684570312 36.4658203125 198.701171875 46.099609375 c 0
 179.71875 55.732421875 164.84375 69.048828125 154.076171875 86.048828125 c 0
 143.309570312 103.048828125 136.651367188 124.298828125 134.1015625 149.798828125 c 0
 133.481445312 156.001953125 133.170898438 162.354492188 133.170898438 168.859375 c 0
 133.170898438 189.095703125 136.173828125 210.79296875 142.176757812 233.94921875 c 0
 143.309570312 239.616210938 146.284179688 253.640625 151.1015625 276.024414062 c 0
 155.91796875 298.407226562 159.885742188 316.256835938 163.001953125 329.57421875 c 0
 166.119140625 342.890625 170.793945312 361.307617188 177.02734375 384.825195312 c 0
 183.260742188 408.341796875 189.209960938 428.599609375 194.876953125 445.599609375 c 0
 200.543945312 462.599609375 207.626953125 480.875 216.126953125 500.424804688 c 0
 224.626953125 519.974609375 233.126953125 537.1171875 241.626953125 551.849609375 c 0
 263.16015625 587.549804688 291.068359375 614.891601562 325.3515625 633.875 c 0
 359.634765625 652.858398438 398.592773438 662.349609375 442.225585938 662.349609375 c 0
 463.758789062 662.349609375 482.883789062 658.3828125 499.600585938 650.450195312 c 0
 516.317382812 642.516601562 530.484375 630.900390625 542.1015625 615.599609375 c 0
 553.71875 600.299804688 561.510742188 580.466796875 565.477539062 556.099609375 c 0
 567.328125 544.727539062 568.254882812 532.553710938 568.254882812 519.577148438 c 0
 568.254882812 504.749023438 567.044921875 488.874023438 564.627929688 471.950195312 c 0
 560.094726562 443.6171875 553.862304688 411.458984375 545.928710938 375.475585938 c 0
 537.99609375 339.493164062 528.645507812 303.225585938 517.87890625 266.67578125 c 0
 507.112304688 230.125976562 497.1953125 202.217773438 488.127929688 182.951171875 c 0
 479.061523438 163.68359375 469.994140625 146.68359375 460.927734375 131.951171875 c 0
 451.860351562 117.217773438 442.79296875 104.467773438 433.7265625 93.701171875 c 0
 424.659179688 82.93359375 414.884765625 73.8671875 404.401367188 66.5 c 0
 393.91796875 59.1328125 383.71875 53.1826171875 373.801757812 48.650390625 c 0
 363.884765625 44.1171875 352.834960938 40.5751953125 340.651367188 38.025390625 c 0
 328.46875 35.474609375 316.568359375 33.775390625 304.951171875 32.9248046875 c 0
 293.334960938 32.0751953125 279.592773438 31.650390625 263.725585938 31.650390625 c 0
222.076171875 247.548828125 m 0
 221.509765625 245.282226562 220.801757812 241.8828125 219.951171875 237.349609375 c 0
 219.1015625 232.817382812 218.393554688 229.700195312 217.826171875 228 c 1
 312.459960938 331.700195312 400.859375 438.233398438 483.026367188 547.599609375 c 1
 476.79296875 562.333007812 467.7265625 573.666015625 455.826171875 581.599609375 c 0
 443.926757812 589.532226562 429.759765625 593.499023438 413.326171875 593.499023438 c 0
 383.859375 593.499023438 358.926757812 584.715820312 338.526367188 567.149414062 c 0
 318.126953125 549.58203125 299.426757812 521.249023438 282.426757812 482.149414062 c 0
 275.626953125 467.982421875 269.251953125 451.407226562 263.301757812 432.423828125 c 0
 257.3515625 413.44140625 251.401367188 390.491210938 245.451171875 363.57421875 c 0
 239.501953125 336.657226562 235.534179688 317.673828125 233.551757812 306.624023438 c 0
 231.568359375 295.57421875 227.743164062 275.881835938 222.076171875 247.548828125 c 0
416.7265625 194.849609375 m 0
 420.126953125 201.650390625 426.643554688 220.349609375 436.276367188 250.94921875 c 0
 445.909179688 281.548828125 455.826171875 316.541015625 466.026367188 355.923828125 c 0
 476.2265625 395.307617188 484.159179688 433.131835938 489.826171875 469.399414062 c 1
 404.259765625 344.732421875 313.309570312 240.182617188 216.9765625 155.749023438 c 1
 223.209960938 120.616210938 244.176757812 103.048828125 279.876953125 103.048828125 c 0
 294.04296875 103.048828125 307.076171875 104.32421875 318.9765625 106.874023438 c 0
 330.876953125 109.423828125 342.634765625 113.95703125 354.251953125 120.474609375 c 0
 365.868164062 126.991210938 376.776367188 136.483398438 386.9765625 148.950195312 c 0
 397.176757812 161.416992188 407.09375 176.716796875 416.7265625 194.849609375 c 0
EndSplineSet
Validated: 524289
EndChar

StartChar: one
Encoding: 49 49 28
Width: 550
VWidth: 904
GlyphClass: 2
Flags: HMW
HStem: 46.4251 72.675 49.8251 75.65<139.908 140.473>
LayerCount: 2
Fore
SplineSet
486.9921875 86.375 m 0x80
 484.725585938 75.0419921875 479.764648438 65.5498046875 472.115234375 57.900390625 c 0
 464.46484375 50.25 452.70703125 46.4248046875 436.83984375 46.4248046875 c 0x80
 430.040039062 46.4248046875 383.290039062 46.9921875 296.58984375 48.125 c 0
 209.889648438 49.2578125 153.506835938 49.8251953125 127.439453125 49.8251953125 c 0
 115.540039062 49.8251953125 107.748046875 53.224609375 104.064453125 60.025390625 c 0
 101.78515625 64.234375 100.64453125 69.203125 100.64453125 74.9326171875 c 0
 100.64453125 78.458984375 101.076171875 82.2724609375 101.940429688 86.375 c 0
 104.208007812 97.7080078125 109.024414062 107.05859375 116.391601562 114.424804688 c 0
 123.758789062 121.791992188 133.67578125 125.474609375 146.142578125 125.474609375 c 0x40
 169.942382812 125.474609375 210.458984375 125.192382812 267.692382812 124.625 c 1
 272.791992188 147.291992188 276.759765625 165.424804688 279.592773438 179.025390625 c 0
 280.159179688 183.55859375 283.416992188 198.575195312 289.3671875 224.075195312 c 0
 295.317382812 249.575195312 299.708984375 267.9921875 302.541992188 279.325195312 c 0
 305.375 290.658203125 310.900390625 311.625 319.1171875 342.224609375 c 0
 327.333984375 372.825195312 333.284179688 395.6328125 336.967773438 410.650390625 c 0
 340.650390625 425.666992188 346.883789062 449.466796875 355.666992188 482.049804688 c 0
 364.44921875 514.6328125 371.107421875 538.575195312 375.640625 553.875 c 1
 328.607421875 518.7421875 295.174804688 497.775390625 275.341796875 490.974609375 c 0
 271.854492188 489.580078125 268.501953125 488.8828125 265.282226562 488.8828125 c 0
 258.040039062 488.8828125 251.475585938 492.4140625 245.591796875 499.474609375 c 0
 239.216796875 507.125 236.029296875 514.775390625 236.029296875 522.424804688 c 0
 236.029296875 524.974609375 236.383789062 527.525390625 237.091796875 530.075195312 c 0
 238.791992188 539.141601562 242.474609375 547.216796875 248.141601562 554.299804688 c 0
 253.80859375 561.3828125 262.30859375 568.608398438 273.641601562 575.974609375 c 0
 291.774414062 588.442382812 310.899414062 602.18359375 331.016601562 617.201171875 c 0
 351.133789062 632.217773438 365.866210938 643.125976562 375.216796875 649.92578125 c 0
 384.56640625 656.725585938 393.633789062 662.534179688 402.416992188 667.350585938 c 0
 411.19921875 672.16796875 418.708007812 674.576171875 424.940429688 674.576171875 c 0
 436.2734375 674.576171875 446.616210938 669.475585938 455.965820312 659.276367188 c 0
 463.876953125 650.64453125 467.833007812 643.231445312 467.833007812 637.03515625 c 0
 467.833007812 634.8046875 467.833007812 634.8046875 430.465820312 494.80078125 c 0
 409.215820312 415.18359375 397.173828125 368.576171875 394.340820312 354.975585938 c 0
 381.307617188 298.30859375 370.541015625 250.9921875 362.041015625 213.025390625 c 0
 356.940429688 192.05859375 350.708007812 161.458007812 343.340820312 121.224609375 c 1
 358.640625 121.224609375 374.6484375 120.942382812 391.366210938 120.375 c 0
 408.083007812 119.80859375 421.82421875 119.3828125 432.591796875 119.099609375 c 0
 443.358398438 118.817382812 450.725585938 118.674804688 454.692382812 118.674804688 c 0
 469.42578125 118.674804688 478.916992188 115.700195312 483.166992188 109.75 c 0
 487.416992188 103.799804688 488.692382812 96.0078125 486.9921875 86.375 c 0x80
EndSplineSet
Validated: 524289
EndChar

StartChar: two
Encoding: 50 50 29
Width: 550
VWidth: 902
GlyphClass: 2
Flags: HMW
HStem: 37.3452 71.4042 42.4493 75.65<431.133 462.159> 594.947 71.3991<417.817 428.869>
LayerCount: 2
Fore
SplineSet
442.185546875 42.44921875 m 0x60
 420.084960938 42.44921875 392.461914062 41.876953125 359.311523438 40.744140625 c 0
 326.162109375 39.611328125 296.6953125 38.478515625 270.912109375 37.3447265625 c 0
 245.12890625 36.2119140625 219.061523438 35.6455078125 192.711914062 35.6455078125 c 0
 166.361328125 35.6455078125 145.8203125 36.7783203125 131.086914062 39.044921875 c 0
 119.75390625 40.1787109375 113.095703125 47.828125 111.112304688 61.9951171875 c 0
 110.665039062 65.1943359375 110.44140625 68.7109375 110.44140625 72.5458984375 c 0
 110.44140625 85.6923828125 113.073242188 102.576171875 118.337890625 123.1953125 c 0
 124.004882812 147.5625 134.629882812 173.204101562 150.212890625 200.12109375 c 0
 165.795898438 227.038085938 186.053710938 252.821289062 210.986328125 277.470703125 c 0
 235.919921875 302.12109375 262.836914062 322.095703125 291.736328125 337.396484375 c 0
 356.336914062 371.396484375 398.26953125 395.196289062 417.537109375 408.795898438 c 0
 443.037109375 426.928710938 461.169921875 446.196289062 471.936523438 466.595703125 c 0
 477.603515625 478.49609375 482.420898438 493.229492188 486.387695312 510.795898438 c 0
 488.752929688 521.044921875 489.935546875 530.317382812 489.935546875 538.61328125 c 0
 489.935546875 554.16796875 485.77734375 566.287109375 477.462890625 574.971679688 c 0
 464.712890625 588.2890625 443.604492188 594.947265625 414.137695312 594.947265625 c 0
 393.737304688 594.947265625 372.487304688 588.146484375 350.387695312 574.546875 c 0
 328.288085938 560.947265625 310.154296875 545.9296875 295.987304688 529.497070312 c 0
 289.1875 522.129882812 283.379882812 516.322265625 278.5625 512.072265625 c 0
 273.74609375 507.822265625 268.928710938 505.4140625 264.111328125 504.846679688 c 0
 259.294921875 504.280273438 255.044921875 504.5625 251.361328125 505.696289062 c 0
 247.678710938 506.829101562 243.287109375 508.8125 238.186523438 511.645507812 c 0
 230.25390625 516.745117188 226.287109375 524.112304688 226.287109375 533.745117188 c 0
 226.287109375 543.377929688 231.38671875 555.844726562 241.586914062 571.145507812 c 0
 249.51953125 581.912109375 259.861328125 592.678710938 272.611328125 603.446289062 c 0
 285.361328125 614.212890625 299.811523438 624.413085938 315.961914062 634.045898438 c 0
 332.111328125 643.678710938 350.103515625 651.470703125 369.936523438 657.420898438 c 0
 389.76953125 663.37109375 408.752929688 666.345703125 426.885742188 666.345703125 c 0
 484.119140625 666.345703125 524.2109375 652.178710938 547.161132812 623.845703125 c 0
 561.798828125 605.775390625 569.116210938 581.942382812 569.116210938 552.345703125 c 0
 569.116210938 535.537109375 566.756835938 516.87109375 562.036132812 496.345703125 c 0
 551.268554688 449.3125 531.435546875 411.629882812 502.536132812 383.296875 c 0
 481.002929688 362.330078125 446.153320312 339.096679688 397.986328125 313.596679688 c 0
 386.0859375 306.796875 365.403320312 296.313476562 335.935546875 282.146484375 c 0
 310.435546875 269.114257812 287.911132812 253.10546875 268.361328125 234.123046875 c 0
 248.810546875 215.139648438 233.369140625 195.731445312 222.036132812 175.8984375 c 0
 210.703125 156.065429688 201.635742188 134.532226562 194.8359375 111.299804688 c 1
 223.736328125 109.599609375 251.786132812 108.749023438 278.986328125 108.749023438 c 0xa0
 306.185546875 108.749023438 327.578125 109.174804688 343.161132812 110.024414062 c 0
 358.744140625 110.874023438 376.736328125 112.149414062 397.135742188 113.849609375 c 2
 437.935546875 117.249023438 l 2
 438.502929688 117.249023438 441.052734375 117.391601562 445.5859375 117.674804688 c 0
 450.119140625 117.95703125 453.09375 118.099609375 454.510742188 118.099609375 c 2
 462.161132812 118.099609375 l 2
 465.84375 118.099609375 468.536132812 117.532226562 470.236328125 116.399414062 c 0
 471.935546875 115.266601562 473.778320312 113.849609375 475.760742188 112.149414062 c 0
 477.744140625 110.44921875 479.161132812 108.182617188 480.010742188 105.349609375 c 0
 480.861328125 102.516601562 481.002929688 99.1162109375 480.435546875 95.1494140625 c 0
 479.869140625 88.349609375 478.02734375 81.1240234375 474.91015625 73.474609375 c 0
 471.79296875 65.82421875 467.259765625 58.7412109375 461.310546875 52.224609375 c 0
 455.360351562 45.70703125 448.985351562 42.44921875 442.185546875 42.44921875 c 0x60
EndSplineSet
Validated: 524289
EndChar

StartChar: three
Encoding: 51 51 30
Width: 550
VWidth: 902
GlyphClass: 2
Flags: HMW
HStem: 31.9557 71.4<281.163 301.28> 322.656 85<305.813 311.48> 594.656 71.3983<399.598 412.346>
VStem: 426.372 85
LayerCount: 2
Fore
SplineSet
504.99609375 221.500976562 m 0
 491.962890625 163.133789062 464.762695312 116.956054688 423.395507812 82.9560546875 c 0
 382.028320312 48.9560546875 331.311523438 31.9560546875 271.245117188 31.9560546875 c 0
 252.544921875 31.9560546875 234.836914062 34.9306640625 218.120117188 40.880859375 c 0
 201.403320312 46.8310546875 187.094726562 54.48046875 175.1953125 63.8310546875 c 0
 163.294921875 73.1806640625 153.377929688 83.380859375 145.4453125 94.4306640625 c 0
 137.51171875 105.48046875 132.412109375 116.388671875 130.14453125 127.155273438 c 0
 129.01171875 132.368164062 128.4453125 137.401367188 128.4453125 142.251953125 c 0
 128.4453125 149.528320312 129.719726562 156.395507812 132.26953125 162.85546875 c 0
 136.51953125 173.623046875 143.461914062 181.272460938 153.094726562 185.805664062 c 0
 161.301757812 189.713867188 168.631835938 191.66796875 175.086914062 191.66796875 c 0
 177.9921875 191.66796875 180.719726562 191.271484375 183.26953125 190.48046875 c 0
 191.487304688 187.930664062 198.428710938 180.706054688 204.095703125 168.805664062 c 0
 212.028320312 151.805664062 223.362304688 136.647460938 238.094726562 123.331054688 c 0
 252.828125 110.013671875 270.677734375 103.35546875 291.64453125 103.35546875 c 0
 322.811523438 103.35546875 350.862304688 112.989257812 375.794921875 132.255859375 c 0
 400.727539062 151.522460938 416.594726562 176.456054688 423.39453125 207.055664062 c 0
 426.0390625 219.5234375 427.362304688 230.857421875 427.362304688 241.05859375 c 0
 427.362304688 246.157226562 427.03125 250.97265625 426.37109375 255.505859375 c 0
 424.387695312 269.10546875 418.862304688 281.005859375 409.795898438 291.206054688 c 0
 400.728515625 301.405273438 386.704101562 309.197265625 367.720703125 314.581054688 c 0
 348.737304688 319.963867188 325.362304688 322.655273438 297.595703125 322.655273438 c 0
 286.829101562 322.655273438 278.612304688 327.331054688 272.9453125 336.680664062 c 0
 269.166015625 342.915039062 267.278320312 349.588867188 267.278320312 356.704101562 c 0
 267.278320312 360.26171875 267.749023438 363.927734375 268.694335938 367.706054688 c 0
 271.52734375 379.60546875 276.626953125 389.239257812 283.994140625 396.60546875 c 0
 291.361328125 403.97265625 300.427734375 407.655273438 311.1953125 407.655273438 c 0
 355.39453125 407.655273438 392.370117188 417.147460938 422.120117188 436.130859375 c 0
 451.870117188 455.114257812 470.427734375 482.739257812 477.794921875 519.005859375 c 0
 479.970703125 527.165039062 481.05859375 534.658203125 481.05859375 541.483398438 c 0
 481.05859375 555.987304688 476.145507812 567.478515625 466.3203125 575.956054688 c 0
 451.870117188 588.422851562 428.495117188 594.655273438 396.1953125 594.655273438 c 0
 389.961914062 594.655273438 383.870117188 593.947265625 377.919921875 592.530273438 c 0
 371.969726562 591.114257812 366.870117188 589.697265625 362.620117188 588.280273438 c 0
 358.370117188 586.86328125 353.6953125 584.455078125 348.594726562 581.0546875 c 0
 343.495117188 577.655273438 339.38671875 574.822265625 336.26953125 572.5546875 c 0
 333.153320312 570.288085938 329.044921875 566.604492188 323.9453125 561.504882812 c 2
 313.3203125 550.879882812 l 2
 311.336914062 548.896484375 307.794921875 544.7890625 302.6953125 538.555664062 c 0
 291.362304688 526.088867188 281.01953125 518.721679688 271.669921875 516.455078125 c 0
 268.999023438 515.807617188 266.361328125 515.483398438 263.758789062 515.483398438 c 0
 257.25390625 515.483398438 250.965820312 517.5078125 244.89453125 521.5546875 c 0
 237.490234375 525.786132812 233.7890625 532.607421875 233.7890625 542.021484375 c 0
 233.7890625 552.278320312 238.07421875 565.08203125 248.296875 581.053710938 c 0
 256.229492188 592.38671875 265.296875 602.729492188 275.49609375 612.079101562 c 0
 285.696289062 621.428710938 297.313476562 630.354492188 310.346679688 638.854492188 c 0
 323.379882812 647.354492188 338.396484375 654.01171875 355.396484375 658.829101562 c 0
 372.396484375 663.646484375 390.24609375 666.053710938 408.946289062 666.053710938 c 0
 469.580078125 666.053710938 512.080078125 652.454101562 536.446289062 625.25390625 c 0
 552.084960938 607.797851562 559.903320312 584.97265625 559.903320312 556.779296875 c 0
 559.903320312 541.043945312 557.46875 523.634765625 552.596679688 504.553710938 c 0
 549.196289062 488.12109375 543.955078125 473.24609375 536.87109375 459.928710938 c 0
 529.788085938 446.612304688 521.713867188 435.279296875 512.646484375 425.928710938 c 0
 503.580078125 416.579101562 493.237304688 408.362304688 481.62109375 401.279296875 c 0
 470.00390625 394.196289062 458.670898438 388.670898438 447.62109375 384.704101562 c 0
 436.5703125 380.737304688 424.8125 377.620117188 412.345703125 375.353515625 c 1
 432.74609375 370.252929688 449.74609375 364.020507812 463.345703125 356.653320312 c 0
 476.9453125 349.286132812 487.99609375 339.793945312 496.49609375 328.177734375 c 0
 504.99609375 316.560546875 509.954101562 301.96875 511.37109375 284.401367188 c 0
 511.653320312 280.887695312 511.795898438 277.23828125 511.795898438 273.452148438 c 0
 511.795898438 258.310546875 509.528320312 240.993164062 504.99609375 221.500976562 c 0
EndSplineSet
Validated: 524289
EndChar

StartChar: four
Encoding: 52 52 31
Width: 550
VWidth: 902
GlyphClass: 2
Flags: HMW
HStem: 33.1263 17.85G<378.624 389.391> 243.076 67.9992
LayerCount: 2
Fore
SplineSet
430.190429688 99.4267578125 m 0
 429.624023438 81.2939453125 424.666992188 65.708984375 415.31640625 52.6767578125 c 0
 405.966796875 39.6435546875 395.341796875 33.1259765625 383.44140625 33.1259765625 c 0
 373.80859375 33.1259765625 365.30859375 37.234375 357.94140625 45.451171875 c 0
 351.556640625 52.572265625 348.364257812 59.80078125 348.364257812 67.134765625 c 0
 348.364257812 72.6455078125 353.360351562 93.4775390625 355.814453125 103.676757812 c 0
 359.498046875 118.9765625 364.740234375 140.934570312 371.540039062 169.551757812 c 0
 378.33984375 198.16796875 384.006835938 222.676757812 388.540039062 243.076171875 c 1
 377.274414062 243.209960938 366.401367188 243.276367188 355.919921875 243.276367188 c 0
 277.299804688 243.276367188 220.740234375 239.526367188 186.240234375 232.026367188 c 0
 177.740234375 230.326171875 170.231445312 230.609375 163.71484375 232.875976562 c 0
 157.198242188 235.143554688 152.665039062 239.110351562 150.115234375 244.77734375 c 0
 147.564453125 250.444335938 146.006835938 256.9609375 145.439453125 264.328125 c 0
 144.873046875 271.6953125 145.581054688 279.344726562 147.564453125 287.278320312 c 0
 149.546875 295.2109375 152.522460938 302.861328125 156.489257812 310.227539062 c 0
 165.555664062 326.094726562 185.814453125 352.01953125 217.263671875 388.002929688 c 0
 248.713867188 423.986328125 288.805664062 468.46875 337.5390625 521.452148438 c 0
 386.272460938 574.435546875 421.122070312 612.827148438 442.088867188 636.626953125 c 0
 451.721679688 647.39453125 461.497070312 655.46875 471.4140625 660.852539062 c 0
 481.331054688 666.235351562 489.97265625 668.926757812 497.33984375 668.926757812 c 0
 499.296875 669.1328125 501.203125 669.236328125 503.057617188 669.236328125 c 0
 511.403320312 669.236328125 518.705078125 667.150390625 524.96484375 662.977539062 c 0
 532.086914062 658.229492188 535.6484375 650.2890625 535.6484375 639.154296875 c 0
 535.6484375 634.905273438 534.69140625 611.056640625 521.990234375 544.827148438 c 0
 514.057617188 503.459960938 506.974609375 468.46875 500.741210938 439.8515625 c 0
 494.508789062 411.234375 485.158203125 368.026367188 472.69140625 310.2265625 c 1
 481.758789062 309.659179688 491.958007812 309.375976562 503.291992188 309.375976562 c 0
 515.758789062 309.375976562 523.69140625 306.401367188 527.091796875 300.451171875 c 0
 530.491210938 294.500976562 531.341796875 286.708984375 529.641601562 277.076171875 c 0
 523.974609375 252.143554688 509.807617188 239.676757812 487.140625 239.676757812 c 0
 476.374023438 239.676757812 466.740234375 239.958984375 458.240234375 240.526367188 c 1
 439.541015625 157.79296875 430.190429688 110.759765625 430.190429688 99.4267578125 c 0
456.541992188 564.375976562 m 1
 352.841796875 454.442382812 280.307617188 369.158203125 238.940429688 308.525390625 c 1
 268.89453125 310.548828125 305.498046875 311.561523438 348.752929688 311.561523438 c 0
 366.051757812 311.561523438 384.4140625 311.399414062 403.840820312 311.075195312 c 1
 428.208007812 417.041992188 445.774414062 501.475585938 456.541992188 564.375976562 c 1
EndSplineSet
Validated: 524289
EndChar

StartChar: five
Encoding: 53 53 32
Width: 550
VWidth: 902
GlyphClass: 2
Flags: HMW
HStem: 36.7489 71.3983<278.832 284.215> 409.047 75.6525<384.515 437.783> 578.2 75.6483<554.8 581.434> 587.55 67.9983
LayerCount: 2
Fore
SplineSet
532.1328125 303.649414062 m 0xd0
 522.499023438 261.716796875 508.896484375 223.890625 491.330078125 190.173828125 c 0
 473.762695312 156.45703125 453.504882812 128.407226562 430.5546875 106.024414062 c 0
 407.604492188 83.640625 382.387695312 66.4990234375 354.905273438 54.5986328125 c 0
 327.421875 42.69921875 298.947265625 36.7490234375 269.479492188 36.7490234375 c 0
 246.247070312 36.7490234375 225.421875 39.298828125 207.004882812 44.3994140625 c 0
 188.587890625 49.4990234375 173.854492188 56.58203125 162.8046875 65.6494140625 c 0
 151.754882812 74.7158203125 142.971679688 84.2080078125 136.455078125 94.125 c 0
 129.9375 104.041992188 124.979492188 114.383789062 121.580078125 125.150390625 c 0
 120.447265625 131.270507812 119.879882812 136.9375 119.879882812 142.150390625 c 0
 119.879882812 149.970703125 121.155273438 156.770507812 123.705078125 162.55078125 c 0
 127.955078125 172.18359375 135.462890625 179.55078125 146.229492188 184.650390625 c 0
 153.030273438 187.483398438 158.271484375 189.466796875 161.955078125 190.599609375 c 0
 165.637695312 191.732421875 169.887695312 192.015625 174.705078125 191.44921875 c 0
 179.521484375 190.881835938 183.489257812 188.615234375 186.60546875 184.6484375 c 0
 189.72265625 180.681640625 192.697265625 175.014648438 195.530273438 167.647460938 c 0
 210.263671875 128.546875 238.030273438 108.713867188 278.831054688 108.147460938 c 0
 318.498046875 108.147460938 353.772460938 125.004882812 384.655273438 158.72265625 c 0
 415.5390625 192.439453125 437.497070312 237.630859375 450.530273438 294.297851562 c 0
 454.112304688 310.1640625 455.904296875 324.557617188 455.904296875 337.477539062 c 0
 455.904296875 353.165039062 453.262695312 366.6796875 447.979492188 378.022460938 c 0
 438.346679688 398.705078125 418.513671875 409.046875 388.48046875 409.046875 c 0
 380.547851562 409.046875 372.755859375 408.622070312 365.10546875 407.772460938 c 0
 357.456054688 406.921875 350.938476562 405.7890625 345.555664062 404.372070312 c 0
 340.172851562 402.955078125 334.081054688 400.830078125 327.280273438 397.997070312 c 0
 320.48046875 395.1640625 315.380859375 392.897460938 311.98046875 391.197265625 c 0
 308.581054688 389.497070312 303.763671875 386.379882812 297.530273438 381.84765625 c 0
 291.297851562 377.314453125 287.189453125 374.197265625 285.20703125 372.497070312 c 0
 283.223632812 370.796875 278.973632812 367.254882812 272.45703125 361.872070312 c 0
 265.939453125 356.489257812 261.83203125 353.231445312 260.131835938 352.09765625 c 0
 255.03125 348.130859375 249.223632812 344.731445312 242.70703125 341.8984375 c 0
 236.189453125 339.065429688 229.106445312 337.22265625 221.45703125 336.373046875 c 0
 213.806640625 335.5234375 206.864257812 336.797851562 200.631835938 340.198242188 c 0
 192.698242188 344.165039062 188.0234375 352.948242188 186.606445312 366.547851562 c 0
 186.233398438 370.126953125 186.046875 373.922851562 186.046875 377.93359375 c 0
 186.046875 389.163085938 187.508789062 402.084960938 190.431640625 416.698242188 c 0
 194.3984375 436.53125 198.931640625 455.65625 204.03125 474.073242188 c 0
 209.131835938 492.490234375 214.798828125 512.323242188 221.03125 533.573242188 c 0
 227.264648438 554.823242188 231.231445312 569.415039062 232.931640625 577.34765625 c 1
 230.098632812 584.71484375 229.248046875 593.073242188 230.381835938 602.422851562 c 0
 231.514648438 611.7734375 234.064453125 620.415039062 238.03125 628.34765625 c 0
 241.998046875 636.28125 247.240234375 643.081054688 253.7578125 648.748046875 c 0
 260.274414062 654.415039062 267.215820312 657.248046875 274.583007812 657.248046875 c 0
 294.416015625 657.248046875 340.458007812 656.681640625 412.708007812 655.547851562 c 0xd0
 484.958007812 654.415039062 540.06640625 653.84765625 578.033203125 653.84765625 c 0
 584.833007812 653.84765625 589.650390625 650.731445312 592.483398438 644.498046875 c 0
 595.31640625 638.264648438 596.44921875 631.181640625 595.8828125 623.249023438 c 0
 595.315429688 615.315429688 593.8984375 607.94921875 591.631835938 601.149414062 c 0
 590.498046875 597.181640625 588.940429688 593.782226562 586.95703125 590.94921875 c 0
 584.974609375 588.116210938 582.56640625 585.991210938 579.733398438 584.57421875 c 0
 576.900390625 583.157226562 574.4921875 581.881835938 572.508789062 580.749023438 c 0
 570.526367188 579.616210938 567.55078125 578.908203125 563.583984375 578.625 c 0
 559.6171875 578.341796875 556.924804688 578.200195312 555.5078125 578.200195312 c 0xe0
 554.090820312 578.200195312 551.116210938 578.482421875 546.583007812 579.049804688 c 0
 542.049804688 579.6171875 539.5 579.899414062 538.93359375 579.899414062 c 0
 531.56640625 579.899414062 518.674804688 580.75 500.2578125 582.450195312 c 0
 481.840820312 584.149414062 465.265625 585.424804688 450.532226562 586.274414062 c 0
 435.799804688 587.125 415.2578125 587.549804688 388.907226562 587.549804688 c 0
 362.557617188 587.549804688 334.932617188 586.700195312 306.032226562 585 c 1
 304.33203125 579.333007812 299.940429688 562.899414062 292.857421875 535.700195312 c 0
 285.774414062 508.5 280.674804688 488.807617188 277.557617188 476.625 c 0
 274.440429688 464.44140625 270.615234375 447.016601562 266.08203125 424.349609375 c 1
 284.782226562 441.916992188 308.015625 456.3671875 335.782226562 467.700195312 c 0
 363.549804688 479.033203125 393.58203125 484.700195312 425.8828125 484.700195312 c 0
 449.682617188 484.700195312 469.799804688 480.024414062 486.232421875 470.674804688 c 0
 502.665039062 461.325195312 515.1328125 448.432617188 523.6328125 432 c 0
 532.1328125 415.56640625 537.090820312 396.44140625 538.5078125 374.625 c 0
 538.790039062 370.260742188 538.932617188 365.823242188 538.932617188 361.311523438 c 0
 538.932617188 343.26953125 536.665039062 324.048828125 532.1328125 303.649414062 c 0xd0
EndSplineSet
Validated: 524289
EndChar

StartChar: six
Encoding: 54 54 33
Width: 550
VWidth: 903
GlyphClass: 2
Flags: HMW
HStem: 34.9564 71.4042<291.742 294.86> 387.707 74.7967<361.16 424.91> 612.104 68.0017
VStem: 140.727 70.5475 453.101 80.75
LayerCount: 2
Fore
SplineSet
524.076171875 262.75390625 m 0
 516.708984375 231.020507812 504.80859375 201.131835938 488.375 173.081054688 c 0
 471.942382812 145.03125 453.100585938 120.948242188 431.850585938 100.831054688 c 0
 410.600585938 80.71484375 386.80078125 64.7060546875 360.450195312 52.806640625 c 0
 334.100585938 40.90625 307.892578125 34.9560546875 281.825195312 34.9560546875 c 0
 249.525390625 34.9560546875 222.75 41.6142578125 201.5 54.931640625 c 0
 180.25 68.248046875 164.666992188 87.515625 154.75 112.732421875 c 0
 145.369140625 136.584960938 140.6796875 164.875 140.6796875 197.6015625 c 0
 140.6796875 199.471679688 140.694335938 201.357421875 140.725585938 203.256835938 c 0
 141.291992188 238.390625 146.958984375 277.7734375 157.7265625 321.40625 c 0
 169.625976562 370.139648438 184.359375 414.056640625 201.92578125 453.15625 c 0
 219.493164062 492.256835938 238.901367188 525.123046875 260.151367188 551.756835938 c 0
 281.401367188 578.389648438 305.059570312 600.9140625 331.125976562 619.331054688 c 0
 357.193359375 637.748046875 384.110351562 651.7734375 411.876953125 661.40625 c 0
 439.643554688 671.0390625 469.676757812 677.272460938 501.9765625 680.10546875 c 0
 504.350585938 680.321289062 506.637695312 680.4296875 508.836914062 680.4296875 c 0
 518.1875 680.4296875 525.958984375 678.479492188 532.15234375 674.580078125 c 0
 539.274414062 670.094726562 542.8359375 663.03125 542.8359375 653.389648438 c 0
 542.8359375 649.91015625 542.8359375 641.828125 528.326171875 628.678710938 c 0
 519.258789062 620.461914062 510.192382812 614.936523438 501.125 612.103515625 c 0
 494.892578125 610.404296875 485.400390625 608.13671875 472.650390625 605.303710938 c 0
 459.900390625 602.470703125 449.133789062 599.779296875 440.350585938 597.228515625 c 0
 431.567382812 594.678710938 420.80078125 590.853515625 408.05078125 585.75390625 c 0
 395.30078125 580.654296875 382.125 573.287109375 368.525390625 563.654296875 c 0
 354.92578125 554.020507812 341.041992188 542.404296875 326.875 528.803710938 c 0
 312.142578125 514.071289062 296.984375 493.954101562 281.401367188 468.454101562 c 0
 265.818359375 442.954101562 254.342773438 420.287109375 246.9765625 400.454101562 c 1
 268.508789062 421.420898438 293.442382812 437.00390625 321.775390625 447.204101562 c 0
 350.108398438 457.404296875 380.42578125 462.50390625 412.725585938 462.50390625 c 0
 437.091796875 462.50390625 457.916992188 458.821289062 475.200195312 451.454101562 c 0
 492.483398438 444.086914062 506.225585938 432.469726562 516.42578125 416.603515625 c 0
 526.625 400.736328125 532.43359375 379.911132812 533.850585938 354.127929688 c 0
 534.065429688 350.220703125 534.172851562 346.206054688 534.172851562 342.084960938 c 0
 534.172851562 319.005859375 530.807617188 292.5625 524.076171875 262.75390625 c 0
212.975585938 249.15625 m 0
 211.69921875 239.801757812 211.060546875 230.368164062 211.060546875 220.85546875 c 0
 211.060546875 217.690429688 211.131835938 214.517578125 211.272460938 211.334960938 c 0
 211.83984375 198.584960938 214.106445312 185.692382812 218.073242188 172.66015625 c 0
 222.041015625 159.626953125 227.282226562 148.293945312 233.799804688 138.66015625 c 0
 240.31640625 129.02734375 249.241210938 121.235351562 260.57421875 115.28515625 c 0
 271.907226562 109.3359375 284.657226562 106.360351562 298.82421875 106.360351562 c 0
 318.091796875 106.360351562 338.208007812 113.727539062 359.17578125 128.4609375 c 0
 380.142578125 143.193359375 398.275390625 161.751953125 413.575195312 184.134765625 c 0
 428.875 206.517578125 439.075195312 229.326171875 444.17578125 252.55859375 c 0
 450.137695312 278.03515625 453.118164062 299.623046875 453.118164062 317.3203125 c 0
 453.118164062 336.740234375 449.529296875 351.365234375 442.475585938 361.357421875 c 0
 435.67578125 370.990234375 426.892578125 377.790039062 416.125 381.756835938 c 0
 405.358398438 385.724609375 391.475585938 387.70703125 374.475585938 387.70703125 c 0
 347.841796875 387.70703125 321.350585938 380.33984375 295 365.607421875 c 0
 268.650390625 350.874023438 245.55859375 332.173828125 225.725585938 309.506835938 c 1
 219.4921875 285.140625 215.2421875 265.0234375 212.975585938 249.15625 c 0
EndSplineSet
Validated: 524289
EndChar

StartChar: seven
Encoding: 55 55 34
Width: 550
VWidth: 901
GlyphClass: 2
Flags: HMW
HStem: 580.951 76.925
LayerCount: 2
Fore
SplineSet
208.661132812 73.9287109375 m 0
 199.028320312 59.1962890625 188.399414062 48.1435546875 176.782226562 40.7763671875 c 0
 167.8984375 35.142578125 159.595703125 32.326171875 151.873046875 32.326171875 c 0
 149.49609375 32.326171875 147.174804688 32.5927734375 144.907226562 33.1259765625 c 0
 134.140625 35.9599609375 127.765625 42.759765625 125.782226562 53.5263671875 c 0
 125.407226562 55.5634765625 125.219726562 57.6416015625 125.219726562 59.7587890625 c 0
 125.219726562 68.8359375 128.665039062 78.6591796875 135.557617188 89.2265625 c 0
 175.790039062 147.59375 218.0078125 205.676757812 262.20703125 263.4765625 c 0
 306.407226562 321.276367188 342.532226562 367.318359375 370.58203125 401.6015625 c 0
 398.6328125 435.884765625 424.982421875 469.176757812 449.6328125 501.4765625 c 0
 474.282226562 533.776367188 491.990234375 560.125976562 502.7578125 580.526367188 c 1
 478.029296875 581.454101562 452.290039062 581.91796875 425.538085938 581.91796875 c 0
 403.248046875 581.91796875 380.254882812 581.595703125 356.55859375 580.951171875 c 0
 304.424804688 579.534179688 269.858398438 576.559570312 252.858398438 572.026367188 c 0
 246.05859375 570.326171875 240.533203125 570.609375 236.283203125 572.875976562 c 0
 232.033203125 575.143554688 228.916015625 578.54296875 226.93359375 583.076171875 c 0
 224.950195312 587.609375 223.817382812 592.426757812 223.534179688 597.526367188 c 0
 223.250976562 602.625976562 223.392578125 607.7265625 223.959960938 612.826171875 c 0
 226.2265625 623.026367188 230.4765625 631.1015625 236.709960938 637.051757812 c 0
 242.943359375 643.000976562 252.860351562 647.393554688 266.459960938 650.2265625 c 0
 286.860351562 654.193359375 314.342773438 656.743164062 348.91015625 657.875976562 c 0
 366.193359375 658.443359375 382.768554688 658.7265625 398.634765625 658.7265625 c 0
 414.501953125 658.7265625 429.66015625 658.442382812 444.110351562 657.875976562 c 0
 473.009765625 656.743164062 501.202148438 655.610351562 528.684570312 654.477539062 c 0
 556.16796875 653.34375 571.04296875 652.77734375 573.309570312 652.77734375 c 0
 578.9765625 652.77734375 584.077148438 651.501953125 588.610351562 648.952148438 c 0
 593.142578125 646.40234375 597.110351562 642.293945312 600.509765625 636.626953125 c 0
 603.91015625 630.959960938 604.618164062 623.59375 602.634765625 614.526367188 c 0
 600.651367188 605.459960938 595.693359375 594.9765625 587.760742188 583.076171875 c 0
 576.427734375 566.076171875 557.161132812 540.434570312 529.9609375 506.151367188 c 0
 502.760742188 471.868164062 474.568359375 436.735351562 445.385742188 400.751953125 c 0
 416.203125 364.76953125 379.794921875 316.885742188 336.161132812 257.103515625 c 0
 292.528320312 197.3203125 250.028320312 136.26171875 208.661132812 73.9287109375 c 0
EndSplineSet
Validated: 524289
EndChar

StartChar: eight
Encoding: 56 56 35
Width: 550
VWidth: 901
GlyphClass: 2
Flags: HMW
HStem: 27.9576 73.0975<279.639 283.605> 600.854 61.2009<409.405 413.655>
VStem: 447.797 76.9258
LayerCount: 2
Fore
SplineSet
520.47265625 225.151367188 m 0
 516.505859375 207.017578125 510.129882812 188.888671875 501.346679688 170.755859375 c 0
 492.563476562 152.623046875 480.946289062 134.915039062 466.49609375 117.631835938 c 0
 452.046875 100.348632812 435.61328125 85.1904296875 417.196289062 72.1572265625 c 0
 398.779296875 59.125 376.821289062 48.5 351.321289062 40.2822265625 c 0
 325.821289062 32.0654296875 298.338867188 27.9580078125 268.87109375 27.9580078125 c 0
 242.23828125 27.9580078125 219.146484375 31.9248046875 199.596679688 39.857421875 c 0
 180.046875 47.791015625 165.029296875 57.8486328125 154.546875 70.0322265625 c 0
 144.063476562 82.21484375 136.130859375 96.806640625 130.747070312 113.806640625 c 0
 125.6328125 129.958007812 123.076171875 146.236328125 123.076171875 162.642578125 c 0
 123.076171875 172.08984375 123.780273438 192.338867188 129.47265625 218.35546875 c 0
 134.005859375 237.623046875 143.35546875 258.305664062 157.522460938 280.40625 c 0
 171.689453125 302.505859375 189.5390625 322.90625 211.072265625 341.60546875 c 0
 232.60546875 360.305664062 254.705078125 373.338867188 277.372070312 380.706054688 c 1
 252.439453125 394.873046875 234.872070312 413.430664062 224.672851562 436.380859375 c 0
 218.115234375 451.134765625 214.836914062 466.063476562 214.836914062 481.168945312 c 0
 214.836914062 489.559570312 215.848632812 498.005859375 217.872070312 506.505859375 c 0
 219.572265625 513.305664062 221.697265625 520.53125 224.247070312 528.180664062 c 0
 226.797851562 535.831054688 230.905273438 544.897460938 236.572265625 555.380859375 c 0
 242.239257812 565.864257812 248.614257812 575.921875 255.697265625 585.5546875 c 0
 262.780273438 595.188476562 271.705078125 604.6796875 282.47265625 614.030273438 c 0
 293.239257812 623.379882812 304.997070312 631.596679688 317.747070312 638.6796875 c 0
 330.497070312 645.762695312 345.655273438 651.4296875 363.22265625 655.6796875 c 0
 380.7890625 659.9296875 399.489257812 662.0546875 419.322265625 662.0546875 c 0
 439.72265625 662.0546875 457.713867188 659.9296875 473.297851562 655.6796875 c 0
 488.880859375 651.4296875 501.630859375 645.762695312 511.547851562 638.6796875 c 0
 521.463867188 631.596679688 529.5390625 623.379882812 535.772460938 614.030273438 c 0
 542.005859375 604.6796875 546.538085938 595.188476562 549.37109375 585.5546875 c 0
 552.205078125 575.921875 553.904296875 565.721679688 554.471679688 554.955078125 c 0
 554.698242188 550.6484375 554.811523438 546.546875 554.811523438 542.647460938 c 0
 554.811523438 536.798828125 554.556640625 531.41015625 554.046875 526.479492188 c 0
 553.196289062 518.262695312 551.921875 510.470703125 550.221679688 503.103515625 c 0
 548.521484375 496.303710938 546.11328125 489.50390625 542.99609375 482.703125 c 0
 539.879882812 475.903320312 536.479492188 469.953125 532.796875 464.853515625 c 0
 529.11328125 459.75390625 524.438476562 454.370117188 518.771484375 448.703125 c 0
 513.104492188 443.036132812 508.004882812 438.219726562 503.471679688 434.252929688 c 0
 498.938476562 430.286132812 493.130859375 425.752929688 486.047851562 420.65234375 c 0
 478.963867188 415.552734375 473.297851562 411.727539062 469.047851562 409.177734375 c 0
 464.797851562 406.627929688 459.130859375 403.0859375 452.047851562 398.552734375 c 0
 444.963867188 394.01953125 440.005859375 390.90234375 437.172851562 389.202148438 c 1
 454.740234375 380.135742188 469.615234375 369.935546875 481.797851562 358.602539062 c 0
 493.981445312 347.26953125 503.047851562 336.077148438 508.998046875 325.02734375 c 0
 514.948242188 313.977539062 519.198242188 302.219726562 521.748046875 289.752929688 c 0
 523.833984375 279.552734375 524.877929688 270.20703125 524.877929688 261.713867188 c 0
 524.877929688 259.826171875 524.826171875 257.98046875 524.723632812 256.176757812 c 0
 524.15625 246.259765625 522.739257812 235.91796875 520.47265625 225.151367188 c 0
292.671875 509.0546875 m 0
 291.482421875 504.151367188 290.888671875 499.392578125 290.888671875 494.78125 c 0
 290.888671875 481.807617188 295.591796875 469.991210938 304.998046875 459.330078125 c 0
 317.748046875 444.879882812 341.123046875 430.288085938 375.123046875 415.5546875 c 1
 399.490234375 425.188476562 422.015625 438.221679688 442.698242188 454.654296875 c 0
 463.380859375 471.086914062 475.139648438 486.387695312 477.97265625 500.5546875 c 0
 479.428710938 507.354492188 480.158203125 514.1015625 480.158203125 520.797851562 c 0
 480.158203125 529.725585938 478.86328125 538.561523438 476.272460938 547.3046875 c 0
 471.739257812 562.604492188 463.09765625 575.354492188 450.34765625 585.5546875 c 0
 437.59765625 595.75390625 422.439453125 600.854492188 404.872070312 600.854492188 c 0
 380.505859375 600.854492188 356.98828125 591.362304688 334.321289062 572.37890625 c 0
 311.654296875 553.396484375 297.771484375 532.288085938 292.671875 509.0546875 c 0
289.2734375 101.0546875 m 0
 304.573242188 101.0546875 320.439453125 103.458984375 336.872070312 108.276367188 c 0
 353.305664062 113.092773438 368.747070312 120.03515625 383.197265625 129.1015625 c 0
 397.647460938 138.168945312 410.397460938 150.068359375 421.447265625 164.801757812 c 0
 432.497070312 179.53515625 440.005859375 195.118164062 443.97265625 211.55078125 c 0
 445.4609375 217.502929688 447.83984375 228.759765625 447.83984375 239.978515625 c 0
 447.83984375 247.603515625 446.692382812 256.26171875 444.397460938 265.952148438 c 0
 441.84765625 276.719726562 437.455078125 286.63671875 431.22265625 295.703125 c 0
 424.989257812 304.770507812 415.639648438 314.262695312 403.172851562 324.1796875 c 0
 390.705078125 334.096679688 375.122070312 343.021484375 356.422851562 350.954101562 c 1
 315.622070312 340.1875 280.489257812 321.487304688 251.022460938 294.854492188 c 0
 221.555664062 268.221679688 203.138671875 239.887695312 195.771484375 209.85546875 c 0
 193.818359375 201.825195312 192.841796875 194.0859375 192.841796875 186.637695312 c 0
 192.841796875 174.638671875 195.375976562 163.393554688 200.446289062 152.905273438 c 0
 208.663085938 135.905273438 220.705078125 123.012695312 236.572265625 114.23046875 c 0
 252.439453125 105.447265625 270.005859375 101.0546875 289.2734375 101.0546875 c 0
EndSplineSet
Validated: 524289
EndChar

StartChar: nine
Encoding: 57 57 36
Width: 550
VWidth: 903
GlyphClass: 2
Flags: HMW
HStem: 35.0464 67.9967<190.733 190.733> 253.495 75.65<298.117 358.75> 610.492 71.4042<416.55 419.665>
LayerCount: 2
Fore
SplineSet
190.733398438 35.046875 m 0
 188.356445312 34.8310546875 186.0625 34.72265625 183.850585938 34.72265625 c 0
 174.458984375 34.72265625 166.551757812 36.6689453125 160.130859375 40.568359375 c 0
 153.188476562 44.783203125 149.717773438 51.2763671875 149.717773438 60.046875 c 0
 149.717773438 66.0302734375 150.397460938 74.658203125 164.381835938 86.8935546875 c 0
 173.448242188 94.8271484375 182.515625 100.209960938 191.58203125 103.04296875 c 0
 197.815429688 104.743164062 207.732421875 107.009765625 221.33203125 109.842773438 c 0
 234.932617188 112.67578125 247.2578125 115.651367188 258.307617188 118.768554688 c 0
 269.357421875 121.884765625 281.965820312 125.993164062 296.1328125 131.092773438 c 0
 310.298828125 136.193359375 324.32421875 143.276367188 338.20703125 152.342773438 c 0
 352.090820312 161.41015625 365.83203125 172.176757812 379.432617188 184.643554688 c 0
 396.432617188 201.077148438 412.58203125 220.202148438 427.8828125 242.018554688 c 0
 443.182617188 263.8359375 454.515625 283.528320312 461.8828125 301.094726562 c 1
 443.182617188 282.961914062 421.649414062 270.495117188 397.282226562 263.694335938 c 0
 372.915039062 256.89453125 343.732421875 253.495117188 309.732421875 253.495117188 c 0
 286.499023438 253.495117188 265.673828125 259.302734375 247.2578125 270.919921875 c 0
 228.840820312 282.537109375 214.532226562 297.978515625 204.33203125 317.24609375 c 0
 194.1328125 336.512695312 187.615234375 358.754882812 184.782226562 383.971679688 c 0
 183.837890625 392.375976562 183.366210938 400.829101562 183.366210938 409.328125 c 0
 183.366210938 426.329101562 185.254882812 443.518554688 189.033203125 460.897460938 c 0
 196.400390625 492.629882812 208.158203125 522.23828125 224.30859375 549.721679688 c 0
 240.458007812 577.204101562 259.158203125 600.579101562 280.408203125 619.846679688 c 0
 301.658203125 639.11328125 325.31640625 654.271484375 351.3828125 665.321289062 c 0
 377.450195312 676.37109375 403.516601562 681.896484375 429.583984375 681.896484375 c 0
 494.18359375 681.896484375 536.258789062 655.546875 555.80859375 602.846679688 c 0
 564.625 579.080078125 569.034179688 550.645507812 569.034179688 517.543945312 c 0
 569.034179688 477.24609375 562.5 430.030273438 549.43359375 375.896484375 c 0
 538.666992188 330.563476562 524.075195312 289.62109375 505.658203125 253.071289062 c 0
 487.241210938 216.521484375 466.69921875 185.49609375 444.032226562 159.99609375 c 0
 421.365234375 134.49609375 396.0078125 112.6796875 367.95703125 94.546875 c 0
 339.907226562 76.4130859375 311.290039062 62.671875 282.107421875 53.3212890625 c 0
 252.923828125 43.9716796875 222.465820312 37.8798828125 190.733398438 35.046875 c 0
268.930664062 471.092773438 m 0
 264.060546875 450.075195312 261.625976562 431.348632812 261.625976562 414.91015625 c 0
 261.625976562 395.006835938 265.196289062 378.459960938 272.333984375 365.26953125 c 0
 285.3671875 341.186523438 310.299804688 329.14453125 347.1328125 329.14453125 c 0
 370.366210938 329.14453125 394.44921875 334.811523438 419.3828125 346.14453125 c 0
 444.315429688 357.477539062 465.565429688 373.060546875 483.1328125 392.893554688 c 1
 487.665039062 409.327148438 492.765625 434.259765625 498.432617188 467.693359375 c 0
 499.70703125 477.04296875 500.344726562 486.471679688 500.344726562 495.981445312 c 0
 500.344726562 499.151367188 500.274414062 502.331054688 500.1328125 505.518554688 c 0
 499.565429688 518.268554688 497.298828125 531.16015625 493.331054688 544.193359375 c 0
 489.364257812 557.2265625 484.123046875 568.559570312 477.60546875 578.192382812 c 0
 471.088867188 587.825195312 462.1640625 595.6171875 450.831054688 601.567382812 c 0
 439.498046875 607.517578125 426.748046875 610.4921875 412.581054688 610.4921875 c 0
 392.748046875 610.4921875 372.772460938 603.692382812 352.655273438 590.092773438 c 0
 332.5390625 576.4921875 314.831054688 559.067382812 299.530273438 537.817382812 c 0
 284.23046875 516.567382812 274.030273438 494.325195312 268.930664062 471.092773438 c 0
EndSplineSet
Validated: 524289
EndChar

StartChar: colon
Encoding: 58 58 37
Width: 550
VWidth: 887
GlyphClass: 2
Flags: HMW
VStem: 249.392 164.047
LayerCount: 2
Fore
SplineSet
413.436523438 392.092773438 m 0
 410.603515625 373.392578125 404.08984375 353.556640625 393.890625 332.58984375 c 0
 388.790039062 321.256835938 381.140625 312.615234375 370.940429688 306.665039062 c 0
 361.627929688 301.233398438 353.0234375 298.515625 345.126953125 298.515625 c 0
 344.375 298.515625 343.629882812 298.541015625 342.890625 298.58984375 c 0
 314.7890625 300.123046875 300.739257812 310.868164062 300.739257812 330.828125 c 0
 300.739257812 333.005859375 300.90625 335.293945312 301.240234375 337.690429688 c 0
 303.506835938 352.990234375 307.474609375 372.540039062 313.141601562 396.33984375 c 0
 314.840820312 403.70703125 318.241210938 409.798828125 323.340820312 414.616210938 c 0
 328.44140625 419.432617188 334.108398438 422.974609375 340.340820312 425.241210938 c 0
 346.57421875 427.508789062 352.381835938 428.92578125 357.765625 429.4921875 c 0
 363.1484375 430.059570312 368.673828125 430.342773438 374.33984375 430.342773438 c 0
 378.873046875 430.342773438 383.40625 429.775390625 387.939453125 428.642578125 c 0
 392.47265625 427.509765625 397.005859375 425.666992188 401.5390625 423.1171875 c 0
 406.071289062 420.567382812 409.330078125 416.600585938 411.3125 411.217773438 c 0
 413.295898438 405.833984375 414.00390625 399.458984375 413.436523438 392.092773438 c 0
361.58984375 165.139648438 m 0
 360.45703125 145.306640625 354.791015625 124.903320312 344.590820312 103.936523438 c 0
 339.491210938 92.603515625 330.991210938 84.2451171875 319.090820312 78.8623046875 c 0
 308.325195312 73.9921875 298.71875 71.556640625 290.271484375 71.556640625 c 0
 289.381835938 71.556640625 288.504882812 71.583984375 287.641601562 71.638671875 c 0
 276.874023438 72.205078125 267.381835938 75.7470703125 259.165039062 82.263671875 c 0
 252.357421875 87.6640625 248.953125 94.9111328125 248.953125 104.006835938 c 0
 248.953125 105.887695312 249.098632812 107.848632812 249.390625 109.888671875 c 0
 251.657226562 121.7890625 253.07421875 129.296875 253.641601562 132.4140625 c 0
 254.208007812 135.53125 255.766601562 141.338867188 258.31640625 149.838867188 c 0
 260.866210938 158.338867188 262.708007812 164.856445312 263.840820312 169.388671875 c 0
 265.541015625 176.189453125 268.798828125 182.138671875 273.616210938 187.239257812 c 0
 278.432617188 192.338867188 283.81640625 195.880859375 289.766601562 197.864257812 c 0
 295.715820312 199.84765625 301.3828125 201.263671875 306.766601562 202.114257812 c 0
 312.149414062 202.963867188 317.391601562 203.388671875 322.491210938 203.388671875 c 0
 328.724609375 203.388671875 334.673828125 202.397460938 340.340820312 200.4140625 c 0
 346.0078125 198.430664062 351.108398438 194.323242188 355.641601562 188.08984375 c 0
 360.173828125 181.856445312 362.157226562 174.20703125 361.58984375 165.139648438 c 0
EndSplineSet
Validated: 524289
EndChar

StartChar: semicolon
Encoding: 59 59 38
Width: 550
VWidth: 864
GlyphClass: 2
Flags: HMW
VStem: 168.973 255.845
LayerCount: 2
Fore
SplineSet
424.819335938 333.322265625 m 0
 421.986328125 314.623046875 415.190429688 294.7890625 404.422851562 273.822265625 c 0
 399.323242188 262.489257812 391.672851562 253.846679688 381.473632812 247.896484375 c 0
 372.16015625 242.46484375 363.79296875 239.748046875 356.369140625 239.748046875 c 0
 355.662109375 239.748046875 354.962890625 239.772460938 354.2734375 239.822265625 c 0
 347.473632812 240.388671875 340.815429688 241.947265625 334.297851562 244.497070312 c 0
 327.78125 247.046875 322.114257812 251.438476562 317.296875 257.671875 c 0
 312.48046875 263.905273438 310.638671875 271.271484375 311.771484375 279.771484375 c 0
 314.038085938 295.072265625 318.571289062 314.622070312 325.37109375 338.421875 c 0
 327.071289062 345.221679688 330.329101562 351.171875 335.146484375 356.271484375 c 0
 339.963867188 361.372070312 345.48828125 364.9140625 351.721679688 366.896484375 c 0
 357.954101562 368.879882812 363.904296875 370.296875 369.571289062 371.146484375 c 0
 375.23828125 371.997070312 380.338867188 372.138671875 384.87109375 371.572265625 c 0
 389.971679688 371.572265625 394.788085938 371.146484375 399.321289062 370.296875 c 0
 403.854492188 369.447265625 408.387695312 367.604492188 412.920898438 364.771484375 c 0
 417.454101562 361.938476562 420.711914062 357.831054688 422.6953125 352.447265625 c 0
 424.677734375 347.064453125 425.385742188 340.689453125 424.819335938 333.322265625 c 0
350.0234375 77.4716796875 m 0
 344.356445312 59.3388671875 310.07421875 -14.6123046875 247.173828125 -144.37890625 c 0
 241.506835938 -156.279296875 234.282226562 -164.920898438 225.499023438 -170.303710938 c 0
 217.552734375 -175.173828125 209.72265625 -177.609375 202.0078125 -177.609375 c 0
 201.1953125 -177.609375 200.383789062 -177.58203125 199.57421875 -177.528320312 c 0
 188.806640625 -176.9609375 180.024414062 -173.278320312 173.223632812 -166.478515625 c 0
 168.928710938 -162.18359375 166.782226562 -156.872070312 166.782226562 -150.541992188 c 0
 166.782226562 -146.850585938 167.512695312 -142.8125 168.973632812 -138.427734375 c 0
 172.94140625 -124.828125 186.116210938 -91.677734375 208.499023438 -38.978515625 c 0
 230.881835938 13.7216796875 248.306640625 53.955078125 260.774414062 81.7216796875 c 0
 264.741210938 90.2216796875 268.848632812 97.021484375 273.098632812 102.122070312 c 0
 277.348632812 107.221679688 281.45703125 110.622070312 285.423828125 112.322265625 c 0
 289.390625 114.021484375 293.640625 115.155273438 298.173828125 115.721679688 c 0
 302.70703125 116.2890625 306.673828125 116.2890625 310.07421875 115.721679688 c 0
 315.173828125 115.721679688 320.274414062 115.013671875 325.374023438 113.596679688 c 0
 330.473632812 112.1796875 335.431640625 110.197265625 340.249023438 107.646484375 c 0
 345.06640625 105.096679688 348.465820312 101.271484375 350.44921875 96.171875 c 0
 352.431640625 91.072265625 352.290039062 84.8388671875 350.0234375 77.4716796875 c 0
EndSplineSet
Validated: 524289
EndChar

StartChar: less
Encoding: 60 60 39
Width: 550
VWidth: 902
GlyphClass: 2
Flags: W
LayerCount: 2
Fore
SplineSet
482.76171875 64.4111328125 m 0
 478.794921875 58.744140625 473.837890625 53.9287109375 467.887695312 49.9619140625 c 0
 461.9375 45.994140625 454.287109375 43.4443359375 444.9375 42.3115234375 c 0
 443.068359375 42.0849609375 441.158203125 41.9716796875 439.208984375 41.9716796875 c 0
 431.411132812 41.9716796875 422.979492188 43.78515625 413.912109375 47.4111328125 c 0
 402.012695312 51.9443359375 388.129882812 61.861328125 372.262695312 77.1611328125 c 0
 356.395507812 92.4619140625 339.678710938 110.736328125 322.111328125 131.986328125 c 0
 304.544921875 153.236328125 287.26171875 174.911132812 270.26171875 197.01171875 c 0
 253.26171875 219.111328125 235.26953125 241.919921875 216.287109375 265.436523438 c 0
 197.303710938 288.953125 180.728515625 307.228515625 166.561523438 320.26171875 c 0
 160.89453125 325.361328125 158.061523438 333.01171875 158.061523438 343.211914062 c 0
 158.061523438 353.411132812 160.469726562 363.186523438 165.287109375 372.536132812 c 0
 170.103515625 381.88671875 176.1953125 388.544921875 183.5625 392.51171875 c 0
 218.6953125 416.311523438 260.770507812 446.203125 309.787109375 482.186523438 c 0
 358.8046875 518.169921875 403.4296875 550.752929688 443.662109375 579.935546875 c 0
 483.895507812 609.119140625 519.028320312 632.2109375 549.061523438 649.2109375 c 0
 558.694335938 654.877929688 567.194335938 657.852539062 574.561523438 658.135742188 c 0
 581.928710938 658.418945312 587.87890625 657.001953125 592.412109375 653.884765625 c 0
 596.944335938 650.767578125 600.486328125 646.943359375 603.037109375 642.41015625 c 0
 605.586914062 637.876953125 607.428710938 633.059570312 608.561523438 627.959960938 c 0
 609.065429688 625.819335938 609.317382812 623.670898438 609.317382812 621.515625 c 0
 609.317382812 613.974609375 606.232421875 606.34765625 600.0625 598.634765625 c 0
 592.129882812 588.717773438 577.6796875 576.959960938 556.712890625 563.360351562 c 0
 522.145507812 541.259765625 468.87890625 504.993164062 396.912109375 454.559570312 c 0
 324.944335938 404.126953125 279.328125 372.110351562 260.060546875 358.509765625 c 1
 276.494140625 341.509765625 294.486328125 320.967773438 314.036132812 296.884765625 c 0
 333.5859375 272.801757812 350.5859375 250.985351562 365.036132812 231.434570312 c 0
 379.486328125 211.884765625 395.494140625 191.91015625 413.060546875 171.509765625 c 0
 430.627929688 151.110351562 446.495117188 134.959960938 460.662109375 123.059570312 c 0
 474.829101562 111.16015625 483.611328125 100.818359375 487.01171875 92.03515625 c 0
 488.211914062 88.935546875 488.811523438 85.7822265625 488.811523438 82.5771484375 c 0
 488.811523438 76.69921875 486.794921875 70.6435546875 482.76171875 64.4111328125 c 0
EndSplineSet
Validated: 524289
EndChar

StartChar: equal
Encoding: 61 61 40
Width: 550
VWidth: 908
GlyphClass: 2
Flags: HMW
HStem: 268.077 70.55<215.731 240.098> 434.679 72.2508
LayerCount: 2
Fore
SplineSet
276.649414062 506.9296875 m 0
 306.682617188 505.796875 337.423828125 505.2265625 368.873046875 505.2265625 c 0
 400.323242188 505.2265625 429.931640625 505.509765625 457.698242188 506.077148438 c 0
 485.46484375 506.643554688 502.182617188 506.926757812 507.849609375 506.926757812 c 0
 520.31640625 506.926757812 528.249023438 504.09375 531.649414062 498.426757812 c 0
 535.048828125 492.759765625 535.899414062 485.109375 534.19921875 475.4765625 c 0
 533.06640625 470.376953125 531.649414062 465.702148438 529.94921875 461.452148438 c 0
 528.249023438 457.202148438 525.69921875 453.09375 522.298828125 449.126953125 c 0
 518.899414062 445.16015625 514.649414062 442.184570312 509.548828125 440.202148438 c 0
 504.44921875 438.21875 498.782226562 437.510742188 492.548828125 438.077148438 c 0
 480.076171875 438.456054688 467.037109375 438.64453125 453.4296875 438.64453125 c 0
 446.635742188 438.64453125 439.700195312 438.59765625 432.624023438 438.502929688 c 0
 411.374023438 438.220703125 382.19140625 437.512695312 345.07421875 436.37890625 c 0
 307.95703125 435.24609375 280.899414062 434.6796875 263.899414062 434.6796875 c 0
 250.866210938 434.6796875 241.374023438 438.079101562 235.423828125 444.87890625 c 0
 229.474609375 451.6796875 227.631835938 459.896484375 229.899414062 469.529296875 c 0
 231.599609375 480.295898438 236.557617188 489.36328125 244.774414062 496.73046875 c 0
 252.404296875 503.5703125 262.109375 506.990234375 273.892578125 506.990234375 c 0
 274.798828125 506.990234375 275.717773438 506.970703125 276.649414062 506.9296875 c 0
240.098632812 338.626953125 m 0
 253.912109375 338.4375 268.515625 338.342773438 283.909179688 338.342773438 c 0
 314.61328125 338.342773438 348.458007812 338.719726562 385.447265625 339.474609375 c 0
 440.98046875 340.607421875 469.030273438 341.173828125 469.59765625 341.173828125 c 0
 482.064453125 341.173828125 489.998046875 338.19921875 493.397460938 332.249023438 c 0
 496.797851562 326.298828125 497.647460938 318.506835938 495.947265625 308.874023438 c 0
 494.814453125 303.774414062 493.256835938 299.099609375 491.2734375 294.849609375 c 0
 489.290039062 290.599609375 486.740234375 286.491210938 483.623046875 282.524414062 c 0
 480.506835938 278.557617188 476.3984375 275.58203125 471.298828125 273.599609375 c 0
 466.198242188 271.616210938 460.53125 270.908203125 454.298828125 271.474609375 c 0
 441.825195312 271.853515625 428.66015625 272.041992188 414.80078125 272.041992188 c 0
 407.880859375 272.041992188 400.788085938 271.995117188 393.5234375 271.901367188 c 0
 371.706054688 271.618164062 341.956054688 270.91015625 304.2734375 269.776367188 c 0
 266.58984375 268.643554688 239.248046875 268.077148438 222.248046875 268.077148438 c 0
 209.21484375 268.077148438 200.290039062 271.619140625 195.473632812 278.702148438 c 0
 192.198242188 283.517578125 190.560546875 289.055664062 190.560546875 295.313476562 c 0
 190.560546875 298.258789062 190.922851562 301.36328125 191.6484375 304.626953125 c 0
 193.348632812 314.259765625 198.448242188 322.334960938 206.948242188 328.8515625 c 0
 215.448242188 335.369140625 226.498046875 338.626953125 240.098632812 338.626953125 c 0
EndSplineSet
Validated: 524289
EndChar

StartChar: greater
Encoding: 62 62 41
Width: 550
VWidth: 903
GlyphClass: 2
Flags: W
LayerCount: 2
Fore
SplineSet
160.592773438 57.818359375 m 0
 151.526367188 52.7177734375 143.166992188 49.884765625 135.516601562 49.3173828125 c 0
 127.8671875 48.75 121.775390625 50.025390625 117.2421875 53.142578125 c 0
 112.708984375 56.259765625 109.166992188 60.083984375 106.6171875 64.6171875 c 0
 104.067382812 69.150390625 102.225585938 73.9677734375 101.091796875 79.0673828125 c 0
 100.587890625 81.2080078125 100.336914062 83.3564453125 100.336914062 85.51171875 c 0
 100.336914062 93.052734375 103.420898438 100.6796875 109.590820312 108.392578125 c 0
 117.524414062 118.309570312 132.2578125 130.067382812 153.790039062 143.666992188 c 0
 188.357421875 165.767578125 241.482421875 202.034179688 313.165039062 252.467773438 c 0
 384.848632812 302.900390625 430.606445312 334.916992188 450.439453125 348.517578125 c 1
 434.006835938 365.517578125 415.873046875 386.059570312 396.040039062 410.142578125 c 0
 376.20703125 434.225585938 358.923828125 456.041992188 344.19140625 475.592773438 c 0
 329.458007812 495.142578125 313.450195312 515.1171875 296.166992188 535.517578125 c 0
 278.883789062 555.916992188 263.159179688 572.067382812 248.9921875 583.967773438 c 0
 234.825195312 595.8671875 226.041992188 606.208984375 222.641601562 614.9921875 c 0
 221.44140625 618.091796875 220.842773438 621.245117188 220.842773438 624.450195312 c 0
 220.842773438 630.328125 222.858398438 636.383789062 226.891601562 642.616210938 c 0
 230.859375 648.283203125 235.817382812 653.100585938 241.766601562 657.067382812 c 0
 247.716796875 661.034179688 255.3671875 663.583984375 264.716796875 664.717773438 c 0
 266.5859375 664.944335938 268.49609375 665.056640625 270.4453125 665.056640625 c 0
 278.243164062 665.056640625 286.674804688 663.244140625 295.7421875 659.6171875 c 0
 307.641601562 655.083984375 321.666992188 645.309570312 337.817382812 630.291992188 c 0
 353.966796875 615.275390625 370.68359375 597 387.966796875 575.467773438 c 0
 405.25 553.934570312 422.391601562 532.1171875 439.391601562 510.017578125 c 0
 456.391601562 487.916992188 474.383789062 465.25 493.3671875 442.017578125 c 0
 512.350585938 418.784179688 529.208007812 400.3671875 543.94140625 386.767578125 c 0
 549.041015625 381.666992188 551.44921875 374.017578125 551.166015625 363.817382812 c 0
 550.8828125 353.6171875 548.475585938 343.842773438 543.942382812 334.4921875 c 0
 539.409179688 325.142578125 533.458984375 318.484375 526.091796875 314.517578125 c 0
 490.958984375 290.717773438 448.883789062 260.825195312 399.8671875 224.842773438 c 0
 350.850585938 188.859375 306.225585938 156.276367188 265.9921875 127.092773438 c 0
 225.758789062 97.91015625 190.625976562 74.818359375 160.592773438 57.818359375 c 0
EndSplineSet
Validated: 524289
EndChar

StartChar: question
Encoding: 63 63 42
Width: 550
VWidth: 903
GlyphClass: 2
Flags: HMW
HStem: 41.1543 130.898 595.357 71.4009<406.922 417.686>
VStem: 215.106 128.35 279.704 80.7508
LayerCount: 2
Fore
SplineSet
360.454101562 275.7578125 m 0xd0
 354.788085938 261.024414062 347.278320312 249.688476562 337.928710938 241.754882812 c 0
 331.6953125 236.466796875 324.517578125 233.822265625 316.396484375 233.822265625 c 0
 312.334960938 233.822265625 308.038085938 234.483398438 303.50390625 235.805664062 c 0
 289.903320312 239.772460938 281.970703125 247.139648438 279.704101562 257.907226562 c 0
 279.2265625 260.173828125 278.98828125 262.603515625 278.98828125 265.197265625 c 0
 278.98828125 274.921875 282.34375 286.94140625 289.053710938 301.256835938 c 0
 296.420898438 316.556640625 305.204101562 331.006835938 315.403320312 344.606445312 c 0
 325.603515625 358.20703125 335.9453125 369.823242188 346.428710938 379.45703125 c 0
 356.912109375 389.08984375 367.8203125 398.297851562 379.153320312 407.081054688 c 0
 390.486328125 415.864257812 401.252929688 424.081054688 411.453125 431.73046875 c 0
 421.653320312 439.380859375 431.14453125 447.172851562 439.927734375 455.10546875 c 0
 448.7109375 463.0390625 456.21875 471.680664062 462.452148438 481.03125 c 0
 468.685546875 490.380859375 472.935546875 500.439453125 475.202148438 511.206054688 c 0
 477.567382812 521.455078125 478.75 530.727539062 478.75 539.0234375 c 0
 478.75 554.577148438 474.591796875 566.696289062 466.27734375 575.381835938 c 0
 453.52734375 588.698242188 432.418945312 595.356445312 402.952148438 595.356445312 c 0
 395.584960938 595.356445312 387.65234375 593.514648438 379.15234375 589.83203125 c 0
 370.65234375 586.1484375 363.28515625 582.041015625 357.051757812 577.5078125 c 0
 350.819335938 572.974609375 343.59375 566.8828125 335.376953125 559.232421875 c 0
 327.16015625 551.583007812 320.78515625 545.065429688 316.251953125 539.682617188 c 0
 311.71875 534.299804688 306.3359375 527.924804688 300.102539062 520.557617188 c 0
 293.870117188 513.190429688 288.061523438 507.3828125 282.678710938 503.1328125 c 0
 277.295898438 498.8828125 272.337890625 496.615234375 267.8046875 496.333007812 c 0
 263.271484375 496.049804688 259.163085938 496.333007812 255.48046875 497.182617188 c 0
 251.796875 498.032226562 247.122070312 499.875 241.455078125 502.708007812 c 0
 233.522460938 507.807617188 229.697265625 515.174804688 229.98046875 524.807617188 c 0
 230.263671875 534.440429688 235.505859375 546.907226562 245.705078125 562.208007812 c 0
 254.205078125 574.107421875 263.838867188 585.583007812 274.60546875 596.6328125 c 0
 285.372070312 607.682617188 298.122070312 618.732421875 312.85546875 629.782226562 c 0
 327.588867188 640.833007812 344.021484375 649.7578125 362.154296875 656.557617188 c 0
 380.288085938 663.357421875 398.137695312 666.7578125 415.704101562 666.7578125 c 0
 472.9375 666.7578125 513.029296875 652.590820312 535.979492188 624.2578125 c 0
 550.6171875 606.186523438 557.935546875 582.353515625 557.935546875 552.756835938 c 0
 557.935546875 535.94921875 555.575195312 517.283203125 550.854492188 496.7578125 c 0
 547.454101562 481.458007812 541.9296875 467.57421875 534.279296875 455.107421875 c 0
 526.629882812 442.640625 518.129882812 431.874023438 508.779296875 422.806640625 c 0
 499.4296875 413.740234375 489.229492188 405.240234375 478.1796875 397.306640625 c 0
 467.129882812 389.374023438 455.9375 381.440429688 444.604492188 373.5078125 c 0
 433.271484375 365.57421875 422.36328125 357.357421875 411.880859375 348.857421875 c 0
 401.397460938 340.357421875 391.622070312 329.732421875 382.555664062 316.982421875 c 0
 373.48828125 304.232421875 366.12109375 290.490234375 360.454101562 275.7578125 c 0xd0
266.103515625 41.154296875 m 0
 263.239257812 40.8359375 260.486328125 40.6767578125 257.845703125 40.6767578125 c 0
 241.678710938 40.6767578125 229.700195312 46.6416015625 221.90625 58.576171875 c 0
 215.861328125 67.8310546875 212.838867188 78.158203125 212.838867188 89.5546875 c 0
 212.838867188 95.2529296875 213.594726562 101.217773438 215.10546875 107.451171875 c 0
 219.072265625 125.017578125 229.272460938 140.03515625 245.705078125 152.501953125 c 0
 262.138671875 164.96875 278.85546875 171.485351562 295.85546875 172.052734375 c 0
 296.6875 172.077148438 297.508789062 172.090820312 298.3203125 172.090820312 c 0
 315.767578125 172.090820312 328.6875 166.26953125 337.080078125 154.62890625 c 0
 342.873046875 146.592773438 345.770507812 137.139648438 345.770507812 126.267578125 c 0
 345.770507812 120.657226562 344.998046875 114.668945312 343.455078125 108.303710938 c 0xe0
 339.48828125 90.169921875 330.421875 75.0126953125 316.254882812 62.8291015625 c 0
 302.087890625 50.646484375 285.37109375 43.4208984375 266.103515625 41.154296875 c 0
EndSplineSet
Validated: 524289
EndChar

StartChar: at
Encoding: 64 64 43
Width: 550
VWidth: 893
GlyphClass: 2
Flags: HMW
HStem: -66.6135 72.2467<238.692 279.774> 129.738 66.2958<409.542 446.091> 143.338 67.995<308.391 315.475> 564.081 76.5066<420.307 423.425>
VStem: 111.048 72.6758 380.075 68.85 508 64.1741
LayerCount: 2
Fore
SplineSet
448.919921875 47.2861328125 m 0xde
 444.38671875 39.353515625 439.860351562 32.4111328125 435.327148438 26.4609375 c 0
 430.793945312 20.5107421875 425.126953125 13.1435546875 418.327148438 4.3603515625 c 0
 411.526367188 -4.4228515625 404.443359375 -11.9306640625 397.077148438 -18.1630859375 c 0
 389.709960938 -24.396484375 380.926757812 -30.771484375 370.7265625 -37.2880859375 c 0
 360.526367188 -43.8056640625 349.759765625 -49.1884765625 338.426757812 -53.4384765625 c 0
 327.09375 -57.6884765625 313.918945312 -61.0888671875 298.901367188 -63.638671875 c 0
 286.616210938 -65.724609375 274.044921875 -66.767578125 261.189453125 -66.767578125 c 0
 258.333007812 -66.767578125 255.4609375 -66.716796875 252.576171875 -66.61328125 c 0
 224.80859375 -66.61328125 200.442382812 -59.24609375 179.475585938 -44.513671875 c 0
 158.5078125 -29.7802734375 142.215820312 -9.23828125 130.599609375 17.111328125 c 0
 118.982421875 43.4619140625 112.465820312 75.478515625 111.048828125 113.161132812 c 0
 110.875976562 117.7578125 110.7890625 122.40625 110.7890625 127.107421875 c 0
 110.7890625 160.953125 115.267578125 197.530273438 124.223632812 236.836914062 c 0
 136.123046875 286.703125 150.573242188 333.169921875 167.573242188 376.237304688 c 0
 184.573242188 419.3046875 203.415039062 456.846679688 224.098632812 488.86328125 c 0
 244.78125 520.879882812 266.598632812 548.36328125 289.548828125 571.313476562 c 0
 312.498046875 594.263671875 336.15625 611.545898438 360.5234375 623.163085938 c 0
 384.890625 634.780273438 408.690429688 640.587890625 431.923828125 640.587890625 c 0
 449.490234375 640.587890625 465.215820312 639.030273438 479.098632812 635.913085938 c 0
 492.981445312 632.795898438 505.873046875 627.696289062 517.7734375 620.61328125 c 0
 529.673828125 613.530273438 539.306640625 604.038085938 546.673828125 592.138671875 c 0
 554.040039062 580.23828125 560.1328125 565.36328125 564.94921875 547.513671875 c 0
 569.766601562 529.663085938 572.174804688 508.837890625 572.174804688 485.038085938 c 0
 572.174804688 461.23828125 569.907226562 433.188476562 565.374023438 400.888671875 c 0
 560.840820312 368.587890625 554.041015625 332.321289062 544.974609375 292.087890625 c 0
 540.44140625 271.688476562 534.6328125 252.280273438 527.549804688 233.86328125 c 0
 520.466796875 215.446289062 512.109375 198.163085938 502.475585938 182.013671875 c 0
 492.842773438 165.86328125 481.651367188 153.11328125 468.901367188 143.763671875 c 0
 456.151367188 134.413085938 442.693359375 129.73828125 428.526367188 129.73828125 c 0xde
 395.913085938 129.73828125 379.607421875 147.298828125 379.607421875 182.420898438 c 0
 379.607421875 188.186523438 380.045898438 194.42578125 380.924804688 201.138671875 c 1
 359.958007812 162.60546875 332.475585938 143.337890625 298.475585938 143.337890625 c 0
 267.30859375 143.337890625 245.491210938 153.821289062 233.024414062 174.788085938 c 0
 226.16796875 186.319335938 222.739257812 201.194335938 222.739257812 219.411132812 c 0
 222.739257812 234.31640625 225.034179688 251.458007812 229.624023438 270.838867188 c 0
 234.724609375 292.372070312 241.524414062 312.205078125 250.024414062 330.337890625 c 0
 258.524414062 348.471679688 268.016601562 363.913085938 278.499023438 376.663085938 c 0
 288.982421875 389.413085938 300.45703125 400.1796875 312.924804688 408.962890625 c 0
 325.391601562 417.74609375 337.999023438 423.979492188 350.749023438 427.662109375 c 0
 361.798828125 430.853515625 372.84765625 432.450195312 383.896484375 432.450195312 c 0
 388.999023438 432.336914062 l 0
 401.749023438 431.76953125 413.791015625 428.65234375 425.124023438 422.985351562 c 0
 436.45703125 417.885742188 444.674804688 411.0859375 449.774414062 402.5859375 c 0
 454.874023438 394.0859375 454.874023438 386.435546875 449.774414062 379.635742188 c 0
 446.94140625 375.102539062 443.82421875 371.419921875 440.424804688 368.586914062 c 0
 437.024414062 365.75390625 433.340820312 363.770507812 429.374023438 362.637695312 c 0
 425.407226562 361.50390625 421.865234375 360.654296875 418.748046875 360.086914062 c 0
 415.631835938 359.520507812 411.665039062 359.662109375 406.84765625 360.512695312 c 0
 402.030273438 361.362304688 398.34765625 362.0703125 395.797851562 362.637695312 c 0
 393.248046875 363.204101562 389.706054688 364.336914062 385.172851562 366.037109375 c 0
 378.939453125 367.169921875 372.28125 367.453125 365.198242188 366.88671875 c 0
 358.115234375 366.319335938 351.032226562 363.911132812 343.94921875 359.661132812 c 0
 336.866210938 355.411132812 330.06640625 350.028320312 323.549804688 343.51171875 c 0
 317.032226562 336.994140625 311.08203125 328.352539062 305.69921875 317.5859375 c 0
 300.31640625 306.818359375 295.924804688 294.635742188 292.524414062 281.036132812 c 0
 290.82421875 273.668945312 289.69140625 266.7265625 289.124023438 260.209960938 c 0
 288.557617188 253.693359375 288.415039062 246.326171875 288.698242188 238.109375 c 0
 288.981445312 229.892578125 291.106445312 223.375 295.073242188 218.55859375 c 0
 299.040039062 213.741210938 304.70703125 211.333007812 312.07421875 211.333007812 c 0xbe
 328.5078125 211.333007812 341.82421875 218.275390625 352.024414062 232.158203125 c 0
 362.224609375 246.041015625 371.57421875 269.1328125 380.07421875 301.43359375 c 0
 382.340820312 310.5 390.840820312 317.8671875 405.57421875 323.534179688 c 0
 414.760742188 327.142578125 422.806640625 328.947265625 429.713867188 328.947265625 c 0
 434.737304688 328.947265625 439.157226562 327.9921875 442.975585938 326.083984375 c 0
 449.208007812 323.250976562 451.19140625 317.583984375 448.924804688 309.083984375 c 0
 438.724609375 279.05078125 432.491210938 255.67578125 430.224609375 238.958984375 c 0
 429.090820312 230.600585938 428.524414062 223.588867188 428.524414062 217.921875 c 0
 428.524414062 212.254882812 429.090820312 207.93359375 430.224609375 204.958984375 c 0
 432.491210938 199.008789062 437.024414062 196.034179688 443.82421875 196.034179688 c 0
 448.357421875 196.034179688 453.032226562 199.716796875 457.849609375 207.083984375 c 0
 462.666015625 214.451171875 467.05859375 224.083984375 471.025390625 235.984375 c 0
 474.9921875 247.883789062 478.25 258.3671875 480.799804688 267.43359375 c 0
 483.350585938 276.500976562 485.475585938 285.284179688 487.174804688 293.784179688 c 0
 493.975585938 322.68359375 499.075195312 349.317382812 502.475585938 373.68359375 c 0
 505.875 398.05078125 507.716796875 418.875976562 508 436.159179688 c 0
 508.028320312 437.88671875 508.04296875 439.596679688 508.04296875 441.290039062 c 0
 508.04296875 456.540039062 506.895507812 470.412109375 504.600585938 482.908203125 c 0
 502.049804688 496.791015625 499.216796875 508.124023438 496.100585938 516.907226562 c 0
 492.983398438 525.690429688 488.450195312 533.198242188 482.5 539.431640625 c 0
 476.549804688 545.665039062 471.166992188 550.33984375 466.350585938 553.45703125 c 0
 461.533203125 556.573242188 455.725585938 558.981445312 448.924804688 560.681640625 c 0
 442.125 562.381835938 437.025390625 563.373046875 433.625 563.65625 c 0
 430.225585938 563.939453125 425.975585938 564.08203125 420.875 564.08203125 c 0
 399.908203125 564.08203125 378.516601562 556.998046875 356.69921875 542.83203125 c 0
 334.8828125 528.665039062 314.19921875 508.97265625 294.649414062 483.755859375 c 0
 275.099609375 458.5390625 256.965820312 427.23046875 240.249023438 389.831054688 c 0
 223.532226562 352.430664062 210.07421875 311.630859375 199.874023438 267.430664062 c 0
 190.807617188 228.897460938 185.424804688 194.189453125 183.724609375 163.306640625 c 0
 183.260742188 154.884765625 183.028320312 146.905273438 183.028320312 139.3671875 c 0
 183.028320312 119.266601562 184.677734375 102.313476562 187.974609375 88.5078125 c 0
 192.5078125 69.5244140625 199.165039062 53.5166015625 207.948242188 40.4833984375 c 0
 216.731445312 27.4501953125 226.506835938 18.3828125 237.2734375 13.283203125 c 0
 248.040039062 8.18359375 259.940429688 5.6328125 272.973632812 5.6328125 c 0
 286.573242188 5.6328125 299.465820312 7.0498046875 311.6484375 9.8828125 c 0
 323.83203125 12.7158203125 334.173828125 16.1162109375 342.673828125 20.0830078125 c 0
 351.173828125 24.0498046875 359.53125 29.43359375 367.748046875 36.2333984375 c 0
 375.965820312 43.033203125 382.765625 49.2666015625 388.1484375 54.93359375 c 0
 393.53125 60.6005859375 399.623046875 67.966796875 406.423828125 77.0341796875 c 0
 409.256835938 81.0009765625 411.665039062 84.1181640625 413.647460938 86.384765625 c 0
 415.630859375 88.6513671875 418.0390625 91.34375 420.872070312 94.4609375 c 0
 423.705078125 97.578125 426.11328125 99.8447265625 428.095703125 101.26171875 c 0
 430.079101562 102.678710938 432.345703125 103.953125 434.896484375 105.086914062 c 0
 437.446289062 106.219726562 439.99609375 106.786132812 442.545898438 106.786132812 c 0
 445.095703125 106.786132812 447.50390625 106.219726562 449.771484375 105.086914062 c 0
 453.73828125 103.38671875 456.712890625 101.26171875 458.696289062 98.7119140625 c 0
 460.678710938 96.1611328125 462.095703125 92.76171875 462.946289062 88.51171875 c 0
 463.795898438 84.26171875 463.087890625 78.5947265625 460.821289062 71.51171875 c 0
 458.553710938 64.4287109375 454.586914062 56.353515625 448.919921875 47.2861328125 c 0xde
EndSplineSet
Validated: 524289
EndChar

StartChar: A
Encoding: 65 65 44
Width: 550
VWidth: 903
GlyphClass: 2
Flags: HMW
HStem: 267.328 68.855
VStem: 427.49 77.7759
LayerCount: 2
Fore
SplineSet
156.338867188 88.828125 m 2
 147.271484375 71.26171875 137.071289062 59.6494140625 125.73828125 53.982421875 c 0
 119.442382812 50.833984375 113.583007812 49.259765625 108.161132812 49.259765625 c 0
 103.823242188 49.259765625 99.765625 50.2666015625 95.98828125 52.28125 c 0
 87.32421875 57.0615234375 82.9912109375 65.30859375 82.9912109375 77.021484375 c 0
 82.9912109375 87.5224609375 86.4736328125 100.80859375 93.4384765625 116.881835938 c 0
 100.805664062 135.014648438 126.305664062 179.21484375 169.938476562 249.481445312 c 1
 163.768554688 254.76953125 160.68359375 260.916015625 160.68359375 267.91796875 c 0
 160.68359375 269.919921875 160.935546875 271.991210938 161.439453125 274.131835938 c 0
 162.572265625 282.064453125 167.671875 289.572265625 176.739257812 296.655273438 c 0
 185.806640625 303.739257812 196.2890625 309.263671875 208.189453125 313.23046875 c 1
 310.189453125 475.297851562 384.989257812 583.530273438 432.588867188 637.930664062 c 0
 442.7890625 649.263671875 451.572265625 657.48046875 458.939453125 662.581054688 c 0
 466.306640625 667.680664062 473.672851562 670.23046875 481.040039062 670.23046875 c 0
 482.89453125 670.436523438 484.697265625 670.5390625 486.44921875 670.5390625 c 0
 494.330078125 670.5390625 501.169921875 668.453125 506.96484375 664.280273438 c 0
 513.071289062 659.883789062 516.124023438 652.75 516.124023438 642.877929688 c 0
 516.124023438 641.298828125 516.045898438 639.649414062 515.889648438 637.930664062 c 0
 510.223632812 567.6640625 505.690429688 468.072265625 502.290039062 339.155273438 c 0
 501.014648438 290.809570312 500.377929688 250.174804688 500.377929688 217.25 c 0
 500.377929688 162.376953125 502.1484375 128.920898438 505.690429688 116.87890625 c 0
 507.0390625 111.752929688 507.713867188 106.850585938 507.713867188 102.173828125 c 0
 507.713867188 97.0283203125 506.897460938 92.1552734375 505.264648438 87.5537109375 c 0
 502.147460938 78.771484375 497.755859375 71.404296875 492.088867188 65.4541015625 c 0
 486.421875 59.50390625 480.188476562 55.1123046875 473.388671875 52.279296875 c 0
 468.465820312 50.20703125 463.751953125 49.1708984375 459.244140625 49.1708984375 c 0
 453.891601562 49.1708984375 448.831054688 50.6318359375 444.063476562 53.5537109375 c 0
 435.280273438 58.9375 429.755859375 70.6953125 427.48828125 88.828125 c 0
 426.58203125 95.8544921875 426.127929688 109.590820312 426.127929688 130.036132812 c 0
 426.127929688 160.704101562 427.1484375 206.467773438 429.188476562 267.328125 c 1
 361.188476562 264.495117188 299.705078125 258.544921875 244.73828125 249.478515625 c 1
 156.338867188 88.828125 l 2
441.938476562 565.68359375 m 1
 410.205078125 527.715820312 358.638671875 447.25 287.23828125 324.283203125 c 1
 342.205078125 331.083007812 390.655273438 335.049804688 432.588867188 336.18359375 c 1
 441.938476562 565.68359375 l 1
EndSplineSet
Validated: 524289
EndChar

StartChar: B
Encoding: 66 66 45
Width: 550
VWidth: 901
GlyphClass: 2
Flags: HMW
HStem: 31.9038 17.85G<140.857 146.24> 303.905 61.2<301.224 304.623> 586.955 67.1483<372.621 384.807>
LayerCount: 2
Fore
SplineSet
241.721679688 39.55078125 m 0
 232.654296875 38.9833984375 222.598632812 38.1376953125 211.548828125 37.0048828125 c 0
 200.499023438 35.8720703125 191.431640625 35.021484375 184.348632812 34.455078125 c 0
 177.265625 33.8876953125 170.041015625 33.3203125 162.673828125 32.75390625 c 0
 155.306640625 32.1865234375 148.931640625 31.904296875 143.548828125 31.904296875 c 0
 138.166015625 31.904296875 133.491210938 32.470703125 129.524414062 33.603515625 c 2
 126.124023438 33.603515625 l 2
 115.357421875 33.603515625 107.565429688 37.4287109375 102.748046875 45.0791015625 c 0
 100.106445312 49.2744140625 98.7861328125 54.3642578125 98.7861328125 60.34765625 c 0
 98.7861328125 65.2763671875 99.681640625 70.8125 101.47265625 76.9541015625 c 0
 108.83984375 100.75390625 119.889648438 146.086914062 134.623046875 212.954101562 c 0
 149.356445312 279.8203125 163.806640625 348.670898438 177.97265625 419.50390625 c 0
 185.90625 457.470703125 191.2890625 482.970703125 194.122070312 496.00390625 c 0
 196.955078125 509.037109375 201.34765625 526.603515625 207.296875 548.704101562 c 0
 213.247070312 570.803710938 217.35546875 586.103515625 219.622070312 594.603515625 c 0
 223.588867188 609.904296875 230.247070312 621.37890625 239.59765625 629.029296875 c 0
 248.947265625 636.678710938 259.004882812 640.50390625 269.772460938 640.50390625 c 2
 272.322265625 640.50390625 l 2
 281.389648438 643.336914062 290.880859375 645.745117188 300.797851562 647.727539062 c 0
 310.71484375 649.7109375 319.639648438 651.127929688 327.573242188 651.977539062 c 0
 335.505859375 652.828125 343.864257812 653.39453125 352.647460938 653.677734375 c 0
 361.430664062 653.9609375 368.088867188 654.102539062 372.62109375 654.102539062 c 2
 388.346679688 654.102539062 l 1
 397.271484375 654.102539062 l 2
 432.971679688 654.102539062 463.146484375 647.01953125 487.796875 632.852539062 c 0
 512.446289062 618.686523438 529.87109375 598.14453125 540.071289062 571.227539062 c 0
 545.80859375 556.086914062 548.677734375 539.556640625 548.677734375 521.63671875 c 0
 548.677734375 507.69921875 546.942382812 492.920898438 543.471679688 477.301757812 c 0
 536.104492188 444.435546875 522.504882812 416.243164062 502.671875 392.7265625 c 0
 482.838867188 369.208984375 459.321289062 352.067382812 432.12109375 341.30078125 c 1
 448.5546875 335.067382812 463.99609375 325.859375 478.446289062 313.676757812 c 0
 492.896484375 301.493164062 504.088867188 287.893554688 512.021484375 272.875976562 c 0
 517.8671875 261.811523438 520.790039062 251.284179688 520.790039062 241.295898438 c 0
 520.790039062 237.729492188 520.416992188 234.231445312 519.671875 230.801757812 c 0
 515.138671875 209.268554688 505.221679688 187.875976562 489.921875 166.625976562 c 0
 474.62109375 145.375976562 455.213867188 125.96875 431.696289062 108.401367188 c 0
 408.1796875 90.833984375 379.846679688 75.8173828125 346.696289062 63.3505859375 c 0
 313.546875 50.8837890625 278.5546875 42.9501953125 241.721679688 39.55078125 c 0
380.274414062 586.955078125 m 0
 351.940429688 586.955078125 323.323242188 583.271484375 294.422851562 575.904296875 c 1
 291.58984375 565.137695312 287.056640625 547.854492188 280.82421875 524.0546875 c 0
 274.590820312 500.254882812 268.215820312 475.038085938 261.69921875 448.404296875 c 0
 255.181640625 421.771484375 248.806640625 394.571289062 242.57421875 366.8046875 c 1
 266.940429688 365.671875 290.173828125 365.104492188 312.274414062 365.104492188 c 0
 328.140625 365.104492188 343.015625 366.521484375 356.899414062 369.354492188 c 0
 370.782226562 372.1875 382.681640625 375.87109375 392.598632812 380.404296875 c 0
 402.515625 384.936523438 411.723632812 390.461914062 420.223632812 396.978515625 c 0
 428.723632812 403.49609375 435.806640625 410.154296875 441.473632812 416.954101562 c 0
 447.140625 423.75390625 452.098632812 431.26171875 456.348632812 439.478515625 c 0
 460.598632812 447.6953125 463.857421875 455.0625 466.124023438 461.580078125 c 0
 468.390625 468.096679688 470.374023438 475.038085938 472.07421875 482.405273438 c 0
 474.017578125 490.82421875 474.98828125 498.873046875 474.98828125 506.552734375 c 0
 474.98828125 512.311523438 474.442382812 517.862304688 473.348632812 523.205078125 c 0
 470.798828125 535.672851562 466.265625 545.73046875 459.749023438 553.380859375 c 0
 453.232421875 561.030273438 445.298828125 567.547851562 435.94921875 572.930664062 c 0
 426.598632812 578.313476562 417.249023438 581.997070312 407.899414062 583.979492188 c 0
 398.548828125 585.962890625 389.340820312 586.955078125 380.274414062 586.955078125 c 0
304.623046875 303.904296875 m 1
 266.08984375 303.904296875 240.87109375 303.62109375 228.971679688 303.053710938 c 1
 210.271484375 211.8203125 197.23828125 146.9375 189.87109375 108.404296875 c 1
 195.538085938 108.404296875 205.030273438 108.6875 218.34765625 109.254882812 c 0
 231.6640625 109.821289062 242.005859375 110.104492188 249.373046875 110.104492188 c 0
 273.740234375 111.237304688 297.540039062 115.770507812 320.7734375 123.704101562 c 0
 344.005859375 131.63671875 363.556640625 141.12890625 379.422851562 152.178710938 c 0
 395.290039062 163.228515625 408.46484375 174.845703125 418.948242188 187.029296875 c 0
 429.431640625 199.211914062 436.088867188 210.404296875 438.921875 220.603515625 c 0
 440.622070312 227.970703125 439.34765625 235.337890625 435.09765625 242.705078125 c 0
 430.84765625 250.071289062 423.905273438 257.721679688 414.272460938 265.654296875 c 0
 404.639648438 273.587890625 390.331054688 280.955078125 371.34765625 287.754882812 c 0
 352.365234375 294.5546875 330.123046875 299.9375 304.623046875 303.904296875 c 1
EndSplineSet
Validated: 524289
EndChar

StartChar: C
Encoding: 67 67 46
Width: 550
VWidth: 903
GlyphClass: 2
Flags: HMW
HStem: 26.8663 76.5025<240.928 287.394> 590.419 68.8467<483.178 484.878>
VStem: 516.894 65.45
LayerCount: 2
Fore
SplineSet
479.495117188 107.618164062 m 0
 423.411132812 53.734375 350.255859375 26.791015625 260.028320312 26.791015625 c 0
 257.265625 26.791015625 254.48828125 26.8154296875 251.694335938 26.8662109375 c 0
 230.161132812 26.8662109375 210.752929688 30.8330078125 193.469726562 38.7666015625 c 0
 176.186523438 46.69921875 162.162109375 57.1826171875 151.39453125 70.2158203125 c 0
 140.627929688 83.248046875 132.127929688 98.40625 125.89453125 115.689453125 c 0
 119.662109375 132.97265625 116.26171875 151.389648438 115.6953125 170.939453125 c 0
 115.638671875 172.895507812 115.610351562 174.852539062 115.610351562 176.810546875 c 0
 115.610351562 194.430664062 117.905273438 212.165039062 122.495117188 230.014648438 c 0
 132.127929688 271.381835938 145.302734375 311.33203125 162.01953125 349.864257812 c 0
 178.737304688 388.397460938 197.436523438 423.248046875 218.120117188 454.415039062 c 0
 238.802734375 485.58203125 261.186523438 514.198242188 285.26953125 540.265625 c 0
 309.352539062 566.33203125 333.293945312 588.0078125 357.09375 605.290039062 c 0
 380.89453125 622.573242188 404.551757812 635.890625 428.069335938 645.240234375 c 0
 451.5859375 654.590820312 473.260742188 659.265625 493.09375 659.265625 c 0
 512.361328125 659.265625 529.64453125 656.998046875 544.944335938 652.465820312 c 1
 548.911132812 660.965820312 554.436523438 667.907226562 561.51953125 673.290039062 c 0
 568.602539062 678.673828125 576.110351562 681.6484375 584.04296875 682.215820312 c 0
 593.110351562 683.915039062 601.327148438 681.790039062 608.694335938 675.840820312 c 0
 616.061523438 669.890625 619.744140625 661.248046875 619.744140625 649.915039062 c 0
 619.744140625 641.415039062 619.176757812 633.057617188 618.043945312 624.840820312 c 0
 616.911132812 616.623046875 615.635742188 608.548828125 614.21875 600.615234375 c 0
 612.801757812 592.682617188 611.52734375 586.165039062 610.39453125 581.065429688 c 0
 609.260742188 575.965820312 607.84375 570.015625 606.14453125 563.215820312 c 0
 604.444335938 556.415039062 603.311523438 552.165039062 602.744140625 550.465820312 c 0
 599.911132812 538.565429688 593.111328125 526.5234375 582.34375 514.340820312 c 0
 571.577148438 502.157226562 561.66015625 495.499023438 552.59375 494.366210938 c 0
 550.619140625 494.037109375 548.6875 493.872070312 546.798828125 493.872070312 c 0
 538.92578125 493.872070312 531.791015625 496.728515625 525.393554688 502.44140625 c 0
 519.223632812 507.950195312 516.138671875 514.916992188 516.138671875 523.338867188 c 0
 516.138671875 525.74609375 516.390625 528.271484375 516.89453125 530.916015625 c 0
 518.02734375 535.44921875 521.426757812 547.349609375 527.09375 566.616210938 c 0
 526.52734375 567.18359375 524.40234375 569.025390625 520.71875 572.142578125 c 0
 517.036132812 575.258789062 514.34375 577.526367188 512.64453125 578.943359375 c 0
 510.944335938 580.360351562 508.251953125 582.202148438 504.569335938 584.46875 c 0
 500.885742188 586.735351562 497.34375 588.293945312 493.944335938 589.143554688 c 0
 490.543945312 589.994140625 486.861328125 590.418945312 482.89453125 590.418945312 c 0
 466.4609375 590.418945312 447.619140625 584.751953125 426.369140625 573.418945312 c 0
 405.119140625 562.0859375 383.444335938 545.935546875 361.34375 524.96875 c 0
 339.244140625 504.001953125 318.135742188 479.918945312 298.01953125 452.71875 c 0
 277.90234375 425.518554688 259.626953125 394.776367188 243.194335938 360.494140625 c 0
 226.760742188 326.2109375 214.861328125 291.786132812 207.494140625 257.21875 c 0
 204.059570312 242.107421875 202.341796875 227.203125 202.341796875 212.5078125 c 0
 202.341796875 202.95703125 203.067382812 193.494140625 204.518554688 184.119140625 c 0
 208.201171875 160.318359375 216.701171875 140.911132812 230.018554688 125.893554688 c 0
 243.334960938 110.876953125 259.626953125 103.369140625 278.89453125 103.369140625 c 0
 295.89453125 103.369140625 312.89453125 105.2109375 329.89453125 108.893554688 c 0
 346.89453125 112.577148438 362.477539062 117.393554688 376.64453125 123.34375 c 0
 390.811523438 129.293945312 403.278320312 135.244140625 414.044921875 141.193359375 c 0
 424.811523438 147.143554688 435.01171875 153.518554688 444.64453125 160.318359375 c 0
 452.578125 165.418945312 459.377929688 169.385742188 465.044921875 172.21875 c 0
 470.711914062 175.051757812 476.51953125 176.46875 482.469726562 176.46875 c 0
 488.419921875 176.46875 493.377929688 174.485351562 497.344726562 170.518554688 c 0
 503.115234375 164.749023438 505.999023438 158.3046875 505.999023438 151.186523438 c 0
 505.999023438 138.728515625 497.165039062 124.206054688 479.495117188 107.618164062 c 0
EndSplineSet
Validated: 524289
EndChar

StartChar: D
Encoding: 68 68 47
Width: 550
VWidth: 901
GlyphClass: 2
Flags: HMW
HStem: 24.8751 73.0983<308.35 318.269> 641.126 17G<255.368 264.151>
LayerCount: 2
Fore
SplineSet
307.501953125 24.875 m 0
 281.434570312 24.875 256.073242188 26.150390625 231.423828125 28.7001953125 c 0
 206.7734375 31.25 187.365234375 34.224609375 173.198242188 37.625 c 0
 159.03125 41.025390625 146.70703125 44.1416015625 136.223632812 46.974609375 c 0
 125.740234375 49.80859375 119.6484375 51.224609375 117.948242188 51.224609375 c 0
 107.181640625 51.224609375 99.3896484375 55.0498046875 94.5732421875 62.7001953125 c 0
 91.931640625 66.8955078125 90.6103515625 71.9853515625 90.6103515625 77.9697265625 c 0
 90.6103515625 82.8974609375 91.5068359375 88.43359375 93.2978515625 94.5751953125 c 0
 101.23046875 121.775390625 112.84765625 170.083007812 128.147460938 239.5 c 0
 143.448242188 308.916992188 159.314453125 384.141601562 175.748046875 465.174804688 c 0
 182.547851562 496.908203125 187.081054688 517.733398438 189.34765625 527.650390625 c 0
 191.614257812 537.567382812 195.58203125 553.008789062 201.249023438 573.975585938 c 0
 206.916015625 594.942382812 210.315429688 607.692382812 211.448242188 612.225585938 c 0
 215.416015625 627.526367188 221.932617188 639.000976562 230.999023438 646.651367188 c 0
 240.06640625 654.30078125 249.983398438 658.125976562 260.75 658.125976562 c 0
 267.549804688 658.125976562 276.049804688 657.55859375 286.25 656.42578125 c 0
 296.450195312 655.29296875 309.625 653.026367188 325.775390625 649.625976562 c 0
 341.924804688 646.225585938 358.075195312 641.55078125 374.225585938 635.600585938 c 0
 390.375 629.651367188 407.233398438 621.29296875 424.799804688 610.526367188 c 0
 442.3671875 599.758789062 458.517578125 587.291992188 473.25 573.125 c 0
 487.983398438 558.958007812 501.44140625 541.25 513.624023438 520 c 0
 525.807617188 498.75 535.157226562 475.516601562 541.674804688 450.299804688 c 0
 547.669921875 427.100585938 550.66796875 399.826171875 550.66796875 368.475585938 c 0
 550.66796875 365.747070312 550.645507812 362.989257812 550.599609375 360.200195312 c 0
 550.032226562 325.349609375 544.932617188 287.80859375 535.299804688 247.575195312 c 0
 530.766601562 227.7421875 523.68359375 207.625 514.049804688 187.224609375 c 0
 504.416992188 166.825195312 492.234375 146.849609375 477.500976562 127.299804688 c 0
 462.767578125 107.75 446.759765625 90.3251953125 429.4765625 75.025390625 c 0
 412.194335938 59.724609375 392.926757812 47.5419921875 371.676757812 38.474609375 c 0
 350.426757812 29.408203125 329.03515625 24.875 307.501953125 24.875 c 0
225.8984375 347.025390625 m 0
 220.798828125 322.658203125 213.291015625 285.965820312 203.374023438 236.948242188 c 0
 193.45703125 187.931640625 186.232421875 150.956054688 181.69921875 126.0234375 c 1
 200.966796875 115.823242188 221.791015625 108.598632812 244.174804688 104.348632812 c 0
 266.557617188 100.098632812 293.049804688 97.9736328125 323.649414062 97.9736328125 c 0
 338.3828125 97.9736328125 353.399414062 103.215820312 368.69921875 113.698242188 c 0
 383.999023438 124.181640625 397.8828125 137.78125 410.349609375 154.498046875 c 0
 422.81640625 171.215820312 433.866210938 189.631835938 443.499023438 209.749023438 c 0
 453.1328125 229.866210938 460.215820312 249.55859375 464.749023438 268.825195312 c 0
 471.176757812 296.928710938 474.390625 323.278320312 474.390625 347.872070312 c 0
 474.390625 416.506835938 449.359375 471.474609375 399.298828125 512.775390625 c 0
 374.931640625 532.608398438 338.098632812 553.0078125 288.798828125 573.974609375 c 1
 288.798828125 574.825195312 l 1
 287.948242188 574.825195312 l 1
 287.098632812 574.825195312 l 1
 286.249023438 575.674804688 l 1
 285.3984375 575.674804688 l 1
 284.548828125 576.525390625 l 1
 283.698242188 576.525390625 l 1
 282.848632812 576.525390625 l 1
 282.848632812 577.375 l 1
 281.999023438 577.375 l 1
 281.1484375 577.375 l 1
 280.298828125 578.224609375 l 1
 279.448242188 578.224609375 l 1
 278.598632812 578.224609375 l 1
 278.598632812 579.075195312 l 1
 259.8984375 505.408203125 242.33203125 428.05859375 225.8984375 347.025390625 c 0
EndSplineSet
Validated: 524289
EndChar

StartChar: E
Encoding: 69 69 48
Width: 550
VWidth: 901
GlyphClass: 2
Flags: HMW
HStem: 36.4771 74.3717 46.2504 76.9225 316.551 73.0991<227.415 262.835> 333.551 68.8491<494.599 521.801> 573.676 70.125
LayerCount: 2
Fore
SplineSet
439.064453125 46.25 m 0x48
 437.4140625 46.353515625 435.294921875 46.404296875 432.706054688 46.404296875 c 0
 421.072265625 46.404296875 399.959960938 45.36328125 369.3671875 43.27734375 c 0
 331.966796875 40.7265625 291.166992188 38.4599609375 246.966796875 36.4765625 c 0
 223.166015625 35.4091796875 202.323242188 34.875 184.4375 34.875 c 0
 169.108398438 34.875 155.951171875 35.267578125 144.966796875 36.0517578125 c 0
 133.067382812 36.619140625 122.583984375 42.994140625 113.517578125 55.1767578125 c 0
 105.881835938 65.435546875 102.064453125 77.6044921875 102.064453125 91.6826171875 c 0
 102.064453125 94.322265625 102.19921875 97.0283203125 102.466796875 99.8017578125 c 0
 104.166992188 114.53515625 109.409179688 141.02734375 118.192382812 179.27734375 c 0
 126.975585938 217.52734375 136.608398438 258.185546875 147.090820312 301.251953125 c 0
 157.57421875 344.319335938 168.19921875 392.768554688 178.965820312 446.6015625 c 0
 186.333007812 480.6015625 191.291015625 503.126953125 193.840820312 514.176757812 c 0
 196.391601562 525.2265625 200.499023438 541.518554688 206.166015625 563.051757812 c 0
 211.833007812 584.584960938 215.516601562 597.90234375 217.215820312 603.001953125 c 0
 221.18359375 618.301757812 227.700195312 629.918945312 236.767578125 637.8515625 c 0
 245.833984375 645.78515625 255.750976562 649.751953125 266.517578125 649.751953125 c 0
 267.264648438 649.782226562 267.997070312 649.796875 268.717773438 649.796875 c 0
 281.686523438 649.796875 290.5859375 644.96484375 295.41796875 635.301757812 c 1
 326.584960938 639.834960938 362.426757812 642.66796875 402.943359375 643.80078125 c 0
 423.202148438 644.368164062 442.255859375 644.651367188 460.106445312 644.651367188 c 0
 477.956054688 644.651367188 494.6015625 644.3671875 510.043945312 643.80078125 c 0
 540.926757812 642.66796875 565.151367188 640.967773438 582.71875 638.701171875 c 0
 594.619140625 637.000976562 602.551757812 633.6015625 606.518554688 628.500976562 c 0
 610.485351562 623.401367188 611.3359375 616.318359375 609.068359375 607.250976562 c 0
 607.935546875 602.151367188 606.377929688 597.333984375 604.39453125 592.80078125 c 0
 602.411132812 588.268554688 599.861328125 584.16015625 596.744140625 580.4765625 c 0
 593.627929688 576.793945312 589.51953125 573.819335938 584.419921875 571.551757812 c 0
 579.319335938 569.28515625 573.369140625 568.717773438 566.569335938 569.8515625 c 0
 530.662109375 572.7734375 494.29296875 574.235351562 457.462890625 574.235351562 c 0
 444.307617188 574.235351562 431.09375 574.048828125 417.8203125 573.67578125 c 0
 367.387695312 572.259765625 323.470703125 568.717773438 286.0703125 563.05078125 c 1
 270.203125 504.1171875 256.036132812 446.317382812 243.569335938 389.650390625 c 1xa8
 282.102539062 389.650390625 335.0859375 391.775390625 402.518554688 396.025390625 c 0
 469.952148438 400.275390625 507.634765625 402.400390625 515.568359375 402.400390625 c 0
 528.03515625 402.400390625 536.110351562 399.567382812 539.79296875 393.900390625 c 0
 543.475585938 388.233398438 544.18359375 380.30078125 541.916992188 370.100585938 c 0
 536.375976562 345.721679688 522.708984375 333.532226562 500.915039062 333.532226562 c 0
 500.419921875 333.532226562 499.919921875 333.5390625 499.416015625 333.55078125 c 0x18
 489.783203125 333.55078125 448.55859375 330.717773438 375.741210938 325.05078125 c 0
 302.924804688 319.384765625 253.482421875 316.55078125 227.415039062 316.55078125 c 1
 224.58203125 304.083984375 220.899414062 287.791992188 216.366210938 267.67578125 c 0
 211.833007812 247.55859375 208.0078125 230.275390625 204.891601562 215.825195312 c 0
 201.774414062 201.375 198.657226562 186.5 195.540039062 171.200195312 c 0
 192.423828125 155.900390625 190.15625 143.291992188 188.739257812 133.375 c 0
 187.322265625 123.458007812 186.897460938 116.516601562 187.46484375 112.549804688 c 1
 194.737304688 110.235351562 211.701171875 109.078125 238.35546875 109.078125 c 0
 257.391601562 109.078125 281.370117188 109.66796875 310.290039062 110.848632812 c 0xa8
 379.70703125 113.681640625 424.615234375 117.365234375 445.015625 121.897460938 c 0
 452.948242188 123.03125 459.606445312 123.456054688 464.989257812 123.172851562 c 0
 470.373046875 122.889648438 474.764648438 121.756835938 478.165039062 119.7734375 c 0
 481.564453125 117.791015625 484.114257812 115.666015625 485.814453125 113.3984375 c 0
 487.514648438 111.131835938 488.647460938 108.157226562 489.21484375 104.473632812 c 0
 489.78125 100.791015625 490.064453125 97.5322265625 490.064453125 94.69921875 c 0
 490.064453125 91.8662109375 489.78125 89.033203125 489.21484375 86.2001953125 c 0
 486.947265625 75.43359375 481.422851562 65.80078125 472.639648438 57.30078125 c 0
 464.889648438 49.80078125 455.264648438 46.05078125 443.763671875 46.05078125 c 0
 442.23046875 46.05078125 440.6640625 46.1171875 439.064453125 46.25 c 0x48
EndSplineSet
Validated: 524289
EndChar

StartChar: F
Encoding: 70 70 49
Width: 550
VWidth: 901
GlyphClass: 2
Flags: HMW
HStem: 320.584 73.1017 578.136 73.9491
LayerCount: 2
Fore
SplineSet
177.926757812 72.3837890625 m 0
 173.959960938 60.484375 166.452148438 50.9931640625 155.401367188 43.91015625 c 0
 145.170898438 37.3515625 134.818359375 34.072265625 124.344726562 34.072265625 c 0
 123.505859375 34.072265625 122.666992188 34.09375 121.827148438 34.1357421875 c 0
 111.059570312 34.1357421875 103.267578125 37.9609375 98.451171875 45.6103515625 c 0
 95.8095703125 49.8056640625 94.4892578125 54.8955078125 94.4892578125 60.8798828125 c 0
 94.4892578125 65.80859375 95.384765625 71.34375 97.17578125 77.4853515625 c 0
 104.54296875 102.418945312 116.017578125 150.161132812 131.600585938 220.7109375 c 0
 147.18359375 291.260742188 162.341796875 363.935546875 177.075195312 438.735351562 c 0
 185.0078125 476.702148438 190.533203125 502.202148438 193.650390625 515.235351562 c 0
 196.766601562 528.268554688 201.299804688 545.8359375 207.25 567.935546875 c 0
 213.200195312 590.036132812 217.307617188 605.052734375 219.575195312 612.985351562 c 0
 223.541992188 628.286132812 230.05859375 639.760742188 239.125976562 647.411132812 c 0
 248.192382812 655.060546875 258.109375 658.885742188 268.876953125 658.885742188 c 0
 270.279296875 658.993164062 271.638671875 659.047851562 272.954101562 659.047851562 c 0
 285.454101562 659.047851562 294.012695312 654.176757812 298.626953125 644.434570312 c 1
 351.327148438 648.401367188 404.026367188 650.952148438 456.7265625 652.084960938 c 0
 469.900390625 652.368164062 482.456054688 652.509765625 494.390625 652.509765625 c 0
 530.197265625 652.509765625 560.42578125 651.234375 585.077148438 648.684570312 c 0
 596.9765625 647.551757812 604.768554688 644.293945312 608.452148438 638.911132812 c 0
 612.134765625 633.52734375 613.126953125 626.01953125 611.426757812 616.38671875 c 0
 609.16015625 605.619140625 604.202148438 596.552734375 596.551757812 589.185546875 c 0
 588.901367188 581.818359375 578.559570312 578.135742188 565.526367188 578.135742188 c 0
 536.35546875 579.711914062 506.15625 580.500976562 474.927734375 580.500976562 c 0
 416.375976562 580.500976562 354.208984375 577.728515625 288.42578125 572.185546875 c 1
 286.159179688 562.552734375 282.192382812 547.110351562 276.525390625 525.860351562 c 0
 270.858398438 504.610351562 265.333007812 482.935546875 259.950195312 460.8359375 c 0
 254.567382812 438.735351562 249.325195312 416.352539062 244.224609375 393.685546875 c 1
 268.509765625 396.599609375 295.083984375 398.056640625 323.948242188 398.056640625 c 0
 328.759765625 398.056640625 333.635742188 398.016601562 338.575195312 397.935546875 c 0
 373.141601562 397.369140625 404.025390625 395.810546875 431.224609375 393.260742188 c 0
 458.424804688 390.7109375 479.958007812 388.018554688 495.825195312 385.185546875 c 0
 507.724609375 382.918945312 515.516601562 379.235351562 519.200195312 374.135742188 c 0
 522.8828125 369.036132812 523.875 361.952148438 522.174804688 352.885742188 c 0
 521.041992188 347.786132812 519.484375 343.110351562 517.500976562 338.860351562 c 0
 515.517578125 334.610351562 512.826171875 330.502929688 509.42578125 326.536132812 c 0
 506.025390625 322.568359375 501.91796875 319.59375 497.100585938 317.610351562 c 0
 492.284179688 315.627929688 486.475585938 314.919921875 479.67578125 315.486328125 c 0
 464.375976562 318.319335938 442.55859375 320.727539062 414.225585938 322.7109375 c 0
 385.892578125 324.693359375 353.734375 325.827148438 317.751953125 326.109375 c 0
 315.35546875 326.12890625 312.985351562 326.137695312 310.642578125 326.137695312 c 0
 277.814453125 326.137695312 250.291015625 324.287109375 228.077148438 320.583984375 c 1
 197.4765625 170.416992188 180.759765625 87.68359375 177.926757812 72.3837890625 c 0
EndSplineSet
Validated: 524289
EndChar

StartChar: G
Encoding: 71 71 50
Width: 550
VWidth: 901
GlyphClass: 2
Flags: HMW
HStem: 25.6229 76.4975<239.991 283.341> 598.522 68.8491<483.94 488.472>
LayerCount: 2
Fore
SplineSet
514.256835938 259.370117188 m 0
 510.2890625 247.470703125 503.772460938 233.58984375 494.706054688 217.72265625 c 0
 485.638671875 201.856445312 474.73046875 184.998046875 461.98046875 167.1484375 c 0
 449.23046875 149.297851562 434.638671875 132.014648438 418.206054688 115.297851562 c 0
 401.772460938 98.5810546875 384.772460938 83.4228515625 367.206054688 69.8232421875 c 0
 349.638671875 56.22265625 330.513671875 45.314453125 309.831054688 37.09765625 c 0
 290.482421875 29.4111328125 272.001953125 25.568359375 254.388671875 25.568359375 c 0
 253.173828125 25.568359375 251.962890625 25.5859375 250.755859375 25.623046875 c 0
 229.22265625 25.623046875 209.814453125 29.58984375 192.53125 37.5224609375 c 0
 175.248046875 45.4560546875 161.223632812 55.939453125 150.456054688 68.9716796875 c 0
 139.689453125 82.0048828125 131.189453125 97.1630859375 124.956054688 114.446289062 c 0
 118.723632812 131.729492188 115.323242188 150.146484375 114.756835938 169.696289062 c 0
 114.693359375 171.869140625 114.662109375 174.043945312 114.662109375 176.221679688 c 0
 114.662109375 193.625976562 116.676757812 211.142578125 120.706054688 228.771484375 c 0
 130.338867188 270.704101562 143.796875 311.50390625 161.080078125 351.170898438 c 0
 178.36328125 390.837890625 197.205078125 426.538085938 217.604492188 458.271484375 c 0
 238.004882812 490.00390625 260.387695312 519.045898438 284.754882812 545.396484375 c 0
 309.122070312 571.74609375 333.346679688 593.846679688 357.4296875 611.696289062 c 0
 381.512695312 629.545898438 405.3125 643.288085938 428.830078125 652.920898438 c 0
 452.346679688 662.5546875 474.021484375 667.37109375 493.854492188 667.37109375 c 0
 515.955078125 667.37109375 539.330078125 661.846679688 563.979492188 650.795898438 c 0
 588.629882812 639.74609375 603.788085938 630.25390625 609.455078125 622.321289062 c 0
 613.599609375 616.622070312 615.671875 610.153320312 615.671875 602.915039062 c 0
 615.671875 594.318359375 612.749023438 584.637695312 606.905273438 573.87109375 c 0
 603.504882812 566.50390625 597.413085938 561.12109375 588.629882812 557.721679688 c 0
 579.846679688 554.321289062 571.771484375 554.321289062 564.405273438 557.721679688 c 0
 561.571289062 558.854492188 555.196289062 563.104492188 545.280273438 570.471679688 c 0
 535.36328125 577.837890625 525.020507812 584.35546875 514.25390625 590.022460938 c 0
 503.487304688 595.689453125 493.287109375 598.522460938 483.654296875 598.522460938 c 0
 467.220703125 598.522460938 448.23828125 592.713867188 426.705078125 581.096679688 c 0
 405.171875 569.48046875 383.354492188 552.763671875 361.254882812 530.946289062 c 0
 339.155273438 509.12890625 317.905273438 484.337890625 297.504882812 456.5703125 c 0
 277.104492188 428.803710938 258.6875 397.353515625 242.254882812 362.220703125 c 0
 225.821289062 327.087890625 213.638671875 291.670898438 205.706054688 255.970703125 c 0
 202.270507812 240.859375 200.553710938 225.955078125 200.553710938 211.258789062 c 0
 200.553710938 201.708007812 201.279296875 192.245117188 202.729492188 182.870117188 c 0
 206.413085938 159.0703125 214.913085938 139.662109375 228.229492188 124.645507812 c 0
 241.546875 109.62890625 257.838867188 102.120117188 277.10546875 102.120117188 c 0
 289.572265625 102.120117188 303.59765625 106.512695312 319.180664062 115.295898438 c 0
 334.763671875 124.078125 349.497070312 135.270507812 363.379882812 148.870117188 c 0
 377.262695312 162.470703125 390.86328125 177.770507812 404.1796875 194.770507812 c 0
 417.497070312 211.770507812 429.11328125 228.203125 439.030273438 244.0703125 c 0
 448.947265625 259.9375 457.022460938 274.670898438 463.255859375 288.270507812 c 1
 429.822265625 286.5703125 396.672851562 283.453125 363.805664062 278.920898438 c 0
 330.938476562 274.387695312 307.706054688 268.4375 294.10546875 261.0703125 c 0
 289.2734375 258.655273438 284.823242188 257.446289062 280.754882812 257.446289062 c 0
 276.234375 257.446289062 272.184570312 258.938476562 268.60546875 261.920898438 c 0
 261.805664062 267.587890625 258.97265625 275.237304688 260.10546875 284.870117188 c 0
 261.805664062 306.403320312 275.688476562 323.120117188 301.755859375 335.020507812 c 0
 318.755859375 342.953125 352.331054688 349.045898438 402.48046875 353.295898438 c 0
 438.301757812 356.331054688 468.55859375 357.849609375 493.249023438 357.849609375 c 0
 503.125 357.849609375 512.110351562 357.606445312 520.206054688 357.120117188 c 0
 533.23828125 356.553710938 541.73828125 354.145507812 545.706054688 349.895507812 c 0
 549.672851562 345.645507812 551.373046875 338.987304688 550.805664062 329.920898438 c 0
 548.5390625 308.953125 540.0390625 295.920898438 525.305664062 290.8203125 c 0
 524.73828125 289.120117188 523.0390625 284.587890625 520.206054688 277.220703125 c 0
 517.373046875 269.853515625 515.389648438 263.903320312 514.256835938 259.370117188 c 0
EndSplineSet
Validated: 524289
EndChar

StartChar: H
Encoding: 72 72 51
Width: 550
VWidth: 901
GlyphClass: 2
Flags: HMW
HStem: 317.174 73.1009<240.208 271.941>
LayerCount: 2
Fore
SplineSet
473.109375 72.375 m 0
 469.142578125 60.474609375 461.77734375 50.982421875 451.009765625 43.8994140625 c 0
 441.041015625 37.3408203125 430.829101562 34.0615234375 420.375 34.0615234375 c 0
 419.538085938 34.0615234375 418.700195312 34.0830078125 417.860351562 34.125 c 0
 407.092773438 34.125 399.30078125 37.9501953125 394.484375 45.599609375 c 0
 391.842773438 49.794921875 390.522460938 54.8857421875 390.522460938 60.869140625 c 0
 390.522460938 65.7978515625 391.41796875 71.3330078125 393.208984375 77.474609375 c 0
 416.442382812 156.2421875 439.109375 244.641601562 461.208984375 342.674804688 c 1
 452.142578125 342.108398438 418.850585938 337.715820312 361.333007812 329.499023438 c 0
 303.81640625 321.282226562 263.44140625 317.173828125 240.208007812 317.173828125 c 0
 239.641601562 315.474609375 238.791992188 312.499023438 237.658203125 308.249023438 c 0
 236.525390625 303.999023438 235.67578125 301.024414062 235.108398438 299.32421875 c 0
 219.241210938 243.224609375 201.674804688 167.57421875 182.407226562 72.3740234375 c 0
 178.440429688 60.474609375 170.932617188 50.982421875 159.8828125 43.8994140625 c 0
 149.65234375 37.3408203125 139.541992188 34.0615234375 129.553710938 34.0615234375 c 0
 128.754882812 34.0615234375 127.955078125 34.0830078125 127.157226562 34.125 c 0
 116.958007812 34.125 109.166015625 37.9501953125 103.782226562 45.599609375 c 0
 100.860351562 49.7529296875 99.3994140625 54.7822265625 99.3994140625 60.689453125 c 0
 99.3994140625 65.662109375 100.435546875 71.2578125 102.5078125 77.474609375 c 0
 104.774414062 85.408203125 108.174804688 98.158203125 112.708007812 115.724609375 c 0
 117.240234375 133.291992188 122.907226562 156.80859375 129.708007812 186.275390625 c 0
 136.5078125 215.743164062 142.740234375 242.375976562 148.407226562 266.17578125 c 0
 152.940429688 285.442382812 159.8828125 313.067382812 169.232421875 349.05078125 c 0
 178.583007812 385.034179688 185.240234375 411.666992188 189.208007812 428.950195312 c 2
 207.057617188 506.724609375 l 2
 212.157226562 532.224609375 215.557617188 548.516601562 217.2578125 555.599609375 c 0
 218.958007812 562.682617188 221.5078125 572.458007812 224.907226562 584.924804688 c 2
 232.557617188 612.974609375 l 2
 236.524414062 628.275390625 243.182617188 639.75 252.532226562 647.400390625 c 0
 261.8828125 655.049804688 271.940429688 658.875 282.708007812 658.875 c 0
 283.588867188 658.916992188 284.455078125 658.938476562 285.303710938 658.938476562 c 0
 295.9140625 658.938476562 303.973632812 655.659179688 309.482421875 649.100585938 c 0
 313.268554688 644.59375 315.162109375 638.421875 315.162109375 630.586914062 c 0
 315.162109375 626.110351562 314.543945312 621.08984375 313.307617188 615.525390625 c 0
 312.174804688 609.859375 308.6328125 597.67578125 302.682617188 578.975585938 c 0
 296.732421875 560.275390625 292.057617188 542.993164062 288.657226562 527.125976562 c 0
 285.2578125 512.392578125 280.299804688 489.868164062 273.782226562 459.55078125 c 0
 267.265625 429.234375 262.0234375 406.141601562 258.056640625 390.275390625 c 1
 285.82421875 390.275390625 314.723632812 391.974609375 344.756835938 395.375 c 0
 374.790039062 398.775390625 401.990234375 402.174804688 426.356445312 405.575195312 c 0
 450.723632812 408.974609375 467.723632812 411.2421875 477.356445312 412.375 c 1
 477.923828125 416.341796875 478.916015625 422.150390625 480.333007812 429.799804688 c 0
 481.75 437.450195312 483.024414062 443.2578125 484.157226562 447.224609375 c 0
 492.090820312 482.358398438 497.190429688 505.590820312 499.458007812 516.923828125 c 0
 501.724609375 528.256835938 505.974609375 545.82421875 512.208007812 569.624023438 c 0
 518.440429688 593.423828125 522.407226562 607.874023438 524.107421875 612.974609375 c 0
 528.07421875 628.274414062 534.591796875 639.749023438 543.658203125 647.399414062 c 0
 552.725585938 655.048828125 562.642578125 658.874023438 573.409179688 658.874023438 c 0
 574.291015625 658.916015625 575.15625 658.9375 576.005859375 658.9375 c 0
 586.616210938 658.9375 594.674804688 655.658203125 600.184570312 649.099609375 c 0
 603.970703125 644.592773438 605.86328125 638.420898438 605.86328125 630.5859375 c 0
 605.86328125 626.109375 605.245117188 621.088867188 604.009765625 615.525390625 c 0
 601.7421875 604.7578125 596.359375 582.658203125 587.859375 549.224609375 c 0
 579.359375 515.791992188 572.134765625 486.466796875 566.184570312 461.25 c 0
 560.234375 436.033203125 552.159179688 399.625 541.958984375 352.025390625 c 0
 534.026367188 312.358398438 521.559570312 260.224609375 504.559570312 195.625 c 0
 487.559570312 131.025390625 477.076171875 89.9423828125 473.109375 72.375 c 0
EndSplineSet
Validated: 524289
EndChar

StartChar: I
Encoding: 73 73 52
Width: 550
VWidth: 902
GlyphClass: 2
Flags: HMW
HStem: 40.327 68.0008 46.7011 66.2991 572.426 75.6509 583.477 70.5491<249.987 272.654 265.571 272.654 265.571 371.253>
LayerCount: 2
Fore
SplineSet
447.759765625 42.875 m 0x60
 434.7265625 45.142578125 412.7578125 46.41796875 381.875 46.701171875 c 0x60
 375.701171875 46.7578125 369.545898438 46.7861328125 363.40625 46.7861328125 c 0
 338.833007812 46.7861328125 314.530273438 46.3330078125 290.500976562 45.42578125 c 0
 260.467773438 44.29296875 228.734375 43.16015625 195.301757812 42.02734375 c 0
 161.868164062 40.8935546875 138.635742188 40.3271484375 125.602539062 40.3271484375 c 0
 112.001953125 40.3271484375 102.510742188 43.16015625 97.126953125 48.8271484375 c 0
 91.744140625 54.494140625 90.1865234375 61.8603515625 92.453125 70.927734375 c 0
 94.1533203125 81.1279296875 98.9697265625 89.76953125 106.903320312 96.8525390625 c 0
 114.8359375 103.935546875 125.603515625 107.760742188 139.203125 108.328125 c 0
 161.870117188 109.4609375 200.969726562 110.877929688 256.502929688 112.578125 c 1
 284.270507812 209.477539062 309.487304688 312.044921875 332.154296875 420.27734375 c 0
 336.12109375 440.677734375 340.229492188 459.944335938 344.479492188 478.078125 c 0
 348.729492188 496.2109375 351.704101562 509.244140625 353.404296875 517.176757812 c 0
 355.104492188 525.110351562 358.362304688 537.434570312 363.178710938 554.15234375 c 0
 367.99609375 570.869140625 370.6875 580.643554688 371.254882812 583.4765625 c 1
 347.455078125 584.04296875 325.9921875 584.327148438 306.8671875 584.327148438 c 0
 287.7421875 584.327148438 270.955078125 584.04296875 256.504882812 583.4765625 c 0
 243.471679688 583.4765625 234.263671875 586.59375 228.880859375 592.827148438 c 0
 223.498046875 599.059570312 221.655273438 606.993164062 223.35546875 616.625976562 c 0
 225.055664062 626.826171875 230.155273438 635.609375 238.655273438 642.9765625 c 0
 247.155273438 650.342773438 258.48828125 654.026367188 272.655273438 654.026367188 c 0x90
 317.047851562 655.348632812 358.165039062 656.009765625 396.008789062 656.009765625 c 0
 471.685546875 656.009765625 534.268554688 653.365234375 583.755859375 648.077148438 c 0
 603.046875 646.147460938 612.692382812 637.446289062 612.692382812 621.97265625 c 0
 612.692382812 619.263671875 612.396484375 616.348632812 611.805664062 613.2265625 c 0
 610.672851562 608.125976562 608.831054688 603.16796875 606.280273438 598.3515625 c 0
 603.73046875 593.534179688 600.61328125 588.859375 596.930664062 584.326171875 c 0
 593.248046875 579.79296875 588.572265625 576.250976562 582.905273438 573.701171875 c 0
 577.23828125 571.151367188 571.005859375 570.7265625 564.206054688 572.42578125 c 0
 549.47265625 575.258789062 511.790039062 578.375976562 451.15625 581.776367188 c 1
 450.0234375 577.243164062 446.765625 564.493164062 441.3828125 543.526367188 c 0
 435.999023438 522.559570312 431.749023438 505.841796875 428.6328125 493.375 c 0
 425.515625 480.908203125 421.407226562 463.05859375 416.307617188 439.825195312 c 0
 411.20703125 416.591796875 406.107421875 393.642578125 401.0078125 370.975585938 c 0
 392.5078125 330.7421875 380.465820312 280.591796875 364.8828125 220.525390625 c 0
 349.298828125 160.458007812 340.090820312 124.758789062 337.2578125 113.424804688 c 1
 360.491210938 113.424804688 386.840820312 113.283203125 416.30859375 113 c 0
 445.775390625 112.716796875 461.641601562 112.575195312 463.909179688 112.575195312 c 0
 476.375976562 112.575195312 484.30859375 109.600585938 487.708984375 103.650390625 c 0
 491.109375 97.7001953125 491.958984375 89.908203125 490.258789062 80.275390625 c 0
 489.125976562 75.1748046875 487.708984375 70.5 486.008789062 66.25 c 0
 484.30859375 62 481.758789062 57.75 478.359375 53.5 c 0
 474.958984375 49.25 470.567382812 46.1337890625 465.18359375 44.150390625 c 0
 459.80078125 42.1669921875 453.993164062 41.7421875 447.759765625 42.875 c 0x60
EndSplineSet
Validated: 524289
EndChar

StartChar: J
Encoding: 74 74 53
Width: 550
VWidth: 900
GlyphClass: 2
Flags: HMW
HStem: 20.8991 85.8509<266.816 273.05> 581.9 70.5491<252.083 273.9>
VStem: 119.2 74.3758 130.25 65.45
LayerCount: 2
Fore
SplineSet
406.498046875 233.399414062 m 0xe0
 390.630859375 182.399414062 374.908203125 141.032226562 359.325195312 109.298828125 c 0
 343.7421875 77.56640625 328.299804688 54.8994140625 313 41.298828125 c 0
 297.700195312 27.69921875 281.549804688 20.8994140625 264.549804688 20.8994140625 c 0
 246.416992188 20.8994140625 229.700195312 24.298828125 214.399414062 31.0986328125 c 0
 199.099609375 37.8994140625 186.208007812 46.9658203125 175.724609375 58.298828125 c 0
 165.2421875 69.6318359375 156.033203125 81.95703125 148.100585938 95.2744140625 c 0
 140.16796875 108.590820312 134.075195312 121.908203125 129.825195312 135.224609375 c 0
 125.575195312 148.541992188 122.600585938 160.44140625 120.900390625 170.924804688 c 0
 119.200195312 181.408203125 118.633789062 189.765625 119.200195312 195.999023438 c 0xe0
 119.200195312 201.098632812 120.333984375 207.19140625 122.600585938 214.274414062 c 0
 124.8671875 221.357421875 127.41796875 228.015625 130.250976562 234.248046875 c 0
 133.083984375 240.481445312 137.475585938 246.005859375 143.42578125 250.823242188 c 0
 149.375976562 255.640625 156.600585938 258.615234375 165.100585938 259.748046875 c 0
 168.123046875 260.297851562 170.9375 260.572265625 173.543945312 260.572265625 c 0
 181.6875 260.572265625 187.797851562 257.889648438 191.875976562 252.524414062 c 0
 195.40234375 247.8828125 197.166015625 242.452148438 197.166015625 236.229492188 c 0
 197.166015625 232.955078125 196.677734375 229.461914062 195.700195312 225.749023438 c 0xd0
 195.65625 225.5 193.534179688 213.521484375 193.534179688 200.549804688 c 0
 193.534179688 192.388671875 194.681640625 183.080078125 196.9765625 172.625 c 0
 199.526367188 161.0078125 203.493164062 150.3828125 208.875976562 140.75 c 0
 214.259765625 131.1171875 222.6171875 123.041992188 233.950195312 116.524414062 c 0
 245.283203125 110.0078125 258.883789062 106.75 274.750976562 106.75 c 0
 293.450195312 106.75 315.833984375 156.049804688 341.900390625 254.649414062 c 0
 344.733398438 267.1171875 353.375976562 307.06640625 367.825195312 374.5 c 0
 382.275390625 441.932617188 398.000976562 510.783203125 415.000976562 581.049804688 c 1
 379.981445312 582.0703125 347.206054688 582.580078125 316.674804688 582.580078125 c 0
 296.319335938 582.580078125 276.9609375 582.353515625 258.600585938 581.899414062 c 0
 245.567382812 581.899414062 236.217773438 585.016601562 230.55078125 591.25 c 0
 224.883789062 597.483398438 223.18359375 605.416015625 225.450195312 615.048828125 c 0
 227.150390625 625.249023438 232.392578125 634.032226562 241.17578125 641.399414062 c 0
 249.958984375 648.765625 260.8671875 652.44921875 273.899414062 652.44921875 c 0
 318.291992188 653.771484375 359.44140625 654.432617188 397.346679688 654.432617188 c 0
 473.151367188 654.432617188 535.984375 651.788085938 585.849609375 646.5 c 0
 605.140625 644.5703125 614.786132812 635.869140625 614.786132812 620.395507812 c 0
 614.786132812 617.6875 614.491210938 614.771484375 613.899414062 611.649414062 c 0
 612.766601562 606.548828125 610.924804688 601.590820312 608.375 596.774414062 c 0
 605.825195312 591.95703125 602.56640625 587.282226562 598.599609375 582.749023438 c 0
 594.6328125 578.215820312 589.815429688 574.673828125 584.149414062 572.124023438 c 0
 578.482421875 569.57421875 572.532226562 569.149414062 566.298828125 570.848632812 c 0
 548.732421875 573.681640625 520.96484375 576.232421875 482.998046875 578.499023438 c 1
 479.03125 562.06640625 473.7890625 537.1328125 467.272460938 503.700195312 c 0
 460.754882812 470.266601562 454.805664062 439.80859375 449.421875 412.326171875 c 0
 444.0390625 384.842773438 437.380859375 354.2421875 429.448242188 320.525390625 c 0
 421.514648438 286.80859375 413.865234375 257.766601562 406.498046875 233.399414062 c 0xe0
EndSplineSet
Validated: 524289
EndChar

StartChar: K
Encoding: 75 75 54
Width: 550
VWidth: 901
GlyphClass: 2
Flags: W
LayerCount: 2
Fore
SplineSet
180.575195312 72.375 m 0
 176.608398438 60.474609375 169.100585938 50.9814453125 158.05078125 43.8974609375 c 0
 147.8203125 37.33984375 137.466796875 34.060546875 126.993164062 34.060546875 c 0
 126.155273438 34.060546875 125.315429688 34.0810546875 124.475585938 34.1240234375 c 0
 113.708984375 34.1240234375 105.916992188 37.94921875 101.099609375 45.5986328125 c 0
 98.4580078125 49.7939453125 97.1376953125 54.8837890625 97.1376953125 60.8681640625 c 0
 97.1376953125 65.7958984375 98.033203125 71.33203125 99.8251953125 77.4736328125 c 0
 107.19140625 102.407226562 118.80859375 150.1484375 134.67578125 220.69921875 c 0
 150.54296875 291.249023438 165.842773438 363.923828125 180.575195312 438.723632812 c 0
 187.942382812 474.990234375 193.04296875 499.499023438 195.875976562 512.249023438 c 0
 198.708984375 524.999023438 203.383789062 543.416015625 209.900390625 567.499023438 c 0
 216.41796875 591.58203125 220.525390625 606.740234375 222.225585938 612.97265625 c 0
 226.192382812 628.272460938 232.708984375 639.748046875 241.776367188 647.397460938 c 0
 250.84375 655.047851562 260.760742188 658.873046875 271.52734375 658.873046875 c 0
 272.409179688 658.915039062 273.274414062 658.935546875 274.124023438 658.935546875 c 0
 284.733398438 658.935546875 292.79296875 655.657226562 298.301757812 649.098632812 c 0
 302.087890625 644.591796875 303.981445312 638.419921875 303.981445312 630.584960938 c 0
 303.981445312 626.108398438 303.36328125 621.087890625 302.126953125 615.5234375 c 0
 299.293945312 601.923828125 291.926757812 572.173828125 280.02734375 526.2734375 c 0
 268.126953125 480.374023438 258.494140625 442.407226562 251.126953125 412.374023438 c 1
 274.926757812 432.20703125 310.626953125 462.240234375 358.227539062 502.47265625 c 0
 405.827148438 542.706054688 443.510742188 574.581054688 471.27734375 598.09765625 c 0
 499.043945312 621.615234375 516.89453125 636.20703125 524.827148438 641.874023438 c 0
 533.89453125 649.240234375 542.111328125 654.19921875 549.478515625 656.749023438 c 0
 556.844726562 659.298828125 562.936523438 659.865234375 567.75390625 658.44921875 c 0
 572.571289062 657.032226562 576.678710938 654.056640625 580.079101562 649.5234375 c 0
 583.088867188 644.840820312 584.59375 639.814453125 584.59375 634.44140625 c 0
 584.59375 621.606445312 576.005859375 606.80078125 558.829101562 590.0234375 c 0
 548.62890625 579.82421875 513.63671875 548.798828125 453.853515625 496.94921875 c 0
 394.071289062 445.098632812 341.228515625 399.907226562 295.329101562 361.374023438 c 1
 308.362304688 340.973632812 331.311523438 309.098632812 364.178710938 265.749023438 c 0
 397.045898438 222.3984375 425.520507812 184.291015625 449.603515625 151.423828125 c 0
 464.7109375 130.806640625 487.517578125 99.681640625 487.517578125 86.0107421875 c 0
 487.517578125 76.5908203125 485.36328125 68.0791015625 481.052734375 60.4736328125 c 0
 476.236328125 51.9736328125 470.14453125 45.45703125 462.77734375 40.923828125 c 0
 455.123046875 36.166015625 448.03515625 33.787109375 441.512695312 33.787109375 c 0
 430.170898438 33.787109375 420.541992188 40.982421875 412.625976562 55.375 c 0
 408.659179688 62.7412109375 394.3515625 82.2919921875 369.701171875 114.024414062 c 0
 345.051757812 145.7578125 318.41796875 180.75 289.801757812 219 c 0
 261.184570312 257.25 240.642578125 287.708007812 228.17578125 310.375 c 1
 223.92578125 293.375 l 2
 222.225585938 283.741210938 207.775390625 210.07421875 180.575195312 72.375 c 0
EndSplineSet
Validated: 524289
EndChar

StartChar: L
Encoding: 76 76 55
Width: 550
VWidth: 901
GlyphClass: 2
Flags: HMW
HStem: 44.1757 68.8525
LayerCount: 2
Fore
SplineSet
450.504882812 60.330078125 m 0
 413.104492188 52.962890625 357.577148438 47.576171875 283.91015625 44.17578125 c 0
 210.243164062 40.775390625 156.41015625 39.076171875 122.41015625 39.076171875 c 0
 111.642578125 39.076171875 103.850585938 42.900390625 99.0341796875 50.55078125 c 0
 96.392578125 54.74609375 95.072265625 59.8359375 95.072265625 65.8203125 c 0
 95.072265625 70.748046875 95.9677734375 76.2841796875 97.7587890625 82.42578125 c 0
 98.8916015625 86.958984375 109.375 119.400390625 129.208007812 179.750976562 c 0
 149.041015625 240.100585938 166.891601562 298.326171875 182.7578125 354.42578125 c 0
 190.125 379.92578125 201.174804688 426.67578125 215.908203125 494.67578125 c 0
 230.641601562 562.67578125 238.57421875 599.508789062 239.70703125 605.17578125 c 0
 243.673828125 620.475585938 250.33203125 632.092773438 259.682617188 640.025390625 c 0
 269.032226562 647.958984375 278.807617188 651.92578125 289.006835938 651.92578125 c 0
 289.888671875 651.967773438 290.755859375 651.989257812 291.606445312 651.989257812 c 0
 302.235351562 651.989257812 310.435546875 648.709960938 316.20703125 642.151367188 c 0
 320.016601562 637.823242188 321.920898438 631.9609375 321.920898438 624.563476562 c 0
 321.920898438 619.85546875 321.149414062 614.52734375 319.606445312 608.576171875 c 0
 315.639648438 592.143554688 309.97265625 569.760742188 302.60546875 541.427734375 c 0
 295.23828125 513.094726562 285.888671875 477.39453125 274.555664062 434.327148438 c 0
 263.22265625 391.260742188 253.58984375 353.860351562 245.65625 322.126953125 c 0
 239.423828125 298.327148438 229.365234375 263.760742188 215.482421875 218.427734375 c 0
 201.599609375 173.094726562 191.82421875 137.9609375 186.157226562 113.028320312 c 1
 190.001953125 112.979492188 193.90625 112.954101562 197.868164062 112.954101562 c 0
 239.461914062 112.954101562 287.549804688 115.670898438 342.131835938 121.103515625 c 0
 401.915039062 127.052734375 442.290039062 132.861328125 463.256835938 138.528320312 c 0
 470.057617188 140.228515625 475.724609375 139.9453125 480.256835938 137.677734375 c 0
 484.790039062 135.411132812 488.048828125 132.01171875 490.03125 127.478515625 c 0
 492.014648438 122.9453125 493.147460938 117.987304688 493.430664062 112.604492188 c 0
 493.713867188 107.220703125 493.571289062 102.262695312 493.004882812 97.7294921875 c 0
 490.73828125 87.5302734375 486.48828125 79.3125 480.254882812 73.080078125 c 0
 474.021484375 66.8466796875 464.104492188 62.5966796875 450.504882812 60.330078125 c 0
EndSplineSet
Validated: 524289
EndChar

StartChar: M
Encoding: 77 77 56
Width: 550
VWidth: 902
GlyphClass: 2
Flags: HMW
HStem: 43.5819 17.85G<103.238 108.338>
VStem: 247.735 82.4509 432.185 75.6509
LayerCount: 2
Fore
SplineSet
154.236328125 102.2265625 m 0
 150.836914062 84.09375 144.037109375 69.7900390625 133.837890625 59.306640625 c 0
 123.637695312 48.82421875 113.4375 43.58203125 103.237304688 43.58203125 c 0
 90.6435546875 43.9638671875 84.3466796875 53.5986328125 84.3466796875 72.4853515625 c 0
 84.3466796875 81.642578125 85.826171875 92.974609375 88.787109375 106.482421875 c 0
 90.4873046875 113.282226562 94.029296875 124.899414062 99.412109375 141.333007812 c 0
 104.795898438 157.765625 111.737304688 179.298828125 120.237304688 205.931640625 c 0
 128.737304688 232.564453125 136.104492188 255.797851562 142.337890625 275.630859375 c 0
 144.037109375 282.430664062 147.154296875 292.9140625 151.6875 307.081054688 c 0
 164.154296875 349.013671875 174.212890625 381.739257812 181.862304688 405.255859375 c 0
 189.512695312 428.7734375 199.004882812 458.09765625 210.337890625 493.231445312 c 0
 221.670898438 528.364257812 231.303710938 555.989257812 239.236328125 576.106445312 c 0
 247.169921875 596.22265625 253.969726562 610.248046875 259.63671875 618.180664062 c 0
 267.569335938 630.081054688 277.76953125 638.72265625 290.236328125 644.106445312 c 0
 300.53515625 648.552734375 309.868164062 650.776367188 318.232421875 650.776367188 c 0
 319.994140625 650.776367188 321.711914062 650.677734375 323.38671875 650.481445312 c 0
 347.186523438 650.481445312 359.086914062 639.998046875 359.086914062 619.03125 c 0
 359.137695312 616.763671875 359.1640625 614.361328125 359.1640625 611.82421875 c 0
 359.1640625 586.46484375 356.587890625 547.641601562 351.436523438 495.356445312 c 0
 345.76953125 437.838867188 338.40234375 372.247070312 329.3359375 298.580078125 c 0
 320.268554688 224.913085938 314.319335938 176.180664062 311.486328125 152.379882812 c 1
 335.286132812 232.280273438 357.953125 304.247070312 379.486328125 368.280273438 c 0
 394.786132812 415.313476562 412.069335938 462.629882812 431.3359375 510.23046875 c 0
 450.602539062 557.830078125 466.185546875 594.096679688 478.0859375 619.030273438 c 0
 482.052734375 627.530273438 488.002929688 634.471679688 495.935546875 639.85546875 c 0
 503.869140625 645.23828125 511.518554688 648.49609375 518.885742188 649.62890625 c 0
 526.252929688 650.762695312 533.3359375 651.045898438 540.135742188 650.478515625 c 2
 543.536132812 650.478515625 l 1
 554.161132812 650.478515625 l 2
 556.7109375 650.478515625 560.252929688 649.770507812 564.786132812 648.353515625 c 0
 569.319335938 646.936523438 572.861328125 645.094726562 575.411132812 642.828125 c 0
 577.9609375 640.560546875 580.0859375 637.018554688 581.786132812 632.202148438 c 0
 583.486328125 627.384765625 584.052734375 621.577148438 583.486328125 614.77734375 c 0
 581.786132812 597.77734375 568.752929688 514.759765625 544.385742188 365.7265625 c 0
 520.018554688 216.693359375 507.8359375 132.543945312 507.8359375 113.27734375 c 0
 507.268554688 79.27734375 496.501953125 57.744140625 475.53515625 48.6767578125 c 0
 470.354492188 46.60546875 465.499023438 45.568359375 460.969726562 45.568359375 c 0
 455.590820312 45.568359375 450.670898438 47.0302734375 446.209960938 49.9521484375 c 0
 437.993164062 55.3349609375 433.318359375 67.0927734375 432.184570312 85.2255859375 c 0
 432.1015625 86.6318359375 432.05859375 88.2138671875 432.05859375 89.9697265625 c 0
 432.05859375 135.625976562 460.434570312 299.51171875 517.184570312 581.626953125 c 1
 483.184570312 499.459960938 456.267578125 424.66015625 436.434570312 357.2265625 c 0
 416.6015625 292.626953125 395.91796875 231.28515625 374.384765625 173.202148438 c 0
 352.8515625 115.119140625 338.119140625 79.560546875 330.185546875 66.52734375 c 0
 321.119140625 52.927734375 304.685546875 46.1279296875 280.885742188 46.1279296875 c 0
 270.119140625 45.560546875 261.90234375 47.2607421875 256.235351562 51.2275390625 c 0
 250.568359375 55.1943359375 247.735351562 60.861328125 247.735351562 68.228515625 c 0
 247.735351562 95.4287109375 251.702148438 157.903320312 259.634765625 255.653320312 c 0
 267.568359375 353.403320312 275.78515625 447.045898438 284.28515625 536.578125 c 1
 265.16015625 475.37890625 l 2
 258.077148438 452.711914062 252.126953125 433.01953125 247.309570312 416.302734375 c 0
 242.493164062 399.5859375 235.268554688 374.793945312 225.634765625 341.926757812 c 0
 216.001953125 309.059570312 208.634765625 284.126953125 203.53515625 267.126953125 c 0
 196.735351562 243.327148438 189.368164062 218.818359375 181.434570312 193.6015625 c 0
 173.501953125 168.384765625 167.268554688 148.551757812 162.736328125 134.1015625 c 0
 158.203125 119.65234375 155.370117188 109.02734375 154.236328125 102.2265625 c 0
EndSplineSet
Validated: 524289
EndChar

StartChar: N
Encoding: 78 78 57
Width: 550
VWidth: 901
GlyphClass: 2
Flags: W
LayerCount: 2
Fore
SplineSet
418.729492188 39.916015625 m 0
 408.529296875 39.3486328125 400.731445312 41.1884765625 395.348632812 45.4384765625 c 0
 389.965820312 49.6884765625 386.708007812 55.49609375 385.57421875 62.86328125 c 0
 383.307617188 74.1962890625 376.365234375 99.1298828125 364.749023438 137.662109375 c 0
 353.131835938 176.1953125 341.231445312 216.287109375 329.048828125 257.9375 c 0
 316.865234375 299.587890625 304.682617188 346.1953125 292.5 397.762695312 c 0
 280.31640625 449.329101562 272.524414062 493.24609375 269.125 529.513671875 c 1
 257.791992188 467.74609375 245.608398438 410.229492188 232.575195312 356.962890625 c 0
 219.541992188 303.6953125 205.80078125 249.4375 191.350585938 194.1875 c 0
 176.900390625 138.9375 168.541992188 105.362304688 166.275390625 93.462890625 c 0
 162.875 75.3291015625 156.5 62.0126953125 147.150390625 53.5126953125 c 0
 138.384765625 45.5439453125 128.997070312 41.5595703125 118.986328125 41.5595703125 c 0
 118.319335938 41.5595703125 117.6484375 41.5771484375 116.975585938 41.6123046875 c 0
 106.208007812 41.6123046875 99.9755859375 46.4296875 98.275390625 56.0625 c 0
 97.765625 58.953125 97.509765625 62.2509765625 97.509765625 65.95703125 c 0
 97.509765625 74.603515625 98.8984375 85.47265625 101.67578125 98.5625 c 0
 103.942382812 109.895507812 114.708984375 153.8125 133.9765625 230.3125 c 0
 153.243164062 306.8125 169.959960938 373.6796875 184.126953125 430.912109375 c 0
 198.293945312 488.145507812 210.477539062 543.112304688 220.676757812 595.8125 c 0
 222.376953125 607.145507812 225.77734375 616.778320312 230.876953125 624.711914062 c 0
 235.977539062 632.64453125 241.926757812 638.453125 248.727539062 642.135742188 c 0
 255.52734375 645.819335938 262.327148438 648.369140625 269.126953125 649.786132812 c 0
 275.926757812 651.203125 282.444335938 651.344726562 288.676757812 650.211914062 c 0
 311.91015625 650.211914062 324.092773438 639.728515625 325.2265625 618.76171875 c 0
 327.493164062 581.361328125 342.084960938 512.51171875 369.001953125 412.211914062 c 0
 395.918945312 311.912109375 419.577148438 230.87890625 439.977539062 169.111328125 c 1
 454.143554688 222.37890625 472.560546875 299.870117188 495.227539062 401.587890625 c 0
 517.89453125 503.3046875 530.927734375 570.3125 534.328125 602.612304688 c 0
 536.028320312 616.212890625 541.26953125 627.6875 550.052734375 637.037109375 c 0
 558.8359375 646.387695312 568.328125 651.0625 578.528320312 651.0625 c 0
 584.1953125 651.0625 589.01171875 650.354492188 592.978515625 648.9375 c 0
 596.9453125 647.520507812 599.920898438 645.8203125 601.903320312 643.837890625 c 0
 603.88671875 641.854492188 605.162109375 638.596679688 605.728515625 634.063476562 c 0
 606.295898438 629.530273438 606.4375 625.421875 606.154296875 621.739257812 c 0
 605.87109375 618.055664062 605.446289062 612.248046875 604.879882812 604.315429688 c 0
 604.3125 595.248046875 594.6796875 549.7734375 575.979492188 467.889648438 c 0
 557.279296875 386.006835938 536.737304688 301.1484375 514.354492188 213.315429688 c 0
 491.971679688 125.482421875 476.24609375 74.765625 467.1796875 61.166015625 c 0
 458.6796875 46.9990234375 442.529296875 39.916015625 418.729492188 39.916015625 c 0
EndSplineSet
Validated: 524289
EndChar

StartChar: O
Encoding: 79 79 58
Width: 550
VWidth: 902
GlyphClass: 2
Flags: HMW
HStem: 31.6499 71.3983<263.809 264.663> 593.497 68.8509<424.461 434.377>
LayerCount: 2
Fore
SplineSet
253.895507812 31.6494140625 m 0
 221.595703125 32.216796875 194.958984375 42.83984375 173.9921875 63.5234375 c 0
 153.025390625 84.2060546875 139.567382812 111.973632812 133.6171875 146.823242188 c 0
 131.424804688 159.663085938 130.329101562 172.944335938 130.329101562 186.668945312 c 0
 130.329101562 210.1953125 133.549804688 235.021484375 139.9921875 261.1484375 c 0
 140.559570312 263.981445312 141.692382812 268.797851562 143.392578125 275.598632812 c 0
 149.059570312 301.098632812 153.875976562 321.498046875 157.842773438 336.797851562 c 0
 161.810546875 352.098632812 167.618164062 372.498046875 175.268554688 397.998046875 c 0
 182.91796875 423.498046875 191.560546875 447.723632812 201.193359375 470.672851562 c 0
 210.826171875 493.623046875 221.592773438 515.297851562 233.493164062 535.698242188 c 0
 255.592773438 572.53125 286.05078125 602.848632812 324.868164062 626.6484375 c 0
 363.685546875 650.448242188 403.77734375 662.348632812 445.143554688 662.348632812 c 0
 466.111328125 662.348632812 485.377929688 657.956054688 502.944335938 649.172851562 c 0
 520.51171875 640.389648438 535.103515625 627.782226562 546.720703125 611.348632812 c 0
 558.337890625 594.916015625 566.270507812 573.94921875 570.520507812 548.44921875 c 0
 572.577148438 536.110351562 573.60546875 523.041992188 573.60546875 509.244140625 c 0
 573.60546875 494.526367188 572.435546875 478.977539062 570.095703125 462.598632812 c 0
 565.5625 434.265625 559.754882812 403.94921875 552.671875 371.649414062 c 0
 545.588867188 339.348632812 537.088867188 306.624023438 527.171875 273.473632812 c 0
 517.254882812 240.32421875 507.762695312 214.116210938 498.6953125 194.848632812 c 0
 486.228515625 168.215820312 472.62890625 145.265625 457.895507812 125.999023438 c 0
 443.162109375 106.732421875 428.287109375 91.0068359375 413.270507812 78.82421875 c 0
 398.25390625 66.640625 381.961914062 57.0078125 364.39453125 49.9248046875 c 0
 346.828125 42.841796875 329.403320312 38.0244140625 312.120117188 35.474609375 c 0
 294.836914062 32.9248046875 275.428710938 31.6494140625 253.895507812 31.6494140625 c 0
270.041992188 103.047851562 m 0
 284.208984375 103.047851562 298.375976562 104.889648438 312.54296875 108.573242188 c 0
 326.709960938 112.255859375 340.592773438 118.206054688 354.193359375 126.422851562 c 0
 367.79296875 134.640625 380.967773438 145.547851562 393.717773438 159.1484375 c 0
 406.467773438 172.748046875 417.375976562 188.615234375 426.443359375 206.748046875 c 0
 429.842773438 214.115234375 435.935546875 231.115234375 444.717773438 257.748046875 c 0
 453.500976562 284.380859375 462.708984375 316.114257812 472.342773438 352.947265625 c 0
 481.975585938 389.780273438 489.625 426.046875 495.291992188 461.747070312 c 0
 496.934570312 472.587890625 497.755859375 482.91796875 497.755859375 492.735351562 c 0
 497.755859375 516.786132812 492.827148438 537.764648438 482.967773438 555.671875 c 0
 469.084960938 580.889648438 448.259765625 593.497070312 420.493164062 593.497070312 c 0
 392.16015625 593.497070312 365.810546875 582.305664062 341.443359375 559.921875 c 0
 317.076171875 537.5390625 295.826171875 506.231445312 277.693359375 465.998046875 c 0
 253.326171875 412.165039062 234.059570312 348.415039062 219.892578125 274.748046875 c 0
 216.4921875 256.615234375 214.083984375 239.8984375 212.666992188 224.598632812 c 0
 211.78125 215.036132812 211.338867188 205.473632812 211.338867188 195.912109375 c 0
 211.338867188 190.173828125 211.499023438 184.436523438 211.817382812 178.698242188 c 0
 212.666992188 163.3984375 215.075195312 150.223632812 219.041992188 139.172851562 c 0
 223.008789062 128.123046875 229.383789062 119.33984375 238.166992188 112.823242188 c 0
 246.950195312 106.306640625 257.575195312 103.047851562 270.041992188 103.047851562 c 0
EndSplineSet
Validated: 524289
EndChar

StartChar: P
Encoding: 80 80 59
Width: 550
VWidth: 901
GlyphClass: 2
Flags: HMW
HStem: 247.395 69.7<314.062 321.712 314.062 335.878> 587.397 68.8483<395.944 439.011>
LayerCount: 2
Fore
SplineSet
195.913085938 72.2939453125 m 0
 193.646484375 60.39453125 186.985351562 51.1884765625 175.934570312 44.671875 c 0
 165.76953125 38.67578125 155.483398438 35.6787109375 145.078125 35.6787109375 c 0
 144.172851562 35.6787109375 143.267578125 35.701171875 142.360351562 35.7470703125 c 0
 131.02734375 35.7470703125 122.668945312 39.2890625 117.286132812 46.3720703125 c 0
 114.364257812 50.216796875 112.90234375 55.0224609375 112.90234375 60.7880859375 c 0
 112.90234375 65.6435546875 113.939453125 71.1796875 116.010742188 77.396484375 c 0
 118.27734375 86.4638671875 121.677734375 99.921875 126.2109375 117.771484375 c 0
 130.744140625 135.622070312 135.84375 157.721679688 141.510742188 184.072265625 c 0
 147.177734375 210.421875 152.560546875 235.921875 157.661132812 260.572265625 c 0
 162.760742188 285.221679688 168.994140625 315.396484375 176.361328125 351.096679688 c 0
 183.727539062 386.796875 189.9609375 416.546875 195.060546875 440.346679688 c 0
 202.994140625 477.1796875 214.611328125 525.913085938 229.911132812 586.545898438 c 1
 226.510742188 590.795898438 l 2
 224.244140625 597.595703125 224.52734375 604.538085938 227.360351562 611.62109375 c 0
 230.193359375 618.704101562 234.443359375 625.079101562 240.110351562 630.74609375 c 0
 245.77734375 636.413085938 251.444335938 639.8125 257.111328125 640.946289062 c 0
 277.510742188 645.479492188 306.411132812 649.162109375 343.810546875 651.995117188 c 0
 381.2109375 654.828125 406.994140625 656.245117188 421.161132812 656.245117188 c 0
 456.861328125 656.245117188 487.177734375 649.4453125 512.111328125 635.844726562 c 0
 537.043945312 622.245117188 554.611328125 601.703125 564.810546875 574.219726562 c 0
 570.548828125 558.760742188 573.416992188 541.642578125 573.416992188 522.8671875 c 0
 573.416992188 508.262695312 571.681640625 492.65625 568.2109375 476.044921875 c 0
 560.84375 444.3125 549.0859375 414.419921875 532.935546875 386.370117188 c 0
 516.786132812 358.3203125 498.0859375 334.094726562 476.8359375 313.6953125 c 0
 455.5859375 293.294921875 431.502929688 277.145507812 404.5859375 265.245117188 c 0
 377.668945312 253.344726562 350.043945312 247.395507812 321.7109375 247.395507812 c 0
 280.34375 247.395507812 248.611328125 250.51171875 226.510742188 256.745117188 c 1
 221.977539062 232.9453125 217.870117188 210.13671875 214.186523438 188.3203125 c 0
 210.50390625 166.502929688 206.8203125 143.8359375 203.137695312 120.319335938 c 0
 199.454101562 96.802734375 197.046875 80.7939453125 195.913085938 72.2939453125 c 0
405.009765625 587.396484375 m 0
 386.876953125 587.396484375 353.16015625 585.127929688 303.860351562 580.594726562 c 1
 301.02734375 569.26171875 295.643554688 548.294921875 287.7109375 517.6953125 c 0
 279.77734375 487.094726562 271.844726562 455.645507812 263.912109375 423.344726562 c 0
 255.978515625 391.044921875 248.611328125 359.594726562 241.811523438 328.995117188 c 1
 259.874023438 321.026367188 282.168945312 317.041992188 308.697265625 317.041992188 c 0
 310.466796875 317.041992188 312.254882812 317.059570312 314.061523438 317.094726562 c 0
 329.361328125 317.094726562 343.528320312 318.228515625 356.561523438 320.495117188 c 0
 369.594726562 322.76171875 381.211914062 325.87890625 391.412109375 329.845703125 c 0
 401.611328125 333.8125 411.245117188 339.0546875 420.311523438 345.572265625 c 0
 429.37890625 352.088867188 437.028320312 358.60546875 443.26171875 365.123046875 c 0
 449.495117188 371.639648438 455.302734375 379.290039062 460.685546875 388.072265625 c 0
 466.069335938 396.85546875 470.4609375 404.7890625 473.861328125 411.872070312 c 0
 477.260742188 418.955078125 480.518554688 427.171875 483.635742188 436.521484375 c 0
 486.752929688 445.872070312 489.161132812 453.521484375 490.861328125 459.471679688 c 0
 492.560546875 465.421875 494.543945312 472.646484375 496.810546875 481.146484375 c 0
 498.8515625 490.666992188 499.87109375 499.625976562 499.87109375 508.0234375 c 0
 499.87109375 513.623046875 499.416992188 518.971679688 498.510742188 524.072265625 c 0
 496.244140625 536.822265625 491.8515625 547.021484375 485.334960938 554.671875 c 0
 478.818359375 562.322265625 470.884765625 568.697265625 461.53515625 573.796875 c 0
 452.184570312 578.896484375 442.693359375 582.438476562 433.059570312 584.421875 c 0
 423.426757812 586.405273438 414.077148438 587.396484375 405.009765625 587.396484375 c 0
EndSplineSet
Validated: 524289
EndChar

